G04 #@! TF.FileFunction,Copper,L1,Top,Signal*
%FSLAX46Y46*%
G04 Gerber Fmt 4.6, Leading zero omitted, Abs format (unit mm)*
G04 Created by KiCad (PCBNEW 4.0.1-stable) date 2016/11/05 8:31:47*
%MOMM*%
G01*
G04 APERTURE LIST*
%ADD10C,0.100000*%
%ADD11C,1.400000*%
%ADD12O,1.524000X3.048000*%
%ADD13R,1.049020X1.079500*%
%ADD14O,3.048000X1.524000*%
%ADD15C,0.800000*%
%ADD16C,0.300000*%
%ADD17C,0.249800*%
%ADD18C,0.254000*%
G04 APERTURE END LIST*
D10*
D11*
X140383238Y-130074660D02*
X140524660Y-129933238D01*
X141825736Y-131517158D02*
X141967158Y-131375736D01*
X143268233Y-132959655D02*
X143409655Y-132818233D01*
D12*
X123190000Y-139000000D03*
X125730000Y-139000000D03*
X128270000Y-139000000D03*
X130810000Y-139000000D03*
X133350000Y-139000000D03*
X135890000Y-139000000D03*
X138430000Y-139000000D03*
X140970000Y-139000000D03*
X143510000Y-139000000D03*
X146050000Y-139000000D03*
X148590000Y-139000000D03*
X151130000Y-139000000D03*
X153670000Y-139000000D03*
X156210000Y-139000000D03*
X158750000Y-139000000D03*
X161290000Y-139000000D03*
X163830000Y-139000000D03*
X166370000Y-139000000D03*
X168910000Y-139000000D03*
X171450000Y-139000000D03*
X123190000Y-116140000D03*
X125730000Y-116140000D03*
X128270000Y-116140000D03*
X130810000Y-116140000D03*
X133350000Y-116140000D03*
X135890000Y-116140000D03*
X138430000Y-116140000D03*
X140970000Y-116140000D03*
X143510000Y-116140000D03*
X146050000Y-116140000D03*
X148590000Y-116140000D03*
X151130000Y-116140000D03*
X153670000Y-116140000D03*
X156210000Y-116140000D03*
X158750000Y-116140000D03*
X161290000Y-116140000D03*
X163830000Y-116140000D03*
X166370000Y-116140000D03*
X168910000Y-116140000D03*
X171450000Y-116140000D03*
D13*
X164873760Y-126750000D03*
X163126240Y-126750000D03*
D10*
G36*
X137879613Y-131192934D02*
X138642934Y-130429613D01*
X139384703Y-131171382D01*
X138621382Y-131934703D01*
X137879613Y-131192934D01*
X137879613Y-131192934D01*
G37*
G36*
X139115297Y-132428618D02*
X139878618Y-131665297D01*
X140620387Y-132407066D01*
X139857066Y-133170387D01*
X139115297Y-132428618D01*
X139115297Y-132428618D01*
G37*
G36*
X143120387Y-134907066D02*
X142357066Y-135670387D01*
X141615297Y-134928618D01*
X142378618Y-134165297D01*
X143120387Y-134907066D01*
X143120387Y-134907066D01*
G37*
G36*
X141884703Y-133671382D02*
X141121382Y-134434703D01*
X140379613Y-133692934D01*
X141142934Y-132929613D01*
X141884703Y-133671382D01*
X141884703Y-133671382D01*
G37*
D13*
X129276240Y-121700000D03*
X131023760Y-121700000D03*
D10*
G36*
X147620387Y-133407066D02*
X146857066Y-134170387D01*
X146115297Y-133428618D01*
X146878618Y-132665297D01*
X147620387Y-133407066D01*
X147620387Y-133407066D01*
G37*
G36*
X146384703Y-132171382D02*
X145621382Y-132934703D01*
X144879613Y-132192934D01*
X145642934Y-131429613D01*
X146384703Y-132171382D01*
X146384703Y-132171382D01*
G37*
G36*
X141642934Y-125420387D02*
X140879613Y-124657066D01*
X141621382Y-123915297D01*
X142384703Y-124678618D01*
X141642934Y-125420387D01*
X141642934Y-125420387D01*
G37*
G36*
X142878618Y-124184703D02*
X142115297Y-123421382D01*
X142857066Y-122679613D01*
X143620387Y-123442934D01*
X142878618Y-124184703D01*
X142878618Y-124184703D01*
G37*
D14*
X135550000Y-129840000D03*
X135550000Y-127300000D03*
X135550000Y-124760000D03*
D12*
X167230000Y-124500000D03*
X169770000Y-124500000D03*
X167230000Y-130750000D03*
X169770000Y-130750000D03*
D13*
X163126240Y-128750000D03*
X164873760Y-128750000D03*
X129376240Y-132500000D03*
X131123760Y-132500000D03*
D12*
X127989400Y-130451200D03*
X127989400Y-123948800D03*
X132510600Y-130451200D03*
X132510600Y-123948800D03*
D10*
G36*
X144358311Y-127979379D02*
X144181534Y-127802602D01*
X145100773Y-126883363D01*
X145277550Y-127060140D01*
X144358311Y-127979379D01*
X144358311Y-127979379D01*
G37*
G36*
X144711864Y-128332932D02*
X144535087Y-128156155D01*
X145454326Y-127236916D01*
X145631103Y-127413693D01*
X144711864Y-128332932D01*
X144711864Y-128332932D01*
G37*
G36*
X145065418Y-128686486D02*
X144888641Y-128509709D01*
X145807880Y-127590470D01*
X145984657Y-127767247D01*
X145065418Y-128686486D01*
X145065418Y-128686486D01*
G37*
G36*
X145418971Y-129040039D02*
X145242194Y-128863262D01*
X146161433Y-127944023D01*
X146338210Y-128120800D01*
X145418971Y-129040039D01*
X145418971Y-129040039D01*
G37*
G36*
X145772524Y-129393592D02*
X145595747Y-129216815D01*
X146514986Y-128297576D01*
X146691763Y-128474353D01*
X145772524Y-129393592D01*
X145772524Y-129393592D01*
G37*
G36*
X146126078Y-129747146D02*
X145949301Y-129570369D01*
X146868540Y-128651130D01*
X147045317Y-128827907D01*
X146126078Y-129747146D01*
X146126078Y-129747146D01*
G37*
G36*
X146479631Y-130100699D02*
X146302854Y-129923922D01*
X147222093Y-129004683D01*
X147398870Y-129181460D01*
X146479631Y-130100699D01*
X146479631Y-130100699D01*
G37*
G36*
X146833185Y-130454253D02*
X146656408Y-130277476D01*
X147575647Y-129358237D01*
X147752424Y-129535014D01*
X146833185Y-130454253D01*
X146833185Y-130454253D01*
G37*
G36*
X147186738Y-130807806D02*
X147009961Y-130631029D01*
X147929200Y-129711790D01*
X148105977Y-129888567D01*
X147186738Y-130807806D01*
X147186738Y-130807806D01*
G37*
G36*
X147540291Y-131161359D02*
X147363514Y-130984582D01*
X148282753Y-130065343D01*
X148459530Y-130242120D01*
X147540291Y-131161359D01*
X147540291Y-131161359D01*
G37*
G36*
X147893845Y-131514913D02*
X147717068Y-131338136D01*
X148636307Y-130418897D01*
X148813084Y-130595674D01*
X147893845Y-131514913D01*
X147893845Y-131514913D01*
G37*
G36*
X148247398Y-131868466D02*
X148070621Y-131691689D01*
X148989860Y-130772450D01*
X149166637Y-130949227D01*
X148247398Y-131868466D01*
X148247398Y-131868466D01*
G37*
G36*
X151429379Y-131691689D02*
X151252602Y-131868466D01*
X150333363Y-130949227D01*
X150510140Y-130772450D01*
X151429379Y-131691689D01*
X151429379Y-131691689D01*
G37*
G36*
X151782932Y-131338136D02*
X151606155Y-131514913D01*
X150686916Y-130595674D01*
X150863693Y-130418897D01*
X151782932Y-131338136D01*
X151782932Y-131338136D01*
G37*
G36*
X152136486Y-130984582D02*
X151959709Y-131161359D01*
X151040470Y-130242120D01*
X151217247Y-130065343D01*
X152136486Y-130984582D01*
X152136486Y-130984582D01*
G37*
G36*
X152490039Y-130631029D02*
X152313262Y-130807806D01*
X151394023Y-129888567D01*
X151570800Y-129711790D01*
X152490039Y-130631029D01*
X152490039Y-130631029D01*
G37*
G36*
X152843592Y-130277476D02*
X152666815Y-130454253D01*
X151747576Y-129535014D01*
X151924353Y-129358237D01*
X152843592Y-130277476D01*
X152843592Y-130277476D01*
G37*
G36*
X153197146Y-129923922D02*
X153020369Y-130100699D01*
X152101130Y-129181460D01*
X152277907Y-129004683D01*
X153197146Y-129923922D01*
X153197146Y-129923922D01*
G37*
G36*
X153550699Y-129570369D02*
X153373922Y-129747146D01*
X152454683Y-128827907D01*
X152631460Y-128651130D01*
X153550699Y-129570369D01*
X153550699Y-129570369D01*
G37*
G36*
X153904253Y-129216815D02*
X153727476Y-129393592D01*
X152808237Y-128474353D01*
X152985014Y-128297576D01*
X153904253Y-129216815D01*
X153904253Y-129216815D01*
G37*
G36*
X154257806Y-128863262D02*
X154081029Y-129040039D01*
X153161790Y-128120800D01*
X153338567Y-127944023D01*
X154257806Y-128863262D01*
X154257806Y-128863262D01*
G37*
G36*
X154611359Y-128509709D02*
X154434582Y-128686486D01*
X153515343Y-127767247D01*
X153692120Y-127590470D01*
X154611359Y-128509709D01*
X154611359Y-128509709D01*
G37*
G36*
X154964913Y-128156155D02*
X154788136Y-128332932D01*
X153868897Y-127413693D01*
X154045674Y-127236916D01*
X154964913Y-128156155D01*
X154964913Y-128156155D01*
G37*
G36*
X155318466Y-127802602D02*
X155141689Y-127979379D01*
X154222450Y-127060140D01*
X154399227Y-126883363D01*
X155318466Y-127802602D01*
X155318466Y-127802602D01*
G37*
G36*
X154399227Y-125716637D02*
X154222450Y-125539860D01*
X155141689Y-124620621D01*
X155318466Y-124797398D01*
X154399227Y-125716637D01*
X154399227Y-125716637D01*
G37*
G36*
X154045674Y-125363084D02*
X153868897Y-125186307D01*
X154788136Y-124267068D01*
X154964913Y-124443845D01*
X154045674Y-125363084D01*
X154045674Y-125363084D01*
G37*
G36*
X153692120Y-125009530D02*
X153515343Y-124832753D01*
X154434582Y-123913514D01*
X154611359Y-124090291D01*
X153692120Y-125009530D01*
X153692120Y-125009530D01*
G37*
G36*
X153338567Y-124655977D02*
X153161790Y-124479200D01*
X154081029Y-123559961D01*
X154257806Y-123736738D01*
X153338567Y-124655977D01*
X153338567Y-124655977D01*
G37*
G36*
X152985014Y-124302424D02*
X152808237Y-124125647D01*
X153727476Y-123206408D01*
X153904253Y-123383185D01*
X152985014Y-124302424D01*
X152985014Y-124302424D01*
G37*
G36*
X152631460Y-123948870D02*
X152454683Y-123772093D01*
X153373922Y-122852854D01*
X153550699Y-123029631D01*
X152631460Y-123948870D01*
X152631460Y-123948870D01*
G37*
G36*
X152277907Y-123595317D02*
X152101130Y-123418540D01*
X153020369Y-122499301D01*
X153197146Y-122676078D01*
X152277907Y-123595317D01*
X152277907Y-123595317D01*
G37*
G36*
X151924353Y-123241763D02*
X151747576Y-123064986D01*
X152666815Y-122145747D01*
X152843592Y-122322524D01*
X151924353Y-123241763D01*
X151924353Y-123241763D01*
G37*
G36*
X151570800Y-122888210D02*
X151394023Y-122711433D01*
X152313262Y-121792194D01*
X152490039Y-121968971D01*
X151570800Y-122888210D01*
X151570800Y-122888210D01*
G37*
G36*
X151217247Y-122534657D02*
X151040470Y-122357880D01*
X151959709Y-121438641D01*
X152136486Y-121615418D01*
X151217247Y-122534657D01*
X151217247Y-122534657D01*
G37*
G36*
X150863693Y-122181103D02*
X150686916Y-122004326D01*
X151606155Y-121085087D01*
X151782932Y-121261864D01*
X150863693Y-122181103D01*
X150863693Y-122181103D01*
G37*
G36*
X150510140Y-121827550D02*
X150333363Y-121650773D01*
X151252602Y-120731534D01*
X151429379Y-120908311D01*
X150510140Y-121827550D01*
X150510140Y-121827550D01*
G37*
G36*
X149166637Y-121650773D02*
X148989860Y-121827550D01*
X148070621Y-120908311D01*
X148247398Y-120731534D01*
X149166637Y-121650773D01*
X149166637Y-121650773D01*
G37*
G36*
X148813084Y-122004326D02*
X148636307Y-122181103D01*
X147717068Y-121261864D01*
X147893845Y-121085087D01*
X148813084Y-122004326D01*
X148813084Y-122004326D01*
G37*
G36*
X148459530Y-122357880D02*
X148282753Y-122534657D01*
X147363514Y-121615418D01*
X147540291Y-121438641D01*
X148459530Y-122357880D01*
X148459530Y-122357880D01*
G37*
G36*
X148105977Y-122711433D02*
X147929200Y-122888210D01*
X147009961Y-121968971D01*
X147186738Y-121792194D01*
X148105977Y-122711433D01*
X148105977Y-122711433D01*
G37*
G36*
X147752424Y-123064986D02*
X147575647Y-123241763D01*
X146656408Y-122322524D01*
X146833185Y-122145747D01*
X147752424Y-123064986D01*
X147752424Y-123064986D01*
G37*
G36*
X147398870Y-123418540D02*
X147222093Y-123595317D01*
X146302854Y-122676078D01*
X146479631Y-122499301D01*
X147398870Y-123418540D01*
X147398870Y-123418540D01*
G37*
G36*
X147045317Y-123772093D02*
X146868540Y-123948870D01*
X145949301Y-123029631D01*
X146126078Y-122852854D01*
X147045317Y-123772093D01*
X147045317Y-123772093D01*
G37*
G36*
X146691763Y-124125647D02*
X146514986Y-124302424D01*
X145595747Y-123383185D01*
X145772524Y-123206408D01*
X146691763Y-124125647D01*
X146691763Y-124125647D01*
G37*
G36*
X146338210Y-124479200D02*
X146161433Y-124655977D01*
X145242194Y-123736738D01*
X145418971Y-123559961D01*
X146338210Y-124479200D01*
X146338210Y-124479200D01*
G37*
G36*
X145984657Y-124832753D02*
X145807880Y-125009530D01*
X144888641Y-124090291D01*
X145065418Y-123913514D01*
X145984657Y-124832753D01*
X145984657Y-124832753D01*
G37*
G36*
X145631103Y-125186307D02*
X145454326Y-125363084D01*
X144535087Y-124443845D01*
X144711864Y-124267068D01*
X145631103Y-125186307D01*
X145631103Y-125186307D01*
G37*
G36*
X145277550Y-125539860D02*
X145100773Y-125716637D01*
X144181534Y-124797398D01*
X144358311Y-124620621D01*
X145277550Y-125539860D01*
X145277550Y-125539860D01*
G37*
D14*
X124050000Y-121920000D03*
X124050000Y-124460000D03*
X124050000Y-127000000D03*
X124050000Y-129540000D03*
X124050000Y-132080000D03*
D10*
G36*
X156129613Y-128942934D02*
X156892934Y-128179613D01*
X157634703Y-128921382D01*
X156871382Y-129684703D01*
X156129613Y-128942934D01*
X156129613Y-128942934D01*
G37*
G36*
X157365297Y-130178618D02*
X158128618Y-129415297D01*
X158870387Y-130157066D01*
X158107066Y-130920387D01*
X157365297Y-130178618D01*
X157365297Y-130178618D01*
G37*
G36*
X156129613Y-123692934D02*
X156892934Y-122929613D01*
X157634703Y-123671382D01*
X156871382Y-124434703D01*
X156129613Y-123692934D01*
X156129613Y-123692934D01*
G37*
G36*
X157365297Y-124928618D02*
X158128618Y-124165297D01*
X158870387Y-124907066D01*
X158107066Y-125670387D01*
X157365297Y-124928618D01*
X157365297Y-124928618D01*
G37*
G36*
X153679613Y-131392934D02*
X154442934Y-130629613D01*
X155184703Y-131371382D01*
X154421382Y-132134703D01*
X153679613Y-131392934D01*
X153679613Y-131392934D01*
G37*
G36*
X154915297Y-132628618D02*
X155678618Y-131865297D01*
X156420387Y-132607066D01*
X155657066Y-133370387D01*
X154915297Y-132628618D01*
X154915297Y-132628618D01*
G37*
D15*
X170200000Y-134200000D03*
X161900000Y-134400000D03*
X162150000Y-123650000D03*
X170450000Y-121450000D03*
X161750000Y-125900000D03*
X143550000Y-129900000D03*
X137150000Y-135300000D03*
X137850000Y-128850000D03*
X134700000Y-131950000D03*
X124400000Y-134450000D03*
X132100000Y-135750000D03*
X134750000Y-135450000D03*
X139650000Y-135550000D03*
X131950000Y-127400000D03*
X154950000Y-135700000D03*
X156050000Y-126100000D03*
X153450000Y-126100000D03*
X150750000Y-124000000D03*
X147850000Y-127200000D03*
X127650000Y-120200000D03*
X151550000Y-135200000D03*
X149450000Y-135200000D03*
X144450000Y-133900000D03*
X146650000Y-135200000D03*
X139950000Y-123600000D03*
X126950000Y-135700000D03*
X127050000Y-127200000D03*
X129150000Y-127200000D03*
X160450000Y-128000000D03*
X157350000Y-134100000D03*
X159550000Y-131600000D03*
X167150000Y-127900000D03*
X153556200Y-130702400D03*
X148535400Y-125054200D03*
X150798700Y-128365700D03*
X132774700Y-132532200D03*
X146802100Y-125135200D03*
X148877600Y-132529200D03*
X150312800Y-132381100D03*
X152333200Y-127962300D03*
X143916800Y-121347900D03*
D16*
X139810000Y-130004000D02*
X138632000Y-131182000D01*
X140454000Y-130004000D02*
X139810000Y-130004000D01*
X140454000Y-130004000D02*
X140453900Y-130003900D01*
X146143800Y-128845600D02*
X146143800Y-128846000D01*
X146144000Y-128846000D02*
X146143800Y-128846000D01*
X142554000Y-130004000D02*
X140454000Y-130004000D01*
X143650000Y-131100000D02*
X142554000Y-130004000D01*
X143850000Y-131100000D02*
X143650000Y-131100000D01*
X146104000Y-128846000D02*
X143850000Y-131100000D01*
X146143800Y-128846000D02*
X146104000Y-128846000D01*
X138632100Y-131182100D02*
X138632000Y-131182000D01*
X138430000Y-132171500D02*
X138036400Y-131777800D01*
X138430000Y-139000000D02*
X138430000Y-132171500D01*
X138632100Y-131182100D02*
X138036400Y-131777800D01*
X167230000Y-130750000D02*
X165550000Y-130750000D01*
X165550000Y-130750000D02*
X161900000Y-134400000D01*
X160450000Y-125350000D02*
X162150000Y-123650000D01*
X160450000Y-125400000D02*
X160450000Y-125350000D01*
X170450000Y-121450000D02*
X170500000Y-121450000D01*
X160450000Y-125400000D02*
X161250000Y-125400000D01*
X161250000Y-125400000D02*
X161750000Y-125900000D01*
X160450000Y-128000000D02*
X160450000Y-125400000D01*
X132100000Y-135750000D02*
X132150000Y-135750000D01*
X134750000Y-135450000D02*
X134650000Y-135450000D01*
X129150000Y-127200000D02*
X131750000Y-127200000D01*
X131750000Y-127200000D02*
X131950000Y-127400000D01*
X150750000Y-124000000D02*
X150750000Y-124300000D01*
X157232158Y-124917842D02*
X156050000Y-126100000D01*
X153450000Y-126100000D02*
X151350000Y-124000000D01*
X151350000Y-124000000D02*
X150750000Y-124000000D01*
X158117842Y-124917842D02*
X157232158Y-124917842D01*
X150750000Y-124300000D02*
X147850000Y-127200000D01*
X131023760Y-121700000D02*
X131023760Y-121573760D01*
X131023760Y-121573760D02*
X129650000Y-120200000D01*
X129650000Y-120200000D02*
X127650000Y-120200000D01*
X151550000Y-135200000D02*
X149450000Y-135200000D01*
X145350000Y-133900000D02*
X144450000Y-133900000D01*
X146650000Y-135200000D02*
X145350000Y-133900000D01*
X140117842Y-123432158D02*
X142867842Y-123432158D01*
X139950000Y-123600000D02*
X140117842Y-123432158D01*
X131023760Y-121700000D02*
X131023760Y-122461960D01*
X131023760Y-122461960D02*
X132510600Y-123948800D01*
X125730000Y-136920000D02*
X125730000Y-139000000D01*
X126950000Y-135700000D02*
X125730000Y-136920000D01*
X127050000Y-127200000D02*
X128350000Y-127200000D01*
X128350000Y-127200000D02*
X129150000Y-127200000D01*
X158117842Y-124917842D02*
X158117842Y-125667842D01*
X158117842Y-125667842D02*
X160450000Y-128000000D01*
X158117842Y-130167842D02*
X159550000Y-131600000D01*
X157350000Y-134100000D02*
X155867842Y-132617842D01*
X155867842Y-132617842D02*
X155667842Y-132617842D01*
X158117842Y-130167842D02*
X166647842Y-130167842D01*
X166647842Y-130167842D02*
X167230000Y-130750000D01*
X166750000Y-128300000D02*
X165323760Y-128300000D01*
X167150000Y-127900000D02*
X166750000Y-128300000D01*
X165323760Y-128300000D02*
X164873760Y-128750000D01*
X143700000Y-123432000D02*
X145083000Y-124815000D01*
X142868000Y-123432000D02*
X143700000Y-123432000D01*
X141896000Y-132918000D02*
X141132000Y-133682000D01*
X141896000Y-131446000D02*
X141896000Y-132918000D01*
X140839000Y-131446000D02*
X141896000Y-131446000D01*
X139868000Y-132418000D02*
X140839000Y-131446000D01*
X146497300Y-129199100D02*
X146497000Y-129199100D01*
X146497000Y-129199000D02*
X146497000Y-129199100D01*
X142367900Y-134917900D02*
X142368000Y-134918000D01*
X143339000Y-132411000D02*
X143339000Y-133179000D01*
X146497000Y-129253000D02*
X143339000Y-132411000D01*
X146497000Y-129199100D02*
X146497000Y-129253000D01*
X143338900Y-133178900D02*
X143338900Y-132888900D01*
X143339000Y-133179000D02*
X143338900Y-133178900D01*
X143339000Y-133947000D02*
X142368000Y-134918000D01*
X143339000Y-133179000D02*
X143339000Y-133947000D01*
X140970000Y-136316000D02*
X140970000Y-139000000D01*
X142368000Y-134918000D02*
X140970000Y-136316000D01*
X132087600Y-125795100D02*
X130095100Y-125795100D01*
X132087600Y-125795100D02*
X133154900Y-125795100D01*
X133154900Y-125795100D02*
X133650000Y-125300000D01*
X133650000Y-125300000D02*
X133650000Y-124100000D01*
X133650000Y-124100000D02*
X134119100Y-123630900D01*
X134119100Y-123630900D02*
X137961200Y-123630900D01*
X137961200Y-123630900D02*
X140891400Y-126561100D01*
X140891400Y-126561100D02*
X145206600Y-126561100D01*
X145206600Y-126561100D02*
X147524600Y-128879000D01*
X146850900Y-129552700D02*
X147524600Y-128879000D01*
X129276200Y-124976200D02*
X129276200Y-122662000D01*
X130095100Y-125795100D02*
X129276200Y-124976200D01*
X124050000Y-132080000D02*
X126360600Y-132080000D01*
X126360600Y-132080000D02*
X127989400Y-130451200D01*
X129276200Y-122662000D02*
X129115400Y-122822800D01*
X129276200Y-121700000D02*
X129276200Y-122662000D01*
X129115400Y-122822800D02*
X127989400Y-123948800D01*
X129150000Y-128200000D02*
X129350000Y-128200000D01*
X129376240Y-128226240D02*
X129376240Y-132500000D01*
X129350000Y-128200000D02*
X129376240Y-128226240D01*
X125750000Y-121920000D02*
X126170000Y-121920000D01*
X126550000Y-126200000D02*
X126050000Y-126700000D01*
X126550000Y-122300000D02*
X126550000Y-126200000D01*
X126170000Y-121920000D02*
X126550000Y-122300000D01*
X126050000Y-126700000D02*
X126050000Y-128153400D01*
X126050000Y-128153400D02*
X126003400Y-128200000D01*
X126003400Y-128200000D02*
X129150000Y-128200000D01*
X129150000Y-128200000D02*
X129102000Y-128248000D01*
X144729500Y-125168500D02*
X144729500Y-125168600D01*
X144229000Y-124668000D02*
X144729500Y-125168500D01*
X141632200Y-124668000D02*
X144229000Y-124668000D01*
X154432100Y-131382100D02*
X154432000Y-131382000D01*
X166165300Y-126285700D02*
X165701000Y-126750000D01*
X166165300Y-124500000D02*
X166165300Y-126285700D01*
X167230000Y-124500000D02*
X166165300Y-124500000D01*
X164873800Y-126750000D02*
X165701000Y-126750000D01*
X152295800Y-129906000D02*
X152295600Y-129906200D01*
X152296000Y-129906000D02*
X152295800Y-129906000D01*
X152356000Y-129906000D02*
X153229500Y-130779500D01*
X152296000Y-129906000D02*
X152356000Y-129906000D01*
X153832000Y-131382000D02*
X154432000Y-131382000D01*
X153229500Y-130779500D02*
X153832000Y-131382000D01*
X141632000Y-124668000D02*
X141632200Y-124668000D01*
X153479100Y-130779500D02*
X153556200Y-130702400D01*
X153229500Y-130779500D02*
X153479100Y-130779500D01*
X141632200Y-124668000D02*
X141632100Y-124667900D01*
X144729500Y-125168500D02*
X144730000Y-125169000D01*
X145401000Y-125840000D02*
X144730000Y-125169000D01*
X147749600Y-125840000D02*
X145401000Y-125840000D01*
X148535400Y-125054200D02*
X147749600Y-125840000D01*
X123875700Y-137173300D02*
X128549000Y-132500000D01*
X129102000Y-132500000D02*
X128549000Y-132500000D01*
X123190000Y-139000000D02*
X123190000Y-137173300D01*
X123190000Y-137173300D02*
X123875700Y-137173300D01*
X129376200Y-132500000D02*
X129102000Y-132500000D01*
X124050000Y-121920000D02*
X125750000Y-121920000D01*
X125750000Y-121920000D02*
X125876700Y-121920000D01*
X156882000Y-128932000D02*
X156882100Y-128932100D01*
X155381000Y-127431000D02*
X156882000Y-128932000D01*
X154770900Y-127431000D02*
X155381000Y-127431000D01*
X154770900Y-127431000D02*
X154770500Y-127431400D01*
X154770500Y-125168500D02*
X154770500Y-125168600D01*
X146867900Y-133417900D02*
X146283000Y-132832900D01*
X146753700Y-132362200D02*
X146283000Y-132832900D01*
X146753700Y-131064100D02*
X146753700Y-132362200D01*
X147558000Y-130259800D02*
X146753700Y-131064100D01*
X154770000Y-127431000D02*
X154770900Y-127431000D01*
X154770500Y-125168500D02*
X154770000Y-125169000D01*
X149452100Y-128365700D02*
X147558000Y-130259800D01*
X150798700Y-128365700D02*
X149452100Y-128365700D01*
X154770000Y-127431000D02*
X154770000Y-125169000D01*
X156257000Y-123682000D02*
X154770500Y-125168500D01*
X156882000Y-123682000D02*
X156257000Y-123682000D01*
X169770000Y-124500000D02*
X168705300Y-124500000D01*
X156882100Y-123682000D02*
X156882000Y-123682000D01*
X157895000Y-122669100D02*
X156882100Y-123682000D01*
X167972900Y-122669100D02*
X157895000Y-122669100D01*
X168705300Y-123401500D02*
X167972900Y-122669100D01*
X168705300Y-124500000D02*
X168705300Y-123401500D01*
X156882100Y-123682000D02*
X156882100Y-123682100D01*
X143510000Y-116140000D02*
X143510000Y-117966700D01*
X148618600Y-121279500D02*
X147945000Y-120605800D01*
X145305800Y-117966700D02*
X143510000Y-117966700D01*
X147945000Y-120605800D02*
X145305800Y-117966700D01*
X151130000Y-116140000D02*
X151130000Y-117966700D01*
X152494100Y-121081000D02*
X151588500Y-121986600D01*
X152494100Y-119330800D02*
X152494100Y-121081000D01*
X151130000Y-117966700D02*
X152494100Y-119330800D01*
X131983200Y-132532200D02*
X131951000Y-132500000D01*
X132774700Y-132532200D02*
X131983200Y-132532200D01*
X131123800Y-132500000D02*
X131951000Y-132500000D01*
X146802100Y-124443400D02*
X146802100Y-125135200D01*
X146817500Y-124428000D02*
X146802100Y-124443400D01*
X146143800Y-123754400D02*
X146817500Y-124428000D01*
X130203500Y-135239800D02*
X128270000Y-137173300D01*
X130203500Y-130344000D02*
X130203500Y-135239800D01*
X134329300Y-126218200D02*
X130203500Y-130344000D01*
X138599900Y-126218200D02*
X134329300Y-126218200D01*
X139813100Y-127431400D02*
X138599900Y-126218200D01*
X144729500Y-127431400D02*
X139813100Y-127431400D01*
X128270000Y-139000000D02*
X128270000Y-137173300D01*
X144585900Y-128282100D02*
X145083100Y-127784900D01*
X144233000Y-128282100D02*
X144585900Y-128282100D01*
X143938200Y-127987300D02*
X144233000Y-128282100D01*
X137512700Y-127987300D02*
X143938200Y-127987300D01*
X136930000Y-128570000D02*
X137512700Y-127987300D01*
X134499900Y-128570000D02*
X136930000Y-128570000D01*
X133715200Y-129354700D02*
X134499900Y-128570000D01*
X133715200Y-132585500D02*
X133715200Y-129354700D01*
X130810000Y-135490700D02*
X133715200Y-132585500D01*
X130810000Y-139000000D02*
X130810000Y-135490700D01*
X144840300Y-128734800D02*
X145436600Y-128138500D01*
X144045400Y-128734800D02*
X144840300Y-128734800D01*
X143751000Y-128440400D02*
X144045400Y-128734800D01*
X139536600Y-128440400D02*
X143751000Y-128440400D01*
X133350000Y-134627000D02*
X139536600Y-128440400D01*
X133350000Y-139000000D02*
X133350000Y-134627000D01*
X145790200Y-128492000D02*
X145116400Y-129165800D01*
X145094700Y-129187500D02*
X145116400Y-129165800D01*
X143857900Y-129187500D02*
X145094700Y-129187500D01*
X143579900Y-128909500D02*
X143857900Y-129187500D01*
X139721900Y-128909500D02*
X143579900Y-128909500D01*
X135890000Y-132741400D02*
X139721900Y-128909500D01*
X135890000Y-139000000D02*
X135890000Y-132741400D01*
X147911500Y-130613400D02*
X148585400Y-129939500D01*
X148585400Y-129939500D02*
X149505400Y-130859600D01*
X149505400Y-130859600D02*
X149505400Y-131901400D01*
X149505400Y-131901400D02*
X148877600Y-132529200D01*
X147944400Y-135278900D02*
X146050000Y-137173300D01*
X147944400Y-133229900D02*
X147944400Y-135278900D01*
X147480600Y-132766100D02*
X147944400Y-133229900D01*
X147480600Y-131751400D02*
X147480600Y-132766100D01*
X148265100Y-130966900D02*
X147480600Y-131751400D01*
X146050000Y-139000000D02*
X146050000Y-137173300D01*
X148590000Y-139000000D02*
X148590000Y-137173300D01*
X148618600Y-131320500D02*
X147945000Y-131994100D01*
X148590000Y-136033000D02*
X148590000Y-137173300D01*
X148423900Y-135866900D02*
X148590000Y-136033000D01*
X148423900Y-133069200D02*
X148423900Y-135866900D01*
X148174900Y-132820200D02*
X148423900Y-133069200D01*
X148174900Y-132224100D02*
X148174900Y-132820200D01*
X147945000Y-131994100D02*
X148174900Y-132224100D01*
X151555100Y-131994100D02*
X151555100Y-132805100D01*
X151130000Y-137173300D02*
X151130000Y-139000000D01*
X151599700Y-136703600D02*
X151130000Y-137173300D01*
X152146400Y-136703600D02*
X151599700Y-136703600D01*
X152850000Y-136000000D02*
X152146400Y-136703600D01*
X152850000Y-134100000D02*
X152850000Y-136000000D01*
X151555100Y-132805100D02*
X152850000Y-134100000D01*
X151555100Y-131994100D02*
X151599700Y-131949500D01*
X150881400Y-131320500D02*
X151555100Y-131994100D01*
X151234900Y-130966900D02*
X151781400Y-131513400D01*
D17*
X151982700Y-131714700D02*
X151781400Y-131513400D01*
X152250000Y-132200000D02*
X151982700Y-131714700D01*
X152268300Y-132260500D02*
X152250000Y-132200000D01*
D16*
X153670000Y-133662200D02*
X153670000Y-139000000D01*
X152268300Y-132260500D02*
X153670000Y-133662200D01*
X156210000Y-135234900D02*
X156210000Y-137173300D01*
X151588500Y-130613400D02*
X156210000Y-135234900D01*
X156210000Y-139000000D02*
X156210000Y-137173300D01*
X158750000Y-137067800D02*
X158750000Y-139000000D01*
X151942000Y-130259800D02*
X158750000Y-137067800D01*
X150014200Y-132082500D02*
X150312800Y-132381100D01*
X150014200Y-130840300D02*
X150014200Y-132082500D01*
X151975500Y-128879000D02*
X150014200Y-130840300D01*
X151975500Y-128879000D02*
X152649100Y-129552700D01*
X153803200Y-129999600D02*
X153002700Y-129199100D01*
X154577100Y-129999600D02*
X153803200Y-129999600D01*
X161550800Y-136973300D02*
X154577100Y-129999600D01*
X163830000Y-136973300D02*
X161550800Y-136973300D01*
X163830000Y-139000000D02*
X163830000Y-136973300D01*
X152472900Y-127962300D02*
X152333200Y-127962300D01*
X153356200Y-128845600D02*
X152472900Y-127962300D01*
X169770000Y-130750000D02*
X168705300Y-130750000D01*
X156619300Y-129987300D02*
X154416900Y-127784900D01*
X157062700Y-129987300D02*
X156619300Y-129987300D01*
X157977500Y-129072500D02*
X157062700Y-129987300D01*
X159291500Y-129072500D02*
X157977500Y-129072500D01*
X159826400Y-129607400D02*
X159291500Y-129072500D01*
X165566400Y-129607400D02*
X159826400Y-129607400D01*
X166413600Y-128760200D02*
X165566400Y-129607400D01*
X167914000Y-128760200D02*
X166413600Y-128760200D01*
X168705300Y-129551500D02*
X167914000Y-128760200D01*
X168705300Y-130750000D02*
X168705300Y-129551500D01*
X154416900Y-127784900D02*
X153743300Y-127111200D01*
X149851400Y-127259200D02*
X147204400Y-129906200D01*
X153595300Y-127259200D02*
X149851400Y-127259200D01*
X153743300Y-127111200D02*
X153595300Y-127259200D01*
X146227800Y-131586300D02*
X146227900Y-131586300D01*
X146227800Y-130882800D02*
X146227800Y-131586300D01*
X147204400Y-129906200D02*
X146227800Y-130882800D01*
X145632100Y-132182100D02*
X146227900Y-131586300D01*
X124016700Y-117966700D02*
X123190000Y-117966700D01*
X125215400Y-119165400D02*
X124016700Y-117966700D01*
X130335200Y-119165400D02*
X125215400Y-119165400D01*
X133546600Y-122376800D02*
X130335200Y-119165400D01*
X143311600Y-122376800D02*
X133546600Y-122376800D01*
X144722700Y-123787900D02*
X143311600Y-122376800D01*
X144762900Y-123787900D02*
X144722700Y-123787900D01*
X144763000Y-123787800D02*
X144762900Y-123787900D01*
X145436600Y-124461500D02*
X144763000Y-123787800D01*
X123190000Y-116140000D02*
X123190000Y-117966700D01*
D17*
X145723400Y-124108000D02*
X145790200Y-124108000D01*
X145691000Y-124075600D02*
X145723400Y-124108000D01*
D16*
X130204800Y-118366700D02*
X125730000Y-118366700D01*
X133509200Y-121671100D02*
X130204800Y-118366700D01*
X143246200Y-121671100D02*
X133509200Y-121671100D01*
X144428100Y-122853000D02*
X143246200Y-121671100D01*
X144468400Y-122853000D02*
X144428100Y-122853000D01*
X145691000Y-124075600D02*
X144468400Y-122853000D01*
X125730000Y-116140000D02*
X125730000Y-118366700D01*
X144444300Y-121347900D02*
X143916800Y-121347900D01*
X146497300Y-123400900D02*
X144444300Y-121347900D01*
X130810000Y-116140000D02*
X130810000Y-117966700D01*
X133488500Y-120645200D02*
X130810000Y-117966700D01*
X144448800Y-120645200D02*
X133488500Y-120645200D01*
X146850900Y-123047300D02*
X144448800Y-120645200D01*
X135285200Y-119901900D02*
X133350000Y-117966700D01*
X144412500Y-119901900D02*
X135285200Y-119901900D01*
X147204400Y-122693800D02*
X144412500Y-119901900D01*
X133350000Y-116140000D02*
X133350000Y-117966700D01*
X137372400Y-119449100D02*
X135890000Y-117966700D01*
X144666900Y-119449100D02*
X137372400Y-119449100D01*
X147558000Y-122340200D02*
X144666900Y-119449100D01*
X135890000Y-116140000D02*
X135890000Y-117966700D01*
X144798300Y-118873400D02*
X147911500Y-121986600D01*
X139336700Y-118873400D02*
X144798300Y-118873400D01*
X138430000Y-117966700D02*
X139336700Y-118873400D01*
X138430000Y-116140000D02*
X138430000Y-117966700D01*
X145051500Y-118419500D02*
X148265100Y-121633100D01*
X141422800Y-118419500D02*
X145051500Y-118419500D01*
X140970000Y-117966700D02*
X141422800Y-118419500D01*
X140970000Y-116140000D02*
X140970000Y-117966700D01*
X153670000Y-120612200D02*
X151942000Y-122340200D01*
X153670000Y-116140000D02*
X153670000Y-120612200D01*
X156210000Y-118779400D02*
X156210000Y-116140000D01*
X152295600Y-122693800D02*
X156210000Y-118779400D01*
X157729700Y-117966700D02*
X158750000Y-117966700D01*
X152649100Y-123047300D02*
X157729700Y-117966700D01*
X158750000Y-116140000D02*
X158750000Y-117966700D01*
X160556700Y-118700000D02*
X161290000Y-117966700D01*
X157703600Y-118700000D02*
X160556700Y-118700000D01*
X153002700Y-123400900D02*
X157703600Y-118700000D01*
X161290000Y-116140000D02*
X161290000Y-117966700D01*
X163830000Y-116140000D02*
X163830000Y-117966700D01*
X157104300Y-120006300D02*
X153356200Y-123754400D01*
X161790400Y-120006300D02*
X157104300Y-120006300D01*
X163830000Y-117966700D02*
X161790400Y-120006300D01*
X165607300Y-121269400D02*
X168910000Y-117966700D01*
X157255500Y-121269400D02*
X165607300Y-121269400D01*
X154063400Y-124461500D02*
X157255500Y-121269400D01*
X168910000Y-116140000D02*
X168910000Y-117966700D01*
X167694500Y-121722200D02*
X171450000Y-117966700D01*
X157509800Y-121722200D02*
X167694500Y-121722200D01*
X154416900Y-124815100D02*
X157509800Y-121722200D01*
X171450000Y-116140000D02*
X171450000Y-117966700D01*
X163126200Y-128750000D02*
X163126200Y-126750000D01*
X168052500Y-136315800D02*
X168910000Y-137173300D01*
X161533600Y-136315800D02*
X168052500Y-136315800D01*
X153709800Y-128492000D02*
X161533600Y-136315800D01*
X168910000Y-139000000D02*
X168910000Y-137173300D01*
X171450000Y-139000000D02*
X171450000Y-137173300D01*
X161624900Y-135700000D02*
X154063400Y-128138500D01*
X168288300Y-135700000D02*
X161624900Y-135700000D01*
X169761600Y-137173300D02*
X168288300Y-135700000D01*
X171450000Y-137173300D02*
X169761600Y-137173300D01*
X147516700Y-117966700D02*
X146050000Y-117966700D01*
X149853400Y-120303400D02*
X147516700Y-117966700D01*
X151252600Y-120303400D02*
X149853400Y-120303400D01*
X151555100Y-120605800D02*
X151252600Y-120303400D01*
X150881400Y-121279500D02*
X151555100Y-120605800D01*
X146050000Y-116140000D02*
X146050000Y-117966700D01*
X151234900Y-121633100D02*
X151781400Y-121086600D01*
D17*
X151781400Y-120992900D02*
X151781400Y-121086600D01*
X152021800Y-120752500D02*
X151781400Y-120992900D01*
D16*
X149626900Y-117966700D02*
X148590000Y-117966700D01*
X152021800Y-120361600D02*
X149626900Y-117966700D01*
X152021800Y-120752500D02*
X152021800Y-120361600D01*
X148590000Y-116140000D02*
X148590000Y-117966700D01*
X163722000Y-120614700D02*
X166370000Y-117966700D01*
X157203100Y-120614700D02*
X163722000Y-120614700D01*
X153709800Y-124108000D02*
X157203100Y-120614700D01*
X166370000Y-116140000D02*
X166370000Y-117966700D01*
D18*
G36*
X128599840Y-133636181D02*
X128851730Y-133687190D01*
X129418500Y-133687190D01*
X129418500Y-134914642D01*
X127714921Y-136618221D01*
X127544755Y-136872893D01*
X127539614Y-136898740D01*
X127508159Y-137056875D01*
X127282172Y-137207875D01*
X126989651Y-137645662D01*
X126972059Y-137586059D01*
X126628026Y-137160370D01*
X126147277Y-136898740D01*
X126073070Y-136883780D01*
X125857000Y-137006280D01*
X125857000Y-138873000D01*
X125603000Y-138873000D01*
X125603000Y-137006280D01*
X125386930Y-136883780D01*
X125312723Y-136898740D01*
X125197965Y-136961193D01*
X128554177Y-133604981D01*
X128599840Y-133636181D01*
X128599840Y-133636181D01*
G37*
X128599840Y-133636181D02*
X128851730Y-133687190D01*
X129418500Y-133687190D01*
X129418500Y-134914642D01*
X127714921Y-136618221D01*
X127544755Y-136872893D01*
X127539614Y-136898740D01*
X127508159Y-137056875D01*
X127282172Y-137207875D01*
X126989651Y-137645662D01*
X126972059Y-137586059D01*
X126628026Y-137160370D01*
X126147277Y-136898740D01*
X126073070Y-136883780D01*
X125857000Y-137006280D01*
X125857000Y-138873000D01*
X125603000Y-138873000D01*
X125603000Y-137006280D01*
X125386930Y-136883780D01*
X125312723Y-136898740D01*
X125197965Y-136961193D01*
X128554177Y-133604981D01*
X128599840Y-133636181D01*
G36*
X145163573Y-133392512D02*
X145361276Y-133527597D01*
X145493628Y-133556308D01*
X145515443Y-133672245D01*
X145657488Y-133886427D01*
X146399257Y-134628196D01*
X146596960Y-134763281D01*
X146848122Y-134817765D01*
X147100693Y-134770241D01*
X147159400Y-134731307D01*
X147159400Y-134953742D01*
X145494921Y-136618221D01*
X145324755Y-136872893D01*
X145319614Y-136898740D01*
X145288159Y-137056875D01*
X145062172Y-137207875D01*
X144780000Y-137630174D01*
X144497828Y-137207875D01*
X144044609Y-136905043D01*
X143510000Y-136798703D01*
X142975391Y-136905043D01*
X142522172Y-137207875D01*
X142240000Y-137630174D01*
X141957828Y-137207875D01*
X141755000Y-137072349D01*
X141755000Y-136641158D01*
X142126474Y-136269684D01*
X142348122Y-136317765D01*
X142600693Y-136270241D01*
X142814875Y-136128196D01*
X143578196Y-135364875D01*
X143713281Y-135167172D01*
X143767765Y-134916010D01*
X143722217Y-134673941D01*
X143894079Y-134502079D01*
X144064245Y-134247407D01*
X144118910Y-133972587D01*
X144192342Y-133923522D01*
X144373521Y-133742342D01*
X144662913Y-133309237D01*
X144732162Y-132961101D01*
X145163573Y-133392512D01*
X145163573Y-133392512D01*
G37*
X145163573Y-133392512D02*
X145361276Y-133527597D01*
X145493628Y-133556308D01*
X145515443Y-133672245D01*
X145657488Y-133886427D01*
X146399257Y-134628196D01*
X146596960Y-134763281D01*
X146848122Y-134817765D01*
X147100693Y-134770241D01*
X147159400Y-134731307D01*
X147159400Y-134953742D01*
X145494921Y-136618221D01*
X145324755Y-136872893D01*
X145319614Y-136898740D01*
X145288159Y-137056875D01*
X145062172Y-137207875D01*
X144780000Y-137630174D01*
X144497828Y-137207875D01*
X144044609Y-136905043D01*
X143510000Y-136798703D01*
X142975391Y-136905043D01*
X142522172Y-137207875D01*
X142240000Y-137630174D01*
X141957828Y-137207875D01*
X141755000Y-137072349D01*
X141755000Y-136641158D01*
X142126474Y-136269684D01*
X142348122Y-136317765D01*
X142600693Y-136270241D01*
X142814875Y-136128196D01*
X143578196Y-135364875D01*
X143713281Y-135167172D01*
X143767765Y-134916010D01*
X143722217Y-134673941D01*
X143894079Y-134502079D01*
X144064245Y-134247407D01*
X144118910Y-133972587D01*
X144192342Y-133923522D01*
X144373521Y-133742342D01*
X144662913Y-133309237D01*
X144732162Y-132961101D01*
X145163573Y-133392512D01*
G36*
X137481251Y-132332808D02*
X137481319Y-132332876D01*
X137481321Y-132332879D01*
X137481324Y-132332881D01*
X137645000Y-132496599D01*
X137645000Y-137072349D01*
X137442172Y-137207875D01*
X137160000Y-137630174D01*
X136877828Y-137207875D01*
X136675000Y-137072349D01*
X136675000Y-133066558D01*
X137452216Y-132289342D01*
X137481251Y-132332808D01*
X137481251Y-132332808D01*
G37*
X137481251Y-132332808D02*
X137481319Y-132332876D01*
X137481321Y-132332879D01*
X137481324Y-132332881D01*
X137645000Y-132496599D01*
X137645000Y-137072349D01*
X137442172Y-137207875D01*
X137160000Y-137630174D01*
X136877828Y-137207875D01*
X136675000Y-137072349D01*
X136675000Y-133066558D01*
X137452216Y-132289342D01*
X137481251Y-132332808D01*
G36*
X135105000Y-137072349D02*
X134902172Y-137207875D01*
X134620000Y-137630174D01*
X134337828Y-137207875D01*
X134135000Y-137072349D01*
X134135000Y-134952158D01*
X135105000Y-133982158D01*
X135105000Y-137072349D01*
X135105000Y-137072349D01*
G37*
X135105000Y-137072349D02*
X134902172Y-137207875D01*
X134620000Y-137630174D01*
X134337828Y-137207875D01*
X134135000Y-137072349D01*
X134135000Y-134952158D01*
X135105000Y-133982158D01*
X135105000Y-137072349D01*
G36*
X140061590Y-132403700D02*
X140047447Y-132417842D01*
X141132158Y-133502553D01*
X141146301Y-133488411D01*
X141325906Y-133668016D01*
X141311763Y-133682158D01*
X141325906Y-133696301D01*
X141146301Y-133875906D01*
X141132158Y-133861763D01*
X140503540Y-134490381D01*
X140503540Y-134714887D01*
X140761683Y-134973030D01*
X140995072Y-135069703D01*
X140996149Y-135069703D01*
X141013567Y-135162275D01*
X140414921Y-135760921D01*
X140244755Y-136015593D01*
X140244755Y-136015594D01*
X140185000Y-136316000D01*
X140185000Y-137072349D01*
X139982172Y-137207875D01*
X139700000Y-137630174D01*
X139417828Y-137207875D01*
X139215000Y-137072349D01*
X139215000Y-133250292D01*
X139239224Y-133226068D01*
X139239224Y-133450571D01*
X139497367Y-133708714D01*
X139730756Y-133805387D01*
X139744613Y-133805387D01*
X139744613Y-133819244D01*
X139841286Y-134052633D01*
X140099429Y-134310776D01*
X140323935Y-134310776D01*
X140952553Y-133682158D01*
X139867842Y-132597447D01*
X139853700Y-132611590D01*
X139674095Y-132431985D01*
X139688237Y-132417842D01*
X139674095Y-132403700D01*
X139853700Y-132224095D01*
X139867842Y-132238237D01*
X139881985Y-132224095D01*
X140061590Y-132403700D01*
X140061590Y-132403700D01*
G37*
X140061590Y-132403700D02*
X140047447Y-132417842D01*
X141132158Y-133502553D01*
X141146301Y-133488411D01*
X141325906Y-133668016D01*
X141311763Y-133682158D01*
X141325906Y-133696301D01*
X141146301Y-133875906D01*
X141132158Y-133861763D01*
X140503540Y-134490381D01*
X140503540Y-134714887D01*
X140761683Y-134973030D01*
X140995072Y-135069703D01*
X140996149Y-135069703D01*
X141013567Y-135162275D01*
X140414921Y-135760921D01*
X140244755Y-136015593D01*
X140244755Y-136015594D01*
X140185000Y-136316000D01*
X140185000Y-137072349D01*
X139982172Y-137207875D01*
X139700000Y-137630174D01*
X139417828Y-137207875D01*
X139215000Y-137072349D01*
X139215000Y-133250292D01*
X139239224Y-133226068D01*
X139239224Y-133450571D01*
X139497367Y-133708714D01*
X139730756Y-133805387D01*
X139744613Y-133805387D01*
X139744613Y-133819244D01*
X139841286Y-134052633D01*
X140099429Y-134310776D01*
X140323935Y-134310776D01*
X140952553Y-133682158D01*
X139867842Y-132597447D01*
X139853700Y-132611590D01*
X139674095Y-132431985D01*
X139688237Y-132417842D01*
X139674095Y-132403700D01*
X139853700Y-132224095D01*
X139867842Y-132238237D01*
X139881985Y-132224095D01*
X140061590Y-132403700D01*
G36*
X149725754Y-133258019D02*
X150106023Y-133415920D01*
X150517771Y-133416279D01*
X150898315Y-133259042D01*
X150918788Y-133238605D01*
X151000021Y-133360179D01*
X152065000Y-134425158D01*
X152065000Y-135674842D01*
X151821242Y-135918600D01*
X151599700Y-135918600D01*
X151299293Y-135978355D01*
X151044621Y-136148521D01*
X150574921Y-136618221D01*
X150404755Y-136872893D01*
X150399614Y-136898740D01*
X150368159Y-137056875D01*
X150142172Y-137207875D01*
X149860000Y-137630174D01*
X149577828Y-137207875D01*
X149375000Y-137072349D01*
X149375000Y-136033000D01*
X149315245Y-135732594D01*
X149208900Y-135573436D01*
X149208900Y-133512181D01*
X149463115Y-133407142D01*
X149669225Y-133201391D01*
X149725754Y-133258019D01*
X149725754Y-133258019D01*
G37*
X149725754Y-133258019D02*
X150106023Y-133415920D01*
X150517771Y-133416279D01*
X150898315Y-133259042D01*
X150918788Y-133238605D01*
X151000021Y-133360179D01*
X152065000Y-134425158D01*
X152065000Y-135674842D01*
X151821242Y-135918600D01*
X151599700Y-135918600D01*
X151299293Y-135978355D01*
X151044621Y-136148521D01*
X150574921Y-136618221D01*
X150404755Y-136872893D01*
X150399614Y-136898740D01*
X150368159Y-137056875D01*
X150142172Y-137207875D01*
X149860000Y-137630174D01*
X149577828Y-137207875D01*
X149375000Y-137072349D01*
X149375000Y-136033000D01*
X149315245Y-135732594D01*
X149208900Y-135573436D01*
X149208900Y-133512181D01*
X149463115Y-133407142D01*
X149669225Y-133201391D01*
X149725754Y-133258019D01*
G36*
X132565000Y-137072349D02*
X132362172Y-137207875D01*
X132080000Y-137630174D01*
X131797828Y-137207875D01*
X131595000Y-137072349D01*
X131595000Y-135815858D01*
X132565000Y-134845858D01*
X132565000Y-137072349D01*
X132565000Y-137072349D01*
G37*
X132565000Y-137072349D02*
X132362172Y-137207875D01*
X132080000Y-137630174D01*
X131797828Y-137207875D01*
X131595000Y-137072349D01*
X131595000Y-135815858D01*
X132565000Y-134845858D01*
X132565000Y-137072349D01*
G36*
X155425000Y-135560058D02*
X155425000Y-137072349D01*
X155222172Y-137207875D01*
X154940000Y-137630174D01*
X154657828Y-137207875D01*
X154455000Y-137072349D01*
X154455000Y-134590058D01*
X155425000Y-135560058D01*
X155425000Y-135560058D01*
G37*
X155425000Y-135560058D02*
X155425000Y-137072349D01*
X155222172Y-137207875D01*
X154940000Y-137630174D01*
X154657828Y-137207875D01*
X154455000Y-137072349D01*
X154455000Y-134590058D01*
X155425000Y-135560058D01*
G36*
X155861590Y-132603700D02*
X155847447Y-132617842D01*
X156465289Y-133235684D01*
X156689795Y-133235684D01*
X156696410Y-133229068D01*
X160525796Y-137058454D01*
X160302172Y-137207875D01*
X160020000Y-137630174D01*
X159737828Y-137207875D01*
X159535000Y-137072349D01*
X159535000Y-137067800D01*
X159475245Y-136767394D01*
X159305079Y-136512721D01*
X156285684Y-133493326D01*
X156285684Y-133415289D01*
X155667842Y-132797447D01*
X155653700Y-132811590D01*
X155474095Y-132631985D01*
X155488237Y-132617842D01*
X155474095Y-132603700D01*
X155653700Y-132424095D01*
X155667842Y-132438237D01*
X155681985Y-132424095D01*
X155861590Y-132603700D01*
X155861590Y-132603700D01*
G37*
X155861590Y-132603700D02*
X155847447Y-132617842D01*
X156465289Y-133235684D01*
X156689795Y-133235684D01*
X156696410Y-133229068D01*
X160525796Y-137058454D01*
X160302172Y-137207875D01*
X160020000Y-137630174D01*
X159737828Y-137207875D01*
X159535000Y-137072349D01*
X159535000Y-137067800D01*
X159475245Y-136767394D01*
X159305079Y-136512721D01*
X156285684Y-133493326D01*
X156285684Y-133415289D01*
X155667842Y-132797447D01*
X155653700Y-132811590D01*
X155474095Y-132631985D01*
X155488237Y-132617842D01*
X155474095Y-132603700D01*
X155653700Y-132424095D01*
X155667842Y-132438237D01*
X155681985Y-132424095D01*
X155861590Y-132603700D01*
G36*
X127417561Y-132521281D02*
X123550542Y-136388300D01*
X123190000Y-136388300D01*
X122960000Y-136434050D01*
X122960000Y-133420170D01*
X123245703Y-133477000D01*
X124854297Y-133477000D01*
X125388906Y-133370660D01*
X125842125Y-133067828D01*
X125977651Y-132865000D01*
X126360600Y-132865000D01*
X126661007Y-132805245D01*
X126915679Y-132635079D01*
X127184922Y-132365836D01*
X127417561Y-132521281D01*
X127417561Y-132521281D01*
G37*
X127417561Y-132521281D02*
X123550542Y-136388300D01*
X123190000Y-136388300D01*
X122960000Y-136434050D01*
X122960000Y-133420170D01*
X123245703Y-133477000D01*
X124854297Y-133477000D01*
X125388906Y-133370660D01*
X125842125Y-133067828D01*
X125977651Y-132865000D01*
X126360600Y-132865000D01*
X126661007Y-132805245D01*
X126915679Y-132635079D01*
X127184922Y-132365836D01*
X127417561Y-132521281D01*
G36*
X171540000Y-136406202D02*
X171450000Y-136388300D01*
X170086758Y-136388300D01*
X168843379Y-135144921D01*
X168588707Y-134974755D01*
X168288300Y-134915000D01*
X161950058Y-134915000D01*
X158480268Y-131445210D01*
X158645392Y-131280086D01*
X158735684Y-131189795D01*
X158735684Y-130965289D01*
X158647395Y-130877000D01*
X165833000Y-130877000D01*
X165833000Y-131639000D01*
X165987941Y-132163941D01*
X166331974Y-132589630D01*
X166812723Y-132851260D01*
X166886930Y-132866220D01*
X167103000Y-132743720D01*
X167103000Y-130877000D01*
X165833000Y-130877000D01*
X158647395Y-130877000D01*
X158117842Y-130347447D01*
X158103700Y-130361590D01*
X157951134Y-130209024D01*
X158159024Y-130001134D01*
X158311590Y-130153700D01*
X158297447Y-130167842D01*
X158915289Y-130785684D01*
X159139795Y-130785684D01*
X159230086Y-130695392D01*
X159408715Y-130516764D01*
X159493870Y-130311181D01*
X159525994Y-130332645D01*
X159826400Y-130392400D01*
X165566400Y-130392400D01*
X165833000Y-130339370D01*
X165833000Y-130623000D01*
X167103000Y-130623000D01*
X167103000Y-130603000D01*
X167357000Y-130603000D01*
X167357000Y-130623000D01*
X167377000Y-130623000D01*
X167377000Y-130877000D01*
X167357000Y-130877000D01*
X167357000Y-132743720D01*
X167573070Y-132866220D01*
X167647277Y-132851260D01*
X168128026Y-132589630D01*
X168472059Y-132163941D01*
X168489651Y-132104338D01*
X168782172Y-132542125D01*
X169235391Y-132844957D01*
X169770000Y-132951297D01*
X170304609Y-132844957D01*
X170757828Y-132542125D01*
X171060660Y-132088906D01*
X171167000Y-131554297D01*
X171167000Y-129945703D01*
X171060660Y-129411094D01*
X170757828Y-128957875D01*
X170304609Y-128655043D01*
X169770000Y-128548703D01*
X169235391Y-128655043D01*
X169045729Y-128781771D01*
X168469079Y-128205121D01*
X168214407Y-128034955D01*
X167914000Y-127975200D01*
X166413600Y-127975200D01*
X166113194Y-128034955D01*
X166033270Y-128088358D01*
X166033270Y-128083940D01*
X165936597Y-127850551D01*
X165843733Y-127757687D01*
X165849711Y-127753840D01*
X165994701Y-127541640D01*
X166009201Y-127470037D01*
X166256079Y-127305079D01*
X166720379Y-126840779D01*
X166862431Y-126628183D01*
X167230000Y-126701297D01*
X167764609Y-126594957D01*
X168217828Y-126292125D01*
X168500000Y-125869826D01*
X168782172Y-126292125D01*
X169235391Y-126594957D01*
X169770000Y-126701297D01*
X170304609Y-126594957D01*
X170757828Y-126292125D01*
X171060660Y-125838906D01*
X171167000Y-125304297D01*
X171167000Y-123695703D01*
X171060660Y-123161094D01*
X170757828Y-122707875D01*
X170304609Y-122405043D01*
X169770000Y-122298703D01*
X169235391Y-122405043D01*
X168985784Y-122571826D01*
X168527979Y-122114021D01*
X168458956Y-122067902D01*
X171540000Y-118986858D01*
X171540000Y-136406202D01*
X171540000Y-136406202D01*
G37*
X171540000Y-136406202D02*
X171450000Y-136388300D01*
X170086758Y-136388300D01*
X168843379Y-135144921D01*
X168588707Y-134974755D01*
X168288300Y-134915000D01*
X161950058Y-134915000D01*
X158480268Y-131445210D01*
X158645392Y-131280086D01*
X158735684Y-131189795D01*
X158735684Y-130965289D01*
X158647395Y-130877000D01*
X165833000Y-130877000D01*
X165833000Y-131639000D01*
X165987941Y-132163941D01*
X166331974Y-132589630D01*
X166812723Y-132851260D01*
X166886930Y-132866220D01*
X167103000Y-132743720D01*
X167103000Y-130877000D01*
X165833000Y-130877000D01*
X158647395Y-130877000D01*
X158117842Y-130347447D01*
X158103700Y-130361590D01*
X157951134Y-130209024D01*
X158159024Y-130001134D01*
X158311590Y-130153700D01*
X158297447Y-130167842D01*
X158915289Y-130785684D01*
X159139795Y-130785684D01*
X159230086Y-130695392D01*
X159408715Y-130516764D01*
X159493870Y-130311181D01*
X159525994Y-130332645D01*
X159826400Y-130392400D01*
X165566400Y-130392400D01*
X165833000Y-130339370D01*
X165833000Y-130623000D01*
X167103000Y-130623000D01*
X167103000Y-130603000D01*
X167357000Y-130603000D01*
X167357000Y-130623000D01*
X167377000Y-130623000D01*
X167377000Y-130877000D01*
X167357000Y-130877000D01*
X167357000Y-132743720D01*
X167573070Y-132866220D01*
X167647277Y-132851260D01*
X168128026Y-132589630D01*
X168472059Y-132163941D01*
X168489651Y-132104338D01*
X168782172Y-132542125D01*
X169235391Y-132844957D01*
X169770000Y-132951297D01*
X170304609Y-132844957D01*
X170757828Y-132542125D01*
X171060660Y-132088906D01*
X171167000Y-131554297D01*
X171167000Y-129945703D01*
X171060660Y-129411094D01*
X170757828Y-128957875D01*
X170304609Y-128655043D01*
X169770000Y-128548703D01*
X169235391Y-128655043D01*
X169045729Y-128781771D01*
X168469079Y-128205121D01*
X168214407Y-128034955D01*
X167914000Y-127975200D01*
X166413600Y-127975200D01*
X166113194Y-128034955D01*
X166033270Y-128088358D01*
X166033270Y-128083940D01*
X165936597Y-127850551D01*
X165843733Y-127757687D01*
X165849711Y-127753840D01*
X165994701Y-127541640D01*
X166009201Y-127470037D01*
X166256079Y-127305079D01*
X166720379Y-126840779D01*
X166862431Y-126628183D01*
X167230000Y-126701297D01*
X167764609Y-126594957D01*
X168217828Y-126292125D01*
X168500000Y-125869826D01*
X168782172Y-126292125D01*
X169235391Y-126594957D01*
X169770000Y-126701297D01*
X170304609Y-126594957D01*
X170757828Y-126292125D01*
X171060660Y-125838906D01*
X171167000Y-125304297D01*
X171167000Y-123695703D01*
X171060660Y-123161094D01*
X170757828Y-122707875D01*
X170304609Y-122405043D01*
X169770000Y-122298703D01*
X169235391Y-122405043D01*
X168985784Y-122571826D01*
X168527979Y-122114021D01*
X168458956Y-122067902D01*
X171540000Y-118986858D01*
X171540000Y-136406202D01*
G36*
X134745703Y-131237000D02*
X135629842Y-131237000D01*
X134500200Y-132366642D01*
X134500200Y-131188167D01*
X134745703Y-131237000D01*
X134745703Y-131237000D01*
G37*
X134745703Y-131237000D02*
X135629842Y-131237000D01*
X134500200Y-132366642D01*
X134500200Y-131188167D01*
X134745703Y-131237000D01*
G36*
X142090195Y-131432305D02*
X142076052Y-131446447D01*
X142090195Y-131460590D01*
X141910590Y-131640195D01*
X141896447Y-131626052D01*
X141882305Y-131640195D01*
X141702700Y-131460590D01*
X141716842Y-131446447D01*
X141702700Y-131432305D01*
X141882305Y-131252700D01*
X141896447Y-131266842D01*
X141910589Y-131252699D01*
X142090195Y-131432305D01*
X142090195Y-131432305D01*
G37*
X142090195Y-131432305D02*
X142076052Y-131446447D01*
X142090195Y-131460590D01*
X141910590Y-131640195D01*
X141896447Y-131626052D01*
X141882305Y-131640195D01*
X141702700Y-131460590D01*
X141716842Y-131446447D01*
X141702700Y-131432305D01*
X141882305Y-131252700D01*
X141896447Y-131266842D01*
X141910589Y-131252699D01*
X142090195Y-131432305D01*
G36*
X132637600Y-130324200D02*
X132657600Y-130324200D01*
X132657600Y-130578200D01*
X132637600Y-130578200D01*
X132637600Y-130598200D01*
X132383600Y-130598200D01*
X132383600Y-130578200D01*
X132363600Y-130578200D01*
X132363600Y-130324200D01*
X132383600Y-130324200D01*
X132383600Y-130304200D01*
X132637600Y-130304200D01*
X132637600Y-130324200D01*
X132637600Y-130324200D01*
G37*
X132637600Y-130324200D02*
X132657600Y-130324200D01*
X132657600Y-130578200D01*
X132637600Y-130578200D01*
X132637600Y-130598200D01*
X132383600Y-130598200D01*
X132383600Y-130578200D01*
X132363600Y-130578200D01*
X132363600Y-130324200D01*
X132383600Y-130324200D01*
X132383600Y-130304200D01*
X132637600Y-130304200D01*
X132637600Y-130324200D01*
G36*
X129540019Y-126350176D02*
X129540021Y-126350179D01*
X129794694Y-126520345D01*
X130095100Y-126580100D01*
X132857242Y-126580100D01*
X130161240Y-129276102D01*
X130161240Y-128226240D01*
X130157039Y-128205121D01*
X130101485Y-127925833D01*
X129931319Y-127671161D01*
X129905079Y-127644921D01*
X129650407Y-127474755D01*
X129350000Y-127415000D01*
X126835000Y-127415000D01*
X126835000Y-127025158D01*
X127105079Y-126755079D01*
X127275245Y-126500406D01*
X127335000Y-126200000D01*
X127335000Y-125963715D01*
X127454791Y-126043757D01*
X127989400Y-126150097D01*
X128524009Y-126043757D01*
X128949377Y-125759535D01*
X129540019Y-126350176D01*
X129540019Y-126350176D01*
G37*
X129540019Y-126350176D02*
X129540021Y-126350179D01*
X129794694Y-126520345D01*
X130095100Y-126580100D01*
X132857242Y-126580100D01*
X130161240Y-129276102D01*
X130161240Y-128226240D01*
X130157039Y-128205121D01*
X130101485Y-127925833D01*
X129931319Y-127671161D01*
X129905079Y-127644921D01*
X129650407Y-127474755D01*
X129350000Y-127415000D01*
X126835000Y-127415000D01*
X126835000Y-127025158D01*
X127105079Y-126755079D01*
X127275245Y-126500406D01*
X127335000Y-126200000D01*
X127335000Y-125963715D01*
X127454791Y-126043757D01*
X127989400Y-126150097D01*
X128524009Y-126043757D01*
X128949377Y-125759535D01*
X129540019Y-126350176D01*
G36*
X137611509Y-129255333D02*
X137508696Y-129101462D01*
X137837858Y-128772300D01*
X138094542Y-128772300D01*
X137611509Y-129255333D01*
X137611509Y-129255333D01*
G37*
X137611509Y-129255333D02*
X137508696Y-129101462D01*
X137837858Y-128772300D01*
X138094542Y-128772300D01*
X137611509Y-129255333D01*
G36*
X165000760Y-128623000D02*
X165020760Y-128623000D01*
X165020760Y-128822400D01*
X164726760Y-128822400D01*
X164726760Y-128623000D01*
X164746760Y-128623000D01*
X164746760Y-128603000D01*
X165000760Y-128603000D01*
X165000760Y-128623000D01*
X165000760Y-128623000D01*
G37*
X165000760Y-128623000D02*
X165020760Y-128623000D01*
X165020760Y-128822400D01*
X164726760Y-128822400D01*
X164726760Y-128623000D01*
X164746760Y-128623000D01*
X164746760Y-128603000D01*
X165000760Y-128603000D01*
X165000760Y-128623000D01*
G36*
X165833000Y-123695703D02*
X165833000Y-123796066D01*
X165610221Y-123944921D01*
X165440055Y-124199594D01*
X165380300Y-124500000D01*
X165380300Y-125562810D01*
X164349250Y-125562810D01*
X164113933Y-125607088D01*
X164000045Y-125680373D01*
X163902640Y-125613819D01*
X163650750Y-125562810D01*
X162601730Y-125562810D01*
X162366413Y-125607088D01*
X162150289Y-125746160D01*
X162005299Y-125958360D01*
X161954290Y-126210250D01*
X161954290Y-127289750D01*
X161998568Y-127525067D01*
X162137640Y-127741191D01*
X162148578Y-127748664D01*
X162005299Y-127958360D01*
X161954290Y-128210250D01*
X161954290Y-128822400D01*
X160151558Y-128822400D01*
X159846579Y-128517421D01*
X159591907Y-128347255D01*
X159291500Y-128287500D01*
X157977505Y-128287500D01*
X157977500Y-128287499D01*
X157926569Y-128297630D01*
X157350743Y-127721804D01*
X157153040Y-127586719D01*
X156901878Y-127532235D01*
X156649307Y-127579759D01*
X156643661Y-127583503D01*
X155936079Y-126875921D01*
X155681407Y-126705755D01*
X155555000Y-126680611D01*
X155555000Y-125726065D01*
X157489224Y-125726065D01*
X157489224Y-125950571D01*
X157747367Y-126208714D01*
X157980756Y-126305387D01*
X158233375Y-126305388D01*
X158466764Y-126208715D01*
X158645392Y-126030086D01*
X158735684Y-125939795D01*
X158735684Y-125715289D01*
X158117842Y-125097447D01*
X157489224Y-125726065D01*
X155555000Y-125726065D01*
X155555000Y-125494158D01*
X156285109Y-124764048D01*
X156413573Y-124892512D01*
X156611276Y-125027597D01*
X156730297Y-125053416D01*
X156730297Y-125054928D01*
X156826970Y-125288317D01*
X157085113Y-125546460D01*
X157309619Y-125546460D01*
X157938237Y-124917842D01*
X158297447Y-124917842D01*
X158915289Y-125535684D01*
X159139795Y-125535684D01*
X159230086Y-125445392D01*
X159408715Y-125266764D01*
X159505388Y-125033375D01*
X159505387Y-124780756D01*
X159408714Y-124547367D01*
X159150571Y-124289224D01*
X158926065Y-124289224D01*
X158297447Y-124917842D01*
X157938237Y-124917842D01*
X157924095Y-124903700D01*
X158103700Y-124724095D01*
X158117842Y-124738237D01*
X158746460Y-124109619D01*
X158746460Y-123885113D01*
X158488317Y-123626970D01*
X158254928Y-123530297D01*
X158253851Y-123530297D01*
X158239514Y-123454100D01*
X165881058Y-123454100D01*
X165833000Y-123695703D01*
X165833000Y-123695703D01*
G37*
X165833000Y-123695703D02*
X165833000Y-123796066D01*
X165610221Y-123944921D01*
X165440055Y-124199594D01*
X165380300Y-124500000D01*
X165380300Y-125562810D01*
X164349250Y-125562810D01*
X164113933Y-125607088D01*
X164000045Y-125680373D01*
X163902640Y-125613819D01*
X163650750Y-125562810D01*
X162601730Y-125562810D01*
X162366413Y-125607088D01*
X162150289Y-125746160D01*
X162005299Y-125958360D01*
X161954290Y-126210250D01*
X161954290Y-127289750D01*
X161998568Y-127525067D01*
X162137640Y-127741191D01*
X162148578Y-127748664D01*
X162005299Y-127958360D01*
X161954290Y-128210250D01*
X161954290Y-128822400D01*
X160151558Y-128822400D01*
X159846579Y-128517421D01*
X159591907Y-128347255D01*
X159291500Y-128287500D01*
X157977505Y-128287500D01*
X157977500Y-128287499D01*
X157926569Y-128297630D01*
X157350743Y-127721804D01*
X157153040Y-127586719D01*
X156901878Y-127532235D01*
X156649307Y-127579759D01*
X156643661Y-127583503D01*
X155936079Y-126875921D01*
X155681407Y-126705755D01*
X155555000Y-126680611D01*
X155555000Y-125726065D01*
X157489224Y-125726065D01*
X157489224Y-125950571D01*
X157747367Y-126208714D01*
X157980756Y-126305387D01*
X158233375Y-126305388D01*
X158466764Y-126208715D01*
X158645392Y-126030086D01*
X158735684Y-125939795D01*
X158735684Y-125715289D01*
X158117842Y-125097447D01*
X157489224Y-125726065D01*
X155555000Y-125726065D01*
X155555000Y-125494158D01*
X156285109Y-124764048D01*
X156413573Y-124892512D01*
X156611276Y-125027597D01*
X156730297Y-125053416D01*
X156730297Y-125054928D01*
X156826970Y-125288317D01*
X157085113Y-125546460D01*
X157309619Y-125546460D01*
X157938237Y-124917842D01*
X158297447Y-124917842D01*
X158915289Y-125535684D01*
X159139795Y-125535684D01*
X159230086Y-125445392D01*
X159408715Y-125266764D01*
X159505388Y-125033375D01*
X159505387Y-124780756D01*
X159408714Y-124547367D01*
X159150571Y-124289224D01*
X158926065Y-124289224D01*
X158297447Y-124917842D01*
X157938237Y-124917842D01*
X157924095Y-124903700D01*
X158103700Y-124724095D01*
X158117842Y-124738237D01*
X158746460Y-124109619D01*
X158746460Y-123885113D01*
X158488317Y-123626970D01*
X158254928Y-123530297D01*
X158253851Y-123530297D01*
X158239514Y-123454100D01*
X165881058Y-123454100D01*
X165833000Y-123695703D01*
G36*
X149875554Y-122108582D02*
X150052331Y-122285359D01*
X150161205Y-122359750D01*
X150229107Y-122462135D01*
X150405884Y-122638912D01*
X150514759Y-122713303D01*
X150582661Y-122815689D01*
X150759438Y-122992466D01*
X150868312Y-123066857D01*
X150936214Y-123169242D01*
X151112991Y-123346019D01*
X151221865Y-123420410D01*
X151289767Y-123522795D01*
X151466544Y-123699572D01*
X151575419Y-123773963D01*
X151643321Y-123876349D01*
X151820098Y-124053126D01*
X151928972Y-124127517D01*
X151996874Y-124229902D01*
X152173651Y-124406679D01*
X152282526Y-124481070D01*
X152350428Y-124583456D01*
X152527205Y-124760233D01*
X152636079Y-124834624D01*
X152703981Y-124937009D01*
X152880758Y-125113786D01*
X152989632Y-125188177D01*
X153057534Y-125290562D01*
X153234311Y-125467339D01*
X153343186Y-125541730D01*
X153411088Y-125644116D01*
X153587865Y-125820893D01*
X153696739Y-125895284D01*
X153764641Y-125997669D01*
X153941418Y-126174446D01*
X153985000Y-126204224D01*
X153985000Y-126374277D01*
X153881016Y-126353593D01*
X153743358Y-126326200D01*
X153743332Y-126326205D01*
X153743300Y-126326199D01*
X153586393Y-126357411D01*
X153442947Y-126385933D01*
X153442923Y-126385949D01*
X153442894Y-126385955D01*
X153316508Y-126470403D01*
X153310824Y-126474200D01*
X149851400Y-126474200D01*
X149550993Y-126533955D01*
X149296321Y-126704121D01*
X147878096Y-128122346D01*
X146380685Y-126625000D01*
X147749600Y-126625000D01*
X148050007Y-126565245D01*
X148304679Y-126395079D01*
X148610492Y-126089266D01*
X148740371Y-126089379D01*
X149120915Y-125932142D01*
X149412319Y-125641246D01*
X149570220Y-125260977D01*
X149570579Y-124849229D01*
X149413342Y-124468685D01*
X149122446Y-124177281D01*
X148742177Y-124019380D01*
X148330429Y-124019021D01*
X147949885Y-124176258D01*
X147658481Y-124467154D01*
X147640612Y-124510187D01*
X147595201Y-124464696D01*
X147602500Y-124428000D01*
X147602494Y-124427971D01*
X147602500Y-124427942D01*
X147572508Y-124277222D01*
X147549574Y-124161924D01*
X147577517Y-124121028D01*
X147679902Y-124053126D01*
X147856679Y-123876349D01*
X147931070Y-123767474D01*
X148033456Y-123699572D01*
X148210233Y-123522795D01*
X148284624Y-123413921D01*
X148387009Y-123346019D01*
X148563786Y-123169242D01*
X148638177Y-123060368D01*
X148740562Y-122992466D01*
X148917339Y-122815689D01*
X148991730Y-122706814D01*
X149094116Y-122638912D01*
X149270893Y-122462135D01*
X149345284Y-122353261D01*
X149447669Y-122285359D01*
X149624446Y-122108582D01*
X149751872Y-121922088D01*
X149875554Y-122108582D01*
X149875554Y-122108582D01*
G37*
X149875554Y-122108582D02*
X150052331Y-122285359D01*
X150161205Y-122359750D01*
X150229107Y-122462135D01*
X150405884Y-122638912D01*
X150514759Y-122713303D01*
X150582661Y-122815689D01*
X150759438Y-122992466D01*
X150868312Y-123066857D01*
X150936214Y-123169242D01*
X151112991Y-123346019D01*
X151221865Y-123420410D01*
X151289767Y-123522795D01*
X151466544Y-123699572D01*
X151575419Y-123773963D01*
X151643321Y-123876349D01*
X151820098Y-124053126D01*
X151928972Y-124127517D01*
X151996874Y-124229902D01*
X152173651Y-124406679D01*
X152282526Y-124481070D01*
X152350428Y-124583456D01*
X152527205Y-124760233D01*
X152636079Y-124834624D01*
X152703981Y-124937009D01*
X152880758Y-125113786D01*
X152989632Y-125188177D01*
X153057534Y-125290562D01*
X153234311Y-125467339D01*
X153343186Y-125541730D01*
X153411088Y-125644116D01*
X153587865Y-125820893D01*
X153696739Y-125895284D01*
X153764641Y-125997669D01*
X153941418Y-126174446D01*
X153985000Y-126204224D01*
X153985000Y-126374277D01*
X153881016Y-126353593D01*
X153743358Y-126326200D01*
X153743332Y-126326205D01*
X153743300Y-126326199D01*
X153586393Y-126357411D01*
X153442947Y-126385933D01*
X153442923Y-126385949D01*
X153442894Y-126385955D01*
X153316508Y-126470403D01*
X153310824Y-126474200D01*
X149851400Y-126474200D01*
X149550993Y-126533955D01*
X149296321Y-126704121D01*
X147878096Y-128122346D01*
X146380685Y-126625000D01*
X147749600Y-126625000D01*
X148050007Y-126565245D01*
X148304679Y-126395079D01*
X148610492Y-126089266D01*
X148740371Y-126089379D01*
X149120915Y-125932142D01*
X149412319Y-125641246D01*
X149570220Y-125260977D01*
X149570579Y-124849229D01*
X149413342Y-124468685D01*
X149122446Y-124177281D01*
X148742177Y-124019380D01*
X148330429Y-124019021D01*
X147949885Y-124176258D01*
X147658481Y-124467154D01*
X147640612Y-124510187D01*
X147595201Y-124464696D01*
X147602500Y-124428000D01*
X147602494Y-124427971D01*
X147602500Y-124427942D01*
X147572508Y-124277222D01*
X147549574Y-124161924D01*
X147577517Y-124121028D01*
X147679902Y-124053126D01*
X147856679Y-123876349D01*
X147931070Y-123767474D01*
X148033456Y-123699572D01*
X148210233Y-123522795D01*
X148284624Y-123413921D01*
X148387009Y-123346019D01*
X148563786Y-123169242D01*
X148638177Y-123060368D01*
X148740562Y-122992466D01*
X148917339Y-122815689D01*
X148991730Y-122706814D01*
X149094116Y-122638912D01*
X149270893Y-122462135D01*
X149345284Y-122353261D01*
X149447669Y-122285359D01*
X149624446Y-122108582D01*
X149751872Y-121922088D01*
X149875554Y-122108582D01*
G36*
X124177000Y-126873000D02*
X124197000Y-126873000D01*
X124197000Y-127127000D01*
X124177000Y-127127000D01*
X124177000Y-127147000D01*
X123923000Y-127147000D01*
X123923000Y-127127000D01*
X123903000Y-127127000D01*
X123903000Y-126873000D01*
X123923000Y-126873000D01*
X123923000Y-126853000D01*
X124177000Y-126853000D01*
X124177000Y-126873000D01*
X124177000Y-126873000D01*
G37*
X124177000Y-126873000D02*
X124197000Y-126873000D01*
X124197000Y-127127000D01*
X124177000Y-127127000D01*
X124177000Y-127147000D01*
X123923000Y-127147000D01*
X123923000Y-127127000D01*
X123903000Y-127127000D01*
X123903000Y-126873000D01*
X123923000Y-126873000D01*
X123923000Y-126853000D01*
X124177000Y-126853000D01*
X124177000Y-126873000D01*
G36*
X138666612Y-125446470D02*
X138599900Y-125433200D01*
X137511983Y-125433200D01*
X137651260Y-125177277D01*
X137666220Y-125103070D01*
X137543720Y-124887000D01*
X135677000Y-124887000D01*
X135677000Y-124907000D01*
X135423000Y-124907000D01*
X135423000Y-124887000D01*
X135403000Y-124887000D01*
X135403000Y-124633000D01*
X135423000Y-124633000D01*
X135423000Y-124613000D01*
X135677000Y-124613000D01*
X135677000Y-124633000D01*
X137543720Y-124633000D01*
X137655674Y-124435532D01*
X138666612Y-125446470D01*
X138666612Y-125446470D01*
G37*
X138666612Y-125446470D02*
X138599900Y-125433200D01*
X137511983Y-125433200D01*
X137651260Y-125177277D01*
X137666220Y-125103070D01*
X137543720Y-124887000D01*
X135677000Y-124887000D01*
X135677000Y-124907000D01*
X135423000Y-124907000D01*
X135423000Y-124887000D01*
X135403000Y-124887000D01*
X135403000Y-124633000D01*
X135423000Y-124633000D01*
X135423000Y-124613000D01*
X135677000Y-124613000D01*
X135677000Y-124633000D01*
X137543720Y-124633000D01*
X137655674Y-124435532D01*
X138666612Y-125446470D01*
G36*
X131150760Y-121573000D02*
X131170760Y-121573000D01*
X131170760Y-121827000D01*
X131150760Y-121827000D01*
X131150760Y-122716000D01*
X131200418Y-122765658D01*
X131113600Y-123059800D01*
X131113600Y-123821800D01*
X132383600Y-123821800D01*
X132383600Y-123801800D01*
X132637600Y-123801800D01*
X132637600Y-123821800D01*
X132657600Y-123821800D01*
X132657600Y-124075800D01*
X132637600Y-124075800D01*
X132637600Y-124095800D01*
X132383600Y-124095800D01*
X132383600Y-124075800D01*
X131113600Y-124075800D01*
X131113600Y-124837800D01*
X131164456Y-125010100D01*
X130420257Y-125010100D01*
X130061200Y-124651042D01*
X130061200Y-122826739D01*
X130138484Y-122777009D01*
X130139552Y-122778077D01*
X130372941Y-122874750D01*
X130738010Y-122874750D01*
X130896760Y-122716000D01*
X130896760Y-121827000D01*
X130876760Y-121827000D01*
X130876760Y-121573000D01*
X130896760Y-121573000D01*
X130896760Y-121553000D01*
X131150760Y-121553000D01*
X131150760Y-121573000D01*
X131150760Y-121573000D01*
G37*
X131150760Y-121573000D02*
X131170760Y-121573000D01*
X131170760Y-121827000D01*
X131150760Y-121827000D01*
X131150760Y-122716000D01*
X131200418Y-122765658D01*
X131113600Y-123059800D01*
X131113600Y-123821800D01*
X132383600Y-123821800D01*
X132383600Y-123801800D01*
X132637600Y-123801800D01*
X132637600Y-123821800D01*
X132657600Y-123821800D01*
X132657600Y-124075800D01*
X132637600Y-124075800D01*
X132637600Y-124095800D01*
X132383600Y-124095800D01*
X132383600Y-124075800D01*
X131113600Y-124075800D01*
X131113600Y-124837800D01*
X131164456Y-125010100D01*
X130420257Y-125010100D01*
X130061200Y-124651042D01*
X130061200Y-122826739D01*
X130138484Y-122777009D01*
X130139552Y-122778077D01*
X130372941Y-122874750D01*
X130738010Y-122874750D01*
X130896760Y-122716000D01*
X130896760Y-121827000D01*
X130876760Y-121827000D01*
X130876760Y-121573000D01*
X130896760Y-121573000D01*
X130896760Y-121553000D01*
X131150760Y-121553000D01*
X131150760Y-121573000D01*
G36*
X141480297Y-123295072D02*
X141480297Y-123296149D01*
X141377755Y-123315443D01*
X141163573Y-123457488D01*
X140421804Y-124199257D01*
X140286719Y-124396960D01*
X140232235Y-124648122D01*
X140265530Y-124825072D01*
X138602258Y-123161800D01*
X141535500Y-123161800D01*
X141480297Y-123295072D01*
X141480297Y-123295072D01*
G37*
X141480297Y-123295072D02*
X141480297Y-123296149D01*
X141377755Y-123315443D01*
X141163573Y-123457488D01*
X140421804Y-124199257D01*
X140286719Y-124396960D01*
X140232235Y-124648122D01*
X140265530Y-124825072D01*
X138602258Y-123161800D01*
X141535500Y-123161800D01*
X141480297Y-123295072D01*
G36*
X143061590Y-123418016D02*
X143047447Y-123432158D01*
X143061590Y-123446301D01*
X142881985Y-123625906D01*
X142867842Y-123611763D01*
X142853700Y-123625906D01*
X142674095Y-123446301D01*
X142688237Y-123432158D01*
X142674095Y-123418016D01*
X142853700Y-123238411D01*
X142867842Y-123252553D01*
X142881985Y-123238411D01*
X143061590Y-123418016D01*
X143061590Y-123418016D01*
G37*
X143061590Y-123418016D02*
X143047447Y-123432158D01*
X143061590Y-123446301D01*
X142881985Y-123625906D01*
X142867842Y-123611763D01*
X142853700Y-123625906D01*
X142674095Y-123446301D01*
X142688237Y-123432158D01*
X142674095Y-123418016D01*
X142853700Y-123238411D01*
X142867842Y-123252553D01*
X142881985Y-123238411D01*
X143061590Y-123418016D01*
G36*
X123190000Y-118751700D02*
X123691542Y-118751700D01*
X124660321Y-119720479D01*
X124914994Y-119890645D01*
X125215400Y-119950400D01*
X130010042Y-119950400D01*
X130584892Y-120525250D01*
X130372941Y-120525250D01*
X130139552Y-120621923D01*
X130138791Y-120622684D01*
X130052640Y-120563819D01*
X129800750Y-120512810D01*
X128751730Y-120512810D01*
X128516413Y-120557088D01*
X128300289Y-120696160D01*
X128155299Y-120908360D01*
X128104290Y-121160250D01*
X128104290Y-121770356D01*
X127989400Y-121747503D01*
X127454791Y-121853843D01*
X127263336Y-121981770D01*
X127105079Y-121744921D01*
X126725079Y-121364921D01*
X126470407Y-121194755D01*
X126170000Y-121135000D01*
X125977651Y-121135000D01*
X125842125Y-120932172D01*
X125388906Y-120629340D01*
X124854297Y-120523000D01*
X123245703Y-120523000D01*
X122960000Y-120579830D01*
X122960000Y-118705950D01*
X123190000Y-118751700D01*
X123190000Y-118751700D01*
G37*
X123190000Y-118751700D02*
X123691542Y-118751700D01*
X124660321Y-119720479D01*
X124914994Y-119890645D01*
X125215400Y-119950400D01*
X130010042Y-119950400D01*
X130584892Y-120525250D01*
X130372941Y-120525250D01*
X130139552Y-120621923D01*
X130138791Y-120622684D01*
X130052640Y-120563819D01*
X129800750Y-120512810D01*
X128751730Y-120512810D01*
X128516413Y-120557088D01*
X128300289Y-120696160D01*
X128155299Y-120908360D01*
X128104290Y-121160250D01*
X128104290Y-121770356D01*
X127989400Y-121747503D01*
X127454791Y-121853843D01*
X127263336Y-121981770D01*
X127105079Y-121744921D01*
X126725079Y-121364921D01*
X126470407Y-121194755D01*
X126170000Y-121135000D01*
X125977651Y-121135000D01*
X125842125Y-120932172D01*
X125388906Y-120629340D01*
X124854297Y-120523000D01*
X123245703Y-120523000D01*
X122960000Y-120579830D01*
X122960000Y-118705950D01*
X123190000Y-118751700D01*
M02*
