M48
;DRILL file {KiCad 4.0.1-stable} date 2016/11/05 8:31:50
;FORMAT={-:-/ absolute / inch / decimal}
FMAT,2
INCH,TZ
T1C0.016
T2C0.040
%
G90
G05
M72
T1
X4.8976Y-5.2933
X4.998Y-5.3425
X5.002Y-5.0079
X5.0256Y-4.7323
X5.0846Y-5.0079
X5.1949Y-5.0157
X5.2008Y-5.3445
X5.2274Y-5.2178
X5.3031Y-5.1949
X5.3051Y-5.3327
X5.3996Y-5.3268
X5.4272Y-5.0728
X5.498Y-5.3366
X5.5098Y-4.8661
X5.6516Y-5.1142
X5.666Y-4.7775
X5.687Y-5.2717
X5.7736Y-5.3228
X5.7796Y-4.9266
X5.8209Y-5.0079
X5.8479Y-4.9234
X5.8613Y-5.2177
X5.8839Y-5.3228
X5.9178Y-5.2119
X5.935Y-4.8819
X5.937Y-5.0538
X5.9665Y-5.3228
X5.9974Y-5.0379
X6.0413Y-4.9646
X6.0455Y-5.1458
X6.1004Y-5.3425
X6.1437Y-4.9646
X6.1949Y-5.2795
X6.2815Y-5.1811
X6.3169Y-5.0394
X6.3681Y-4.9567
X6.374Y-5.2913
X6.3839Y-4.8681
X6.5807Y-5.0354
X6.7008Y-5.2835
X6.7106Y-4.7815
T2
X4.85Y-4.5724
X4.85Y-5.4724
X4.8839Y-4.8
X4.8839Y-4.9
X4.8839Y-5.
X4.8839Y-5.1
X4.8839Y-5.2
X4.95Y-4.5724
X4.95Y-5.4724
X5.039Y-4.8799
X5.039Y-5.1359
X5.05Y-4.5724
X5.05Y-5.4724
X5.15Y-4.5724
X5.15Y-5.4724
X5.217Y-4.8799
X5.217Y-5.1359
X5.25Y-4.5724
X5.25Y-5.4724
X5.3366Y-4.9118
X5.3366Y-5.0118
X5.3366Y-5.1118
X5.35Y-4.5724
X5.35Y-5.4724
X5.45Y-4.5724
X5.45Y-5.4724
X5.5297Y-5.1183
X5.55Y-4.5724
X5.55Y-5.4724
X5.5865Y-5.1751
X5.6433Y-5.2318
X5.65Y-4.5724
X5.65Y-5.4724
X5.75Y-4.5724
X5.75Y-5.4724
X5.85Y-4.5724
X5.85Y-5.4724
X5.95Y-4.5724
X5.95Y-5.4724
X6.05Y-4.5724
X6.05Y-5.4724
X6.15Y-4.5724
X6.15Y-5.4724
X6.25Y-4.5724
X6.25Y-5.4724
X6.35Y-4.5724
X6.35Y-5.4724
X6.45Y-4.5724
X6.45Y-5.4724
X6.55Y-4.5724
X6.55Y-5.4724
X6.5839Y-4.9016
X6.5839Y-5.1476
X6.65Y-4.5724
X6.65Y-5.4724
X6.6839Y-4.9016
X6.6839Y-5.1476
X6.75Y-4.5724
X6.75Y-5.4724
T0
M30
