G04 #@! TF.FileFunction,Legend,Top*
%FSLAX46Y46*%
G04 Gerber Fmt 4.6, Leading zero omitted, Abs format (unit mm)*
G04 Created by KiCad (PCBNEW 4.0.1-stable) date 2016/11/05 8:31:47*
%MOMM*%
G01*
G04 APERTURE LIST*
%ADD10C,0.100000*%
%ADD11C,0.200000*%
%ADD12C,0.300000*%
%ADD13C,0.150000*%
%ADD14C,0.066040*%
%ADD15C,0.152400*%
%ADD16C,0.127000*%
%ADD17C,0.101600*%
%ADD18C,0.050800*%
%ADD19C,0.076200*%
%ADD20C,0.025400*%
G04 APERTURE END LIST*
D10*
D11*
X157921429Y-122078571D02*
X157864286Y-122135714D01*
X157692857Y-122192857D01*
X157578571Y-122192857D01*
X157407143Y-122135714D01*
X157292857Y-122021429D01*
X157235714Y-121907143D01*
X157178571Y-121678571D01*
X157178571Y-121507143D01*
X157235714Y-121278571D01*
X157292857Y-121164286D01*
X157407143Y-121050000D01*
X157578571Y-120992857D01*
X157692857Y-120992857D01*
X157864286Y-121050000D01*
X157921429Y-121107143D01*
X158435714Y-122192857D02*
X158435714Y-121392857D01*
X158435714Y-121621429D02*
X158492857Y-121507143D01*
X158550000Y-121450000D01*
X158664286Y-121392857D01*
X158778571Y-121392857D01*
X159635714Y-122135714D02*
X159521428Y-122192857D01*
X159292857Y-122192857D01*
X159178571Y-122135714D01*
X159121428Y-122021429D01*
X159121428Y-121564286D01*
X159178571Y-121450000D01*
X159292857Y-121392857D01*
X159521428Y-121392857D01*
X159635714Y-121450000D01*
X159692857Y-121564286D01*
X159692857Y-121678571D01*
X159121428Y-121792857D01*
X160149999Y-122135714D02*
X160264285Y-122192857D01*
X160492857Y-122192857D01*
X160607142Y-122135714D01*
X160664285Y-122021429D01*
X160664285Y-121964286D01*
X160607142Y-121850000D01*
X160492857Y-121792857D01*
X160321428Y-121792857D01*
X160207142Y-121735714D01*
X160149999Y-121621429D01*
X160149999Y-121564286D01*
X160207142Y-121450000D01*
X160321428Y-121392857D01*
X160492857Y-121392857D01*
X160607142Y-121450000D01*
X161692857Y-122135714D02*
X161578571Y-122192857D01*
X161350000Y-122192857D01*
X161235714Y-122135714D01*
X161178571Y-122078571D01*
X161121428Y-121964286D01*
X161121428Y-121621429D01*
X161178571Y-121507143D01*
X161235714Y-121450000D01*
X161350000Y-121392857D01*
X161578571Y-121392857D01*
X161692857Y-121450000D01*
X162664285Y-122135714D02*
X162549999Y-122192857D01*
X162321428Y-122192857D01*
X162207142Y-122135714D01*
X162149999Y-122021429D01*
X162149999Y-121564286D01*
X162207142Y-121450000D01*
X162321428Y-121392857D01*
X162549999Y-121392857D01*
X162664285Y-121450000D01*
X162721428Y-121564286D01*
X162721428Y-121678571D01*
X162149999Y-121792857D01*
X163235713Y-121392857D02*
X163235713Y-122192857D01*
X163235713Y-121507143D02*
X163292856Y-121450000D01*
X163407142Y-121392857D01*
X163578570Y-121392857D01*
X163692856Y-121450000D01*
X163749999Y-121564286D01*
X163749999Y-122192857D01*
X164149999Y-121392857D02*
X164607142Y-121392857D01*
X164321427Y-120992857D02*
X164321427Y-122021429D01*
X164378570Y-122135714D01*
X164492856Y-122192857D01*
X164607142Y-122192857D01*
X157607143Y-132702381D02*
X157035714Y-132702381D01*
X157035714Y-131702381D01*
X158807143Y-132797619D02*
X158692858Y-132750000D01*
X158578572Y-132654762D01*
X158407143Y-132511905D01*
X158292858Y-132464286D01*
X158178572Y-132464286D01*
X158235715Y-132702381D02*
X158121429Y-132654762D01*
X158007143Y-132559524D01*
X157950000Y-132369048D01*
X157950000Y-132035714D01*
X158007143Y-131845238D01*
X158121429Y-131750000D01*
X158235715Y-131702381D01*
X158464286Y-131702381D01*
X158578572Y-131750000D01*
X158692858Y-131845238D01*
X158750000Y-132035714D01*
X158750000Y-132369048D01*
X158692858Y-132559524D01*
X158578572Y-132654762D01*
X158464286Y-132702381D01*
X158235715Y-132702381D01*
X159664286Y-132178571D02*
X159264286Y-132178571D01*
X159264286Y-132702381D02*
X159264286Y-131702381D01*
X159835715Y-131702381D01*
X160292857Y-132702381D02*
X160292857Y-131702381D01*
X160750000Y-131702381D01*
X160864286Y-131750000D01*
X160921429Y-131797619D01*
X160978572Y-131892857D01*
X160978572Y-132035714D01*
X160921429Y-132130952D01*
X160864286Y-132178571D01*
X160750000Y-132226190D01*
X160292857Y-132226190D01*
X162007143Y-132035714D02*
X162007143Y-132702381D01*
X161721429Y-131654762D02*
X161435714Y-132369048D01*
X162178572Y-132369048D01*
X162807143Y-132130952D02*
X162692857Y-132083333D01*
X162635714Y-132035714D01*
X162578571Y-131940476D01*
X162578571Y-131892857D01*
X162635714Y-131797619D01*
X162692857Y-131750000D01*
X162807143Y-131702381D01*
X163035714Y-131702381D01*
X163150000Y-131750000D01*
X163207143Y-131797619D01*
X163264286Y-131892857D01*
X163264286Y-131940476D01*
X163207143Y-132035714D01*
X163150000Y-132083333D01*
X163035714Y-132130952D01*
X162807143Y-132130952D01*
X162692857Y-132178571D01*
X162635714Y-132226190D01*
X162578571Y-132321429D01*
X162578571Y-132511905D01*
X162635714Y-132607143D01*
X162692857Y-132654762D01*
X162807143Y-132702381D01*
X163035714Y-132702381D01*
X163150000Y-132654762D01*
X163207143Y-132607143D01*
X163264286Y-132511905D01*
X163264286Y-132321429D01*
X163207143Y-132226190D01*
X163150000Y-132178571D01*
X163035714Y-132130952D01*
X156978571Y-134254762D02*
X157150000Y-134302381D01*
X157435714Y-134302381D01*
X157550000Y-134254762D01*
X157607143Y-134207143D01*
X157664286Y-134111905D01*
X157664286Y-134016667D01*
X157607143Y-133921429D01*
X157550000Y-133873810D01*
X157435714Y-133826190D01*
X157207143Y-133778571D01*
X157092857Y-133730952D01*
X157035714Y-133683333D01*
X156978571Y-133588095D01*
X156978571Y-133492857D01*
X157035714Y-133397619D01*
X157092857Y-133350000D01*
X157207143Y-133302381D01*
X157492857Y-133302381D01*
X157664286Y-133350000D01*
X158007143Y-133302381D02*
X158692857Y-133302381D01*
X158350000Y-134302381D02*
X158350000Y-133302381D01*
X159092857Y-134302381D02*
X159092857Y-133302381D01*
X159492857Y-134016667D01*
X159892857Y-133302381D01*
X159892857Y-134302381D01*
X160350001Y-133302381D02*
X161092858Y-133302381D01*
X160692858Y-133683333D01*
X160864286Y-133683333D01*
X160978572Y-133730952D01*
X161035715Y-133778571D01*
X161092858Y-133873810D01*
X161092858Y-134111905D01*
X161035715Y-134207143D01*
X160978572Y-134254762D01*
X160864286Y-134302381D01*
X160521429Y-134302381D01*
X160407143Y-134254762D01*
X160350001Y-134207143D01*
X161550000Y-133397619D02*
X161607143Y-133350000D01*
X161721429Y-133302381D01*
X162007143Y-133302381D01*
X162121429Y-133350000D01*
X162178572Y-133397619D01*
X162235715Y-133492857D01*
X162235715Y-133588095D01*
X162178572Y-133730952D01*
X161492858Y-134302381D01*
X162235715Y-134302381D01*
X163150000Y-133778571D02*
X162750000Y-133778571D01*
X162750000Y-134302381D02*
X162750000Y-133302381D01*
X163321429Y-133302381D01*
X163664286Y-133302381D02*
X164407143Y-133302381D01*
X164007143Y-133683333D01*
X164178571Y-133683333D01*
X164292857Y-133730952D01*
X164350000Y-133778571D01*
X164407143Y-133873810D01*
X164407143Y-134111905D01*
X164350000Y-134207143D01*
X164292857Y-134254762D01*
X164178571Y-134302381D01*
X163835714Y-134302381D01*
X163721428Y-134254762D01*
X163664286Y-134207143D01*
X164807143Y-133302381D02*
X165607143Y-133302381D01*
X165092857Y-134302381D01*
X165950000Y-133302381D02*
X166692857Y-133302381D01*
X166292857Y-133683333D01*
X166464285Y-133683333D01*
X166578571Y-133730952D01*
X166635714Y-133778571D01*
X166692857Y-133873810D01*
X166692857Y-134111905D01*
X166635714Y-134207143D01*
X166578571Y-134254762D01*
X166464285Y-134302381D01*
X166121428Y-134302381D01*
X166007142Y-134254762D01*
X165950000Y-134207143D01*
X168007143Y-133635714D02*
X168292857Y-134302381D01*
X168578571Y-133635714D01*
X169664286Y-134302381D02*
X168978571Y-134302381D01*
X169321429Y-134302381D02*
X169321429Y-133302381D01*
X169207143Y-133445238D01*
X169092857Y-133540476D01*
X168978571Y-133588095D01*
X170178571Y-134207143D02*
X170235714Y-134254762D01*
X170178571Y-134302381D01*
X170121428Y-134254762D01*
X170178571Y-134207143D01*
X170178571Y-134302381D01*
X171378572Y-134302381D02*
X170692857Y-134302381D01*
X171035715Y-134302381D02*
X171035715Y-133302381D01*
X170921429Y-133445238D01*
X170807143Y-133540476D01*
X170692857Y-133588095D01*
X123178571Y-119204761D02*
X123226190Y-119061904D01*
X123273810Y-119014285D01*
X123369048Y-118966666D01*
X123511905Y-118966666D01*
X123607143Y-119014285D01*
X123654762Y-119061904D01*
X123702381Y-119157142D01*
X123702381Y-119538095D01*
X122702381Y-119538095D01*
X122702381Y-119204761D01*
X122750000Y-119109523D01*
X122797619Y-119061904D01*
X122892857Y-119014285D01*
X122988095Y-119014285D01*
X123083333Y-119061904D01*
X123130952Y-119109523D01*
X123178571Y-119204761D01*
X123178571Y-119538095D01*
X123702381Y-118490476D02*
X123702381Y-118300000D01*
X123654762Y-118204761D01*
X123607143Y-118157142D01*
X123464286Y-118061904D01*
X123273810Y-118014285D01*
X122892857Y-118014285D01*
X122797619Y-118061904D01*
X122750000Y-118109523D01*
X122702381Y-118204761D01*
X122702381Y-118395238D01*
X122750000Y-118490476D01*
X122797619Y-118538095D01*
X122892857Y-118585714D01*
X123130952Y-118585714D01*
X123226190Y-118538095D01*
X123273810Y-118490476D01*
X123321429Y-118395238D01*
X123321429Y-118204761D01*
X123273810Y-118109523D01*
X123226190Y-118061904D01*
X123130952Y-118014285D01*
X125678571Y-119204761D02*
X125726190Y-119061904D01*
X125773810Y-119014285D01*
X125869048Y-118966666D01*
X126011905Y-118966666D01*
X126107143Y-119014285D01*
X126154762Y-119061904D01*
X126202381Y-119157142D01*
X126202381Y-119538095D01*
X125202381Y-119538095D01*
X125202381Y-119204761D01*
X125250000Y-119109523D01*
X125297619Y-119061904D01*
X125392857Y-119014285D01*
X125488095Y-119014285D01*
X125583333Y-119061904D01*
X125630952Y-119109523D01*
X125678571Y-119204761D01*
X125678571Y-119538095D01*
X125630952Y-118395238D02*
X125583333Y-118490476D01*
X125535714Y-118538095D01*
X125440476Y-118585714D01*
X125392857Y-118585714D01*
X125297619Y-118538095D01*
X125250000Y-118490476D01*
X125202381Y-118395238D01*
X125202381Y-118204761D01*
X125250000Y-118109523D01*
X125297619Y-118061904D01*
X125392857Y-118014285D01*
X125440476Y-118014285D01*
X125535714Y-118061904D01*
X125583333Y-118109523D01*
X125630952Y-118204761D01*
X125630952Y-118395238D01*
X125678571Y-118490476D01*
X125726190Y-118538095D01*
X125821429Y-118585714D01*
X126011905Y-118585714D01*
X126107143Y-118538095D01*
X126154762Y-118490476D01*
X126202381Y-118395238D01*
X126202381Y-118204761D01*
X126154762Y-118109523D01*
X126107143Y-118061904D01*
X126011905Y-118014285D01*
X125821429Y-118014285D01*
X125726190Y-118061904D01*
X125678571Y-118109523D01*
X125630952Y-118204761D01*
X128428571Y-119204761D02*
X128476190Y-119061904D01*
X128523810Y-119014285D01*
X128619048Y-118966666D01*
X128761905Y-118966666D01*
X128857143Y-119014285D01*
X128904762Y-119061904D01*
X128952381Y-119157142D01*
X128952381Y-119538095D01*
X127952381Y-119538095D01*
X127952381Y-119204761D01*
X128000000Y-119109523D01*
X128047619Y-119061904D01*
X128142857Y-119014285D01*
X128238095Y-119014285D01*
X128333333Y-119061904D01*
X128380952Y-119109523D01*
X128428571Y-119204761D01*
X128428571Y-119538095D01*
X127952381Y-118633333D02*
X127952381Y-117966666D01*
X128952381Y-118395238D01*
X130678571Y-119204761D02*
X130726190Y-119061904D01*
X130773810Y-119014285D01*
X130869048Y-118966666D01*
X131011905Y-118966666D01*
X131107143Y-119014285D01*
X131154762Y-119061904D01*
X131202381Y-119157142D01*
X131202381Y-119538095D01*
X130202381Y-119538095D01*
X130202381Y-119204761D01*
X130250000Y-119109523D01*
X130297619Y-119061904D01*
X130392857Y-119014285D01*
X130488095Y-119014285D01*
X130583333Y-119061904D01*
X130630952Y-119109523D01*
X130678571Y-119204761D01*
X130678571Y-119538095D01*
X130202381Y-118109523D02*
X130202381Y-118300000D01*
X130250000Y-118395238D01*
X130297619Y-118442857D01*
X130440476Y-118538095D01*
X130630952Y-118585714D01*
X131011905Y-118585714D01*
X131107143Y-118538095D01*
X131154762Y-118490476D01*
X131202381Y-118395238D01*
X131202381Y-118204761D01*
X131154762Y-118109523D01*
X131107143Y-118061904D01*
X131011905Y-118014285D01*
X130773810Y-118014285D01*
X130678571Y-118061904D01*
X130630952Y-118109523D01*
X130583333Y-118204761D01*
X130583333Y-118395238D01*
X130630952Y-118490476D01*
X130678571Y-118538095D01*
X130773810Y-118585714D01*
X133428571Y-119204761D02*
X133476190Y-119061904D01*
X133523810Y-119014285D01*
X133619048Y-118966666D01*
X133761905Y-118966666D01*
X133857143Y-119014285D01*
X133904762Y-119061904D01*
X133952381Y-119157142D01*
X133952381Y-119538095D01*
X132952381Y-119538095D01*
X132952381Y-119204761D01*
X133000000Y-119109523D01*
X133047619Y-119061904D01*
X133142857Y-119014285D01*
X133238095Y-119014285D01*
X133333333Y-119061904D01*
X133380952Y-119109523D01*
X133428571Y-119204761D01*
X133428571Y-119538095D01*
X132952381Y-118061904D02*
X132952381Y-118538095D01*
X133428571Y-118585714D01*
X133380952Y-118538095D01*
X133333333Y-118442857D01*
X133333333Y-118204761D01*
X133380952Y-118109523D01*
X133428571Y-118061904D01*
X133523810Y-118014285D01*
X133761905Y-118014285D01*
X133857143Y-118061904D01*
X133904762Y-118109523D01*
X133952381Y-118204761D01*
X133952381Y-118442857D01*
X133904762Y-118538095D01*
X133857143Y-118585714D01*
X135928571Y-119204761D02*
X135976190Y-119061904D01*
X136023810Y-119014285D01*
X136119048Y-118966666D01*
X136261905Y-118966666D01*
X136357143Y-119014285D01*
X136404762Y-119061904D01*
X136452381Y-119157142D01*
X136452381Y-119538095D01*
X135452381Y-119538095D01*
X135452381Y-119204761D01*
X135500000Y-119109523D01*
X135547619Y-119061904D01*
X135642857Y-119014285D01*
X135738095Y-119014285D01*
X135833333Y-119061904D01*
X135880952Y-119109523D01*
X135928571Y-119204761D01*
X135928571Y-119538095D01*
X135785714Y-118109523D02*
X136452381Y-118109523D01*
X135404762Y-118347619D02*
X136119048Y-118585714D01*
X136119048Y-117966666D01*
X138428571Y-119204761D02*
X138476190Y-119061904D01*
X138523810Y-119014285D01*
X138619048Y-118966666D01*
X138761905Y-118966666D01*
X138857143Y-119014285D01*
X138904762Y-119061904D01*
X138952381Y-119157142D01*
X138952381Y-119538095D01*
X137952381Y-119538095D01*
X137952381Y-119204761D01*
X138000000Y-119109523D01*
X138047619Y-119061904D01*
X138142857Y-119014285D01*
X138238095Y-119014285D01*
X138333333Y-119061904D01*
X138380952Y-119109523D01*
X138428571Y-119204761D01*
X138428571Y-119538095D01*
X137952381Y-118633333D02*
X137952381Y-118014285D01*
X138333333Y-118347619D01*
X138333333Y-118204761D01*
X138380952Y-118109523D01*
X138428571Y-118061904D01*
X138523810Y-118014285D01*
X138761905Y-118014285D01*
X138857143Y-118061904D01*
X138904762Y-118109523D01*
X138952381Y-118204761D01*
X138952381Y-118490476D01*
X138904762Y-118585714D01*
X138857143Y-118633333D01*
X141166667Y-120490476D02*
X141166667Y-120014285D01*
X141452381Y-120585714D02*
X140452381Y-120252381D01*
X141452381Y-119919047D01*
X141452381Y-119061904D02*
X141452381Y-119633333D01*
X141452381Y-119347619D02*
X140452381Y-119347619D01*
X140595238Y-119442857D01*
X140690476Y-119538095D01*
X140738095Y-119633333D01*
X140452381Y-118157142D02*
X140452381Y-118633333D01*
X140928571Y-118680952D01*
X140880952Y-118633333D01*
X140833333Y-118538095D01*
X140833333Y-118299999D01*
X140880952Y-118204761D01*
X140928571Y-118157142D01*
X141023810Y-118109523D01*
X141261905Y-118109523D01*
X141357143Y-118157142D01*
X141404762Y-118204761D01*
X141452381Y-118299999D01*
X141452381Y-118538095D01*
X141404762Y-118633333D01*
X141357143Y-118680952D01*
X143666667Y-120490476D02*
X143666667Y-120014285D01*
X143952381Y-120585714D02*
X142952381Y-120252381D01*
X143952381Y-119919047D01*
X143952381Y-119061904D02*
X143952381Y-119633333D01*
X143952381Y-119347619D02*
X142952381Y-119347619D01*
X143095238Y-119442857D01*
X143190476Y-119538095D01*
X143238095Y-119633333D01*
X143285714Y-118204761D02*
X143952381Y-118204761D01*
X142904762Y-118442857D02*
X143619048Y-118680952D01*
X143619048Y-118061904D01*
X146178571Y-119133333D02*
X146178571Y-119466667D01*
X146702381Y-119466667D02*
X145702381Y-119466667D01*
X145702381Y-118990476D01*
X145702381Y-118704762D02*
X145702381Y-118038095D01*
X146702381Y-118466667D01*
X148678571Y-119133333D02*
X148678571Y-119466667D01*
X149202381Y-119466667D02*
X148202381Y-119466667D01*
X148202381Y-118990476D01*
X148202381Y-118180952D02*
X148202381Y-118371429D01*
X148250000Y-118466667D01*
X148297619Y-118514286D01*
X148440476Y-118609524D01*
X148630952Y-118657143D01*
X149011905Y-118657143D01*
X149107143Y-118609524D01*
X149154762Y-118561905D01*
X149202381Y-118466667D01*
X149202381Y-118276190D01*
X149154762Y-118180952D01*
X149107143Y-118133333D01*
X149011905Y-118085714D01*
X148773810Y-118085714D01*
X148678571Y-118133333D01*
X148630952Y-118180952D01*
X148583333Y-118276190D01*
X148583333Y-118466667D01*
X148630952Y-118561905D01*
X148678571Y-118609524D01*
X148773810Y-118657143D01*
X151416667Y-120490476D02*
X151416667Y-120014285D01*
X151702381Y-120585714D02*
X150702381Y-120252381D01*
X151702381Y-119919047D01*
X151702381Y-119061904D02*
X151702381Y-119633333D01*
X151702381Y-119347619D02*
X150702381Y-119347619D01*
X150845238Y-119442857D01*
X150940476Y-119538095D01*
X150988095Y-119633333D01*
X150702381Y-118728571D02*
X150702381Y-118109523D01*
X151083333Y-118442857D01*
X151083333Y-118299999D01*
X151130952Y-118204761D01*
X151178571Y-118157142D01*
X151273810Y-118109523D01*
X151511905Y-118109523D01*
X151607143Y-118157142D01*
X151654762Y-118204761D01*
X151702381Y-118299999D01*
X151702381Y-118585714D01*
X151654762Y-118680952D01*
X151607143Y-118728571D01*
X153916667Y-120490476D02*
X153916667Y-120014285D01*
X154202381Y-120585714D02*
X153202381Y-120252381D01*
X154202381Y-119919047D01*
X154202381Y-119061904D02*
X154202381Y-119633333D01*
X154202381Y-119347619D02*
X153202381Y-119347619D01*
X153345238Y-119442857D01*
X153440476Y-119538095D01*
X153488095Y-119633333D01*
X153297619Y-118680952D02*
X153250000Y-118633333D01*
X153202381Y-118538095D01*
X153202381Y-118299999D01*
X153250000Y-118204761D01*
X153297619Y-118157142D01*
X153392857Y-118109523D01*
X153488095Y-118109523D01*
X153630952Y-118157142D01*
X154202381Y-118728571D01*
X154202381Y-118109523D01*
X156416667Y-120490476D02*
X156416667Y-120014285D01*
X156702381Y-120585714D02*
X155702381Y-120252381D01*
X156702381Y-119919047D01*
X156702381Y-119061904D02*
X156702381Y-119633333D01*
X156702381Y-119347619D02*
X155702381Y-119347619D01*
X155845238Y-119442857D01*
X155940476Y-119538095D01*
X155988095Y-119633333D01*
X156702381Y-118109523D02*
X156702381Y-118680952D01*
X156702381Y-118395238D02*
X155702381Y-118395238D01*
X155845238Y-118490476D01*
X155940476Y-118585714D01*
X155988095Y-118680952D01*
X158916667Y-120490476D02*
X158916667Y-120014285D01*
X159202381Y-120585714D02*
X158202381Y-120252381D01*
X159202381Y-119919047D01*
X159202381Y-119061904D02*
X159202381Y-119633333D01*
X159202381Y-119347619D02*
X158202381Y-119347619D01*
X158345238Y-119442857D01*
X158440476Y-119538095D01*
X158488095Y-119633333D01*
X158202381Y-118442857D02*
X158202381Y-118347618D01*
X158250000Y-118252380D01*
X158297619Y-118204761D01*
X158392857Y-118157142D01*
X158583333Y-118109523D01*
X158821429Y-118109523D01*
X159011905Y-118157142D01*
X159107143Y-118204761D01*
X159154762Y-118252380D01*
X159202381Y-118347618D01*
X159202381Y-118442857D01*
X159154762Y-118538095D01*
X159107143Y-118585714D01*
X159011905Y-118633333D01*
X158821429Y-118680952D01*
X158583333Y-118680952D01*
X158392857Y-118633333D01*
X158297619Y-118585714D01*
X158250000Y-118538095D01*
X158202381Y-118442857D01*
X161416667Y-119514286D02*
X161416667Y-119038095D01*
X161702381Y-119609524D02*
X160702381Y-119276191D01*
X161702381Y-118942857D01*
X161702381Y-118561905D02*
X161702381Y-118371429D01*
X161654762Y-118276190D01*
X161607143Y-118228571D01*
X161464286Y-118133333D01*
X161273810Y-118085714D01*
X160892857Y-118085714D01*
X160797619Y-118133333D01*
X160750000Y-118180952D01*
X160702381Y-118276190D01*
X160702381Y-118466667D01*
X160750000Y-118561905D01*
X160797619Y-118609524D01*
X160892857Y-118657143D01*
X161130952Y-118657143D01*
X161226190Y-118609524D01*
X161273810Y-118561905D01*
X161321429Y-118466667D01*
X161321429Y-118276190D01*
X161273810Y-118180952D01*
X161226190Y-118133333D01*
X161130952Y-118085714D01*
X164166667Y-119514286D02*
X164166667Y-119038095D01*
X164452381Y-119609524D02*
X163452381Y-119276191D01*
X164452381Y-118942857D01*
X163880952Y-118466667D02*
X163833333Y-118561905D01*
X163785714Y-118609524D01*
X163690476Y-118657143D01*
X163642857Y-118657143D01*
X163547619Y-118609524D01*
X163500000Y-118561905D01*
X163452381Y-118466667D01*
X163452381Y-118276190D01*
X163500000Y-118180952D01*
X163547619Y-118133333D01*
X163642857Y-118085714D01*
X163690476Y-118085714D01*
X163785714Y-118133333D01*
X163833333Y-118180952D01*
X163880952Y-118276190D01*
X163880952Y-118466667D01*
X163928571Y-118561905D01*
X163976190Y-118609524D01*
X164071429Y-118657143D01*
X164261905Y-118657143D01*
X164357143Y-118609524D01*
X164404762Y-118561905D01*
X164452381Y-118466667D01*
X164452381Y-118276190D01*
X164404762Y-118180952D01*
X164357143Y-118133333D01*
X164261905Y-118085714D01*
X164071429Y-118085714D01*
X163976190Y-118133333D01*
X163928571Y-118180952D01*
X163880952Y-118276190D01*
X166952381Y-119538095D02*
X165952381Y-119538095D01*
X165952381Y-119300000D01*
X166000000Y-119157142D01*
X166095238Y-119061904D01*
X166190476Y-119014285D01*
X166380952Y-118966666D01*
X166523810Y-118966666D01*
X166714286Y-119014285D01*
X166809524Y-119061904D01*
X166904762Y-119157142D01*
X166952381Y-119300000D01*
X166952381Y-119538095D01*
X166380952Y-118395238D02*
X166333333Y-118490476D01*
X166285714Y-118538095D01*
X166190476Y-118585714D01*
X166142857Y-118585714D01*
X166047619Y-118538095D01*
X166000000Y-118490476D01*
X165952381Y-118395238D01*
X165952381Y-118204761D01*
X166000000Y-118109523D01*
X166047619Y-118061904D01*
X166142857Y-118014285D01*
X166190476Y-118014285D01*
X166285714Y-118061904D01*
X166333333Y-118109523D01*
X166380952Y-118204761D01*
X166380952Y-118395238D01*
X166428571Y-118490476D01*
X166476190Y-118538095D01*
X166571429Y-118585714D01*
X166761905Y-118585714D01*
X166857143Y-118538095D01*
X166904762Y-118490476D01*
X166952381Y-118395238D01*
X166952381Y-118204761D01*
X166904762Y-118109523D01*
X166857143Y-118061904D01*
X166761905Y-118014285D01*
X166571429Y-118014285D01*
X166476190Y-118061904D01*
X166428571Y-118109523D01*
X166380952Y-118204761D01*
X168928571Y-120180952D02*
X168976190Y-120038095D01*
X169023810Y-119990476D01*
X169119048Y-119942857D01*
X169261905Y-119942857D01*
X169357143Y-119990476D01*
X169404762Y-120038095D01*
X169452381Y-120133333D01*
X169452381Y-120514286D01*
X168452381Y-120514286D01*
X168452381Y-120180952D01*
X168500000Y-120085714D01*
X168547619Y-120038095D01*
X168642857Y-119990476D01*
X168738095Y-119990476D01*
X168833333Y-120038095D01*
X168880952Y-120085714D01*
X168928571Y-120180952D01*
X168928571Y-120514286D01*
X169452381Y-118990476D02*
X169452381Y-119561905D01*
X169452381Y-119276191D02*
X168452381Y-119276191D01*
X168595238Y-119371429D01*
X168690476Y-119466667D01*
X168738095Y-119561905D01*
X168452381Y-118085714D02*
X168452381Y-118561905D01*
X168928571Y-118609524D01*
X168880952Y-118561905D01*
X168833333Y-118466667D01*
X168833333Y-118228571D01*
X168880952Y-118133333D01*
X168928571Y-118085714D01*
X169023810Y-118038095D01*
X169261905Y-118038095D01*
X169357143Y-118085714D01*
X169404762Y-118133333D01*
X169452381Y-118228571D01*
X169452381Y-118466667D01*
X169404762Y-118561905D01*
X169357143Y-118609524D01*
X171428571Y-120180952D02*
X171476190Y-120038095D01*
X171523810Y-119990476D01*
X171619048Y-119942857D01*
X171761905Y-119942857D01*
X171857143Y-119990476D01*
X171904762Y-120038095D01*
X171952381Y-120133333D01*
X171952381Y-120514286D01*
X170952381Y-120514286D01*
X170952381Y-120180952D01*
X171000000Y-120085714D01*
X171047619Y-120038095D01*
X171142857Y-119990476D01*
X171238095Y-119990476D01*
X171333333Y-120038095D01*
X171380952Y-120085714D01*
X171428571Y-120180952D01*
X171428571Y-120514286D01*
X171952381Y-118990476D02*
X171952381Y-119561905D01*
X171952381Y-119276191D02*
X170952381Y-119276191D01*
X171095238Y-119371429D01*
X171190476Y-119466667D01*
X171238095Y-119561905D01*
X171285714Y-118133333D02*
X171952381Y-118133333D01*
X170904762Y-118371429D02*
X171619048Y-118609524D01*
X171619048Y-117990476D01*
X171428571Y-136990476D02*
X171428571Y-136657142D01*
X171952381Y-136514285D02*
X171952381Y-136990476D01*
X170952381Y-136990476D01*
X170952381Y-136514285D01*
X171952381Y-136038095D02*
X171952381Y-135847619D01*
X171904762Y-135752380D01*
X171857143Y-135704761D01*
X171714286Y-135609523D01*
X171523810Y-135561904D01*
X171142857Y-135561904D01*
X171047619Y-135609523D01*
X171000000Y-135657142D01*
X170952381Y-135752380D01*
X170952381Y-135942857D01*
X171000000Y-136038095D01*
X171047619Y-136085714D01*
X171142857Y-136133333D01*
X171380952Y-136133333D01*
X171476190Y-136085714D01*
X171523810Y-136038095D01*
X171571429Y-135942857D01*
X171571429Y-135752380D01*
X171523810Y-135657142D01*
X171476190Y-135609523D01*
X171380952Y-135561904D01*
X168928571Y-136990476D02*
X168928571Y-136657142D01*
X169452381Y-136514285D02*
X169452381Y-136990476D01*
X168452381Y-136990476D01*
X168452381Y-136514285D01*
X168880952Y-135942857D02*
X168833333Y-136038095D01*
X168785714Y-136085714D01*
X168690476Y-136133333D01*
X168642857Y-136133333D01*
X168547619Y-136085714D01*
X168500000Y-136038095D01*
X168452381Y-135942857D01*
X168452381Y-135752380D01*
X168500000Y-135657142D01*
X168547619Y-135609523D01*
X168642857Y-135561904D01*
X168690476Y-135561904D01*
X168785714Y-135609523D01*
X168833333Y-135657142D01*
X168880952Y-135752380D01*
X168880952Y-135942857D01*
X168928571Y-136038095D01*
X168976190Y-136085714D01*
X169071429Y-136133333D01*
X169261905Y-136133333D01*
X169357143Y-136085714D01*
X169404762Y-136038095D01*
X169452381Y-135942857D01*
X169452381Y-135752380D01*
X169404762Y-135657142D01*
X169357143Y-135609523D01*
X169261905Y-135561904D01*
X169071429Y-135561904D01*
X168976190Y-135609523D01*
X168928571Y-135657142D01*
X168880952Y-135752380D01*
X166428571Y-136704761D02*
X166476190Y-136561904D01*
X166523810Y-136514285D01*
X166619048Y-136466666D01*
X166761905Y-136466666D01*
X166857143Y-136514285D01*
X166904762Y-136561904D01*
X166952381Y-136657142D01*
X166952381Y-137038095D01*
X165952381Y-137038095D01*
X165952381Y-136704761D01*
X166000000Y-136609523D01*
X166047619Y-136561904D01*
X166142857Y-136514285D01*
X166238095Y-136514285D01*
X166333333Y-136561904D01*
X166380952Y-136609523D01*
X166428571Y-136704761D01*
X166428571Y-137038095D01*
X166047619Y-136085714D02*
X166000000Y-136038095D01*
X165952381Y-135942857D01*
X165952381Y-135704761D01*
X166000000Y-135609523D01*
X166047619Y-135561904D01*
X166142857Y-135514285D01*
X166238095Y-135514285D01*
X166380952Y-135561904D01*
X166952381Y-136133333D01*
X166952381Y-135514285D01*
X163678571Y-136704761D02*
X163726190Y-136561904D01*
X163773810Y-136514285D01*
X163869048Y-136466666D01*
X164011905Y-136466666D01*
X164107143Y-136514285D01*
X164154762Y-136561904D01*
X164202381Y-136657142D01*
X164202381Y-137038095D01*
X163202381Y-137038095D01*
X163202381Y-136704761D01*
X163250000Y-136609523D01*
X163297619Y-136561904D01*
X163392857Y-136514285D01*
X163488095Y-136514285D01*
X163583333Y-136561904D01*
X163630952Y-136609523D01*
X163678571Y-136704761D01*
X163678571Y-137038095D01*
X164202381Y-135514285D02*
X164202381Y-136085714D01*
X164202381Y-135800000D02*
X163202381Y-135800000D01*
X163345238Y-135895238D01*
X163440476Y-135990476D01*
X163488095Y-136085714D01*
X161178571Y-136704761D02*
X161226190Y-136561904D01*
X161273810Y-136514285D01*
X161369048Y-136466666D01*
X161511905Y-136466666D01*
X161607143Y-136514285D01*
X161654762Y-136561904D01*
X161702381Y-136657142D01*
X161702381Y-137038095D01*
X160702381Y-137038095D01*
X160702381Y-136704761D01*
X160750000Y-136609523D01*
X160797619Y-136561904D01*
X160892857Y-136514285D01*
X160988095Y-136514285D01*
X161083333Y-136561904D01*
X161130952Y-136609523D01*
X161178571Y-136704761D01*
X161178571Y-137038095D01*
X160702381Y-135847619D02*
X160702381Y-135752380D01*
X160750000Y-135657142D01*
X160797619Y-135609523D01*
X160892857Y-135561904D01*
X161083333Y-135514285D01*
X161321429Y-135514285D01*
X161511905Y-135561904D01*
X161607143Y-135609523D01*
X161654762Y-135657142D01*
X161702381Y-135752380D01*
X161702381Y-135847619D01*
X161654762Y-135942857D01*
X161607143Y-135990476D01*
X161511905Y-136038095D01*
X161321429Y-136085714D01*
X161083333Y-136085714D01*
X160892857Y-136038095D01*
X160797619Y-135990476D01*
X160750000Y-135942857D01*
X160702381Y-135847619D01*
X158916667Y-137014286D02*
X158916667Y-136538095D01*
X159202381Y-137109524D02*
X158202381Y-136776191D01*
X159202381Y-136442857D01*
X158202381Y-135680952D02*
X158202381Y-135871429D01*
X158250000Y-135966667D01*
X158297619Y-136014286D01*
X158440476Y-136109524D01*
X158630952Y-136157143D01*
X159011905Y-136157143D01*
X159107143Y-136109524D01*
X159154762Y-136061905D01*
X159202381Y-135966667D01*
X159202381Y-135776190D01*
X159154762Y-135680952D01*
X159107143Y-135633333D01*
X159011905Y-135585714D01*
X158773810Y-135585714D01*
X158678571Y-135633333D01*
X158630952Y-135680952D01*
X158583333Y-135776190D01*
X158583333Y-135966667D01*
X158630952Y-136061905D01*
X158678571Y-136109524D01*
X158773810Y-136157143D01*
X156416667Y-137014286D02*
X156416667Y-136538095D01*
X156702381Y-137109524D02*
X155702381Y-136776191D01*
X156702381Y-136442857D01*
X155702381Y-135633333D02*
X155702381Y-136109524D01*
X156178571Y-136157143D01*
X156130952Y-136109524D01*
X156083333Y-136014286D01*
X156083333Y-135776190D01*
X156130952Y-135680952D01*
X156178571Y-135633333D01*
X156273810Y-135585714D01*
X156511905Y-135585714D01*
X156607143Y-135633333D01*
X156654762Y-135680952D01*
X156702381Y-135776190D01*
X156702381Y-136014286D01*
X156654762Y-136109524D01*
X156607143Y-136157143D01*
X153666667Y-137014286D02*
X153666667Y-136538095D01*
X153952381Y-137109524D02*
X152952381Y-136776191D01*
X153952381Y-136442857D01*
X153285714Y-135680952D02*
X153952381Y-135680952D01*
X152904762Y-135919048D02*
X153619048Y-136157143D01*
X153619048Y-135538095D01*
X151416667Y-137014286D02*
X151416667Y-136538095D01*
X151702381Y-137109524D02*
X150702381Y-136776191D01*
X151702381Y-136442857D01*
X150702381Y-136204762D02*
X150702381Y-135585714D01*
X151083333Y-135919048D01*
X151083333Y-135776190D01*
X151130952Y-135680952D01*
X151178571Y-135633333D01*
X151273810Y-135585714D01*
X151511905Y-135585714D01*
X151607143Y-135633333D01*
X151654762Y-135680952D01*
X151702381Y-135776190D01*
X151702381Y-136061905D01*
X151654762Y-136157143D01*
X151607143Y-136204762D01*
X148666667Y-137014286D02*
X148666667Y-136538095D01*
X148952381Y-137109524D02*
X147952381Y-136776191D01*
X148952381Y-136442857D01*
X148047619Y-136157143D02*
X148000000Y-136109524D01*
X147952381Y-136014286D01*
X147952381Y-135776190D01*
X148000000Y-135680952D01*
X148047619Y-135633333D01*
X148142857Y-135585714D01*
X148238095Y-135585714D01*
X148380952Y-135633333D01*
X148952381Y-136204762D01*
X148952381Y-135585714D01*
X146166667Y-137014286D02*
X146166667Y-136538095D01*
X146452381Y-137109524D02*
X145452381Y-136776191D01*
X146452381Y-136442857D01*
X146452381Y-135585714D02*
X146452381Y-136157143D01*
X146452381Y-135871429D02*
X145452381Y-135871429D01*
X145595238Y-135966667D01*
X145690476Y-136061905D01*
X145738095Y-136157143D01*
X143666667Y-137014286D02*
X143666667Y-136538095D01*
X143952381Y-137109524D02*
X142952381Y-136776191D01*
X143952381Y-136442857D01*
X142952381Y-135919048D02*
X142952381Y-135823809D01*
X143000000Y-135728571D01*
X143047619Y-135680952D01*
X143142857Y-135633333D01*
X143333333Y-135585714D01*
X143571429Y-135585714D01*
X143761905Y-135633333D01*
X143857143Y-135680952D01*
X143904762Y-135728571D01*
X143952381Y-135823809D01*
X143952381Y-135919048D01*
X143904762Y-136014286D01*
X143857143Y-136061905D01*
X143761905Y-136109524D01*
X143571429Y-136157143D01*
X143333333Y-136157143D01*
X143142857Y-136109524D01*
X143047619Y-136061905D01*
X143000000Y-136014286D01*
X142952381Y-135919048D01*
X140928571Y-136633333D02*
X140928571Y-136966667D01*
X141452381Y-136966667D02*
X140452381Y-136966667D01*
X140452381Y-136490476D01*
X141452381Y-135585714D02*
X141452381Y-136157143D01*
X141452381Y-135871429D02*
X140452381Y-135871429D01*
X140595238Y-135966667D01*
X140690476Y-136061905D01*
X140738095Y-136157143D01*
X138428571Y-136633333D02*
X138428571Y-136966667D01*
X138952381Y-136966667D02*
X137952381Y-136966667D01*
X137952381Y-136490476D01*
X137952381Y-135919048D02*
X137952381Y-135823809D01*
X138000000Y-135728571D01*
X138047619Y-135680952D01*
X138142857Y-135633333D01*
X138333333Y-135585714D01*
X138571429Y-135585714D01*
X138761905Y-135633333D01*
X138857143Y-135680952D01*
X138904762Y-135728571D01*
X138952381Y-135823809D01*
X138952381Y-135919048D01*
X138904762Y-136014286D01*
X138857143Y-136061905D01*
X138761905Y-136109524D01*
X138571429Y-136157143D01*
X138333333Y-136157143D01*
X138142857Y-136109524D01*
X138047619Y-136061905D01*
X138000000Y-136014286D01*
X137952381Y-135919048D01*
X136357143Y-136442857D02*
X136404762Y-136490476D01*
X136452381Y-136633333D01*
X136452381Y-136728571D01*
X136404762Y-136871429D01*
X136309524Y-136966667D01*
X136214286Y-137014286D01*
X136023810Y-137061905D01*
X135880952Y-137061905D01*
X135690476Y-137014286D01*
X135595238Y-136966667D01*
X135500000Y-136871429D01*
X135452381Y-136728571D01*
X135452381Y-136633333D01*
X135500000Y-136490476D01*
X135547619Y-136442857D01*
X136452381Y-135490476D02*
X136452381Y-136061905D01*
X136452381Y-135776191D02*
X135452381Y-135776191D01*
X135595238Y-135871429D01*
X135690476Y-135966667D01*
X135738095Y-136061905D01*
X135452381Y-134585714D02*
X135452381Y-135061905D01*
X135928571Y-135109524D01*
X135880952Y-135061905D01*
X135833333Y-134966667D01*
X135833333Y-134728571D01*
X135880952Y-134633333D01*
X135928571Y-134585714D01*
X136023810Y-134538095D01*
X136261905Y-134538095D01*
X136357143Y-134585714D01*
X136404762Y-134633333D01*
X136452381Y-134728571D01*
X136452381Y-134966667D01*
X136404762Y-135061905D01*
X136357143Y-135109524D01*
X133607143Y-136442857D02*
X133654762Y-136490476D01*
X133702381Y-136633333D01*
X133702381Y-136728571D01*
X133654762Y-136871429D01*
X133559524Y-136966667D01*
X133464286Y-137014286D01*
X133273810Y-137061905D01*
X133130952Y-137061905D01*
X132940476Y-137014286D01*
X132845238Y-136966667D01*
X132750000Y-136871429D01*
X132702381Y-136728571D01*
X132702381Y-136633333D01*
X132750000Y-136490476D01*
X132797619Y-136442857D01*
X133702381Y-135490476D02*
X133702381Y-136061905D01*
X133702381Y-135776191D02*
X132702381Y-135776191D01*
X132845238Y-135871429D01*
X132940476Y-135966667D01*
X132988095Y-136061905D01*
X133035714Y-134633333D02*
X133702381Y-134633333D01*
X132654762Y-134871429D02*
X133369048Y-135109524D01*
X133369048Y-134490476D01*
X171102381Y-126361905D02*
X172102381Y-126028572D01*
X171102381Y-125695238D01*
X172102381Y-125361905D02*
X171102381Y-125361905D01*
X171102381Y-125123810D01*
X171150000Y-124980952D01*
X171245238Y-124885714D01*
X171340476Y-124838095D01*
X171530952Y-124790476D01*
X171673810Y-124790476D01*
X171864286Y-124838095D01*
X171959524Y-124885714D01*
X172054762Y-124980952D01*
X172102381Y-125123810D01*
X172102381Y-125361905D01*
X172102381Y-124361905D02*
X171102381Y-124361905D01*
X171102381Y-124123810D01*
X171150000Y-123980952D01*
X171245238Y-123885714D01*
X171340476Y-123838095D01*
X171530952Y-123790476D01*
X171673810Y-123790476D01*
X171864286Y-123838095D01*
X171959524Y-123885714D01*
X172054762Y-123980952D01*
X172102381Y-124123810D01*
X172102381Y-124361905D01*
X171816667Y-123409524D02*
X171816667Y-122933333D01*
X172102381Y-123504762D02*
X171102381Y-123171429D01*
X172102381Y-122838095D01*
X171202381Y-132414286D02*
X172202381Y-132080953D01*
X171202381Y-131747619D01*
X172154762Y-131461905D02*
X172202381Y-131319048D01*
X172202381Y-131080952D01*
X172154762Y-130985714D01*
X172107143Y-130938095D01*
X172011905Y-130890476D01*
X171916667Y-130890476D01*
X171821429Y-130938095D01*
X171773810Y-130985714D01*
X171726190Y-131080952D01*
X171678571Y-131271429D01*
X171630952Y-131366667D01*
X171583333Y-131414286D01*
X171488095Y-131461905D01*
X171392857Y-131461905D01*
X171297619Y-131414286D01*
X171250000Y-131366667D01*
X171202381Y-131271429D01*
X171202381Y-131033333D01*
X171250000Y-130890476D01*
X172154762Y-130509524D02*
X172202381Y-130366667D01*
X172202381Y-130128571D01*
X172154762Y-130033333D01*
X172107143Y-129985714D01*
X172011905Y-129938095D01*
X171916667Y-129938095D01*
X171821429Y-129985714D01*
X171773810Y-130033333D01*
X171726190Y-130128571D01*
X171678571Y-130319048D01*
X171630952Y-130414286D01*
X171583333Y-130461905D01*
X171488095Y-130509524D01*
X171392857Y-130509524D01*
X171297619Y-130461905D01*
X171250000Y-130414286D01*
X171202381Y-130319048D01*
X171202381Y-130080952D01*
X171250000Y-129938095D01*
X171916667Y-129557143D02*
X171916667Y-129080952D01*
X172202381Y-129652381D02*
X171202381Y-129319048D01*
X172202381Y-128985714D01*
X133878571Y-128557142D02*
X133926190Y-128414285D01*
X133973810Y-128366666D01*
X134069048Y-128319047D01*
X134211905Y-128319047D01*
X134307143Y-128366666D01*
X134354762Y-128414285D01*
X134402381Y-128509523D01*
X134402381Y-128890476D01*
X133402381Y-128890476D01*
X133402381Y-128557142D01*
X133450000Y-128461904D01*
X133497619Y-128414285D01*
X133592857Y-128366666D01*
X133688095Y-128366666D01*
X133783333Y-128414285D01*
X133830952Y-128461904D01*
X133878571Y-128557142D01*
X133878571Y-128890476D01*
X133402381Y-127700000D02*
X133402381Y-127509523D01*
X133450000Y-127414285D01*
X133545238Y-127319047D01*
X133735714Y-127271428D01*
X134069048Y-127271428D01*
X134259524Y-127319047D01*
X134354762Y-127414285D01*
X134402381Y-127509523D01*
X134402381Y-127700000D01*
X134354762Y-127795238D01*
X134259524Y-127890476D01*
X134069048Y-127938095D01*
X133735714Y-127938095D01*
X133545238Y-127890476D01*
X133450000Y-127795238D01*
X133402381Y-127700000D01*
X133402381Y-126652381D02*
X133402381Y-126461904D01*
X133450000Y-126366666D01*
X133545238Y-126271428D01*
X133735714Y-126223809D01*
X134069048Y-126223809D01*
X134259524Y-126271428D01*
X134354762Y-126366666D01*
X134402381Y-126461904D01*
X134402381Y-126652381D01*
X134354762Y-126747619D01*
X134259524Y-126842857D01*
X134069048Y-126890476D01*
X133735714Y-126890476D01*
X133545238Y-126842857D01*
X133450000Y-126747619D01*
X133402381Y-126652381D01*
X133402381Y-125938095D02*
X133402381Y-125366666D01*
X134402381Y-125652381D02*
X133402381Y-125652381D01*
X137302381Y-124847619D02*
X137302381Y-124752380D01*
X137350000Y-124657142D01*
X137397619Y-124609523D01*
X137492857Y-124561904D01*
X137683333Y-124514285D01*
X137921429Y-124514285D01*
X138111905Y-124561904D01*
X138207143Y-124609523D01*
X138254762Y-124657142D01*
X138302381Y-124752380D01*
X138302381Y-124847619D01*
X138254762Y-124942857D01*
X138207143Y-124990476D01*
X138111905Y-125038095D01*
X137921429Y-125085714D01*
X137683333Y-125085714D01*
X137492857Y-125038095D01*
X137397619Y-124990476D01*
X137350000Y-124942857D01*
X137302381Y-124847619D01*
X126902381Y-127647619D02*
X126426190Y-127980953D01*
X126902381Y-128219048D02*
X125902381Y-128219048D01*
X125902381Y-127838095D01*
X125950000Y-127742857D01*
X125997619Y-127695238D01*
X126092857Y-127647619D01*
X126235714Y-127647619D01*
X126330952Y-127695238D01*
X126378571Y-127742857D01*
X126426190Y-127838095D01*
X126426190Y-128219048D01*
X126854762Y-127266667D02*
X126902381Y-127123810D01*
X126902381Y-126885714D01*
X126854762Y-126790476D01*
X126807143Y-126742857D01*
X126711905Y-126695238D01*
X126616667Y-126695238D01*
X126521429Y-126742857D01*
X126473810Y-126790476D01*
X126426190Y-126885714D01*
X126378571Y-127076191D01*
X126330952Y-127171429D01*
X126283333Y-127219048D01*
X126188095Y-127266667D01*
X126092857Y-127266667D01*
X125997619Y-127219048D01*
X125950000Y-127171429D01*
X125902381Y-127076191D01*
X125902381Y-126838095D01*
X125950000Y-126695238D01*
X125902381Y-126409524D02*
X125902381Y-125838095D01*
X126902381Y-126123810D02*
X125902381Y-126123810D01*
X126904762Y-123357143D02*
X126952381Y-123214286D01*
X126952381Y-122976190D01*
X126904762Y-122880952D01*
X126857143Y-122833333D01*
X126761905Y-122785714D01*
X126666667Y-122785714D01*
X126571429Y-122833333D01*
X126523810Y-122880952D01*
X126476190Y-122976190D01*
X126428571Y-123166667D01*
X126380952Y-123261905D01*
X126333333Y-123309524D01*
X126238095Y-123357143D01*
X126142857Y-123357143D01*
X126047619Y-123309524D01*
X126000000Y-123261905D01*
X125952381Y-123166667D01*
X125952381Y-122928571D01*
X126000000Y-122785714D01*
X125952381Y-122452381D02*
X126952381Y-122214286D01*
X126238095Y-122023809D01*
X126952381Y-121833333D01*
X125952381Y-121595238D01*
X126952381Y-121214286D02*
X125952381Y-121214286D01*
X125952381Y-120976191D01*
X126000000Y-120833333D01*
X126095238Y-120738095D01*
X126190476Y-120690476D01*
X126380952Y-120642857D01*
X126523810Y-120642857D01*
X126714286Y-120690476D01*
X126809524Y-120738095D01*
X126904762Y-120833333D01*
X126952381Y-120976191D01*
X126952381Y-121214286D01*
X124464286Y-119669048D02*
X124178571Y-120430953D01*
X123892857Y-119669048D01*
X138402381Y-129514285D02*
X138402381Y-130085714D01*
X138402381Y-129800000D02*
X137402381Y-129800000D01*
X137545238Y-129895238D01*
X137640476Y-129990476D01*
X137688095Y-130085714D01*
X131107143Y-136442857D02*
X131154762Y-136490476D01*
X131202381Y-136633333D01*
X131202381Y-136728571D01*
X131154762Y-136871429D01*
X131059524Y-136966667D01*
X130964286Y-137014286D01*
X130773810Y-137061905D01*
X130630952Y-137061905D01*
X130440476Y-137014286D01*
X130345238Y-136966667D01*
X130250000Y-136871429D01*
X130202381Y-136728571D01*
X130202381Y-136633333D01*
X130250000Y-136490476D01*
X130297619Y-136442857D01*
X131202381Y-135490476D02*
X131202381Y-136061905D01*
X131202381Y-135776191D02*
X130202381Y-135776191D01*
X130345238Y-135871429D01*
X130440476Y-135966667D01*
X130488095Y-136061905D01*
X130202381Y-135157143D02*
X130202381Y-134538095D01*
X130583333Y-134871429D01*
X130583333Y-134728571D01*
X130630952Y-134633333D01*
X130678571Y-134585714D01*
X130773810Y-134538095D01*
X131011905Y-134538095D01*
X131107143Y-134585714D01*
X131154762Y-134633333D01*
X131202381Y-134728571D01*
X131202381Y-135014286D01*
X131154762Y-135109524D01*
X131107143Y-135157143D01*
X127702381Y-136942857D02*
X128702381Y-136609524D01*
X127702381Y-136276190D01*
X128178571Y-135609523D02*
X128226190Y-135466666D01*
X128273810Y-135419047D01*
X128369048Y-135371428D01*
X128511905Y-135371428D01*
X128607143Y-135419047D01*
X128654762Y-135466666D01*
X128702381Y-135561904D01*
X128702381Y-135942857D01*
X127702381Y-135942857D01*
X127702381Y-135609523D01*
X127750000Y-135514285D01*
X127797619Y-135466666D01*
X127892857Y-135419047D01*
X127988095Y-135419047D01*
X128083333Y-135466666D01*
X128130952Y-135514285D01*
X128178571Y-135609523D01*
X128178571Y-135942857D01*
X128416667Y-134990476D02*
X128416667Y-134514285D01*
X128702381Y-135085714D02*
X127702381Y-134752381D01*
X128702381Y-134419047D01*
X127702381Y-134228571D02*
X127702381Y-133657142D01*
X128702381Y-133942857D02*
X127702381Y-133942857D01*
X125202381Y-137085714D02*
X126202381Y-136752381D01*
X125202381Y-136419047D01*
X126154762Y-136133333D02*
X126202381Y-135990476D01*
X126202381Y-135752380D01*
X126154762Y-135657142D01*
X126107143Y-135609523D01*
X126011905Y-135561904D01*
X125916667Y-135561904D01*
X125821429Y-135609523D01*
X125773810Y-135657142D01*
X125726190Y-135752380D01*
X125678571Y-135942857D01*
X125630952Y-136038095D01*
X125583333Y-136085714D01*
X125488095Y-136133333D01*
X125392857Y-136133333D01*
X125297619Y-136085714D01*
X125250000Y-136038095D01*
X125202381Y-135942857D01*
X125202381Y-135704761D01*
X125250000Y-135561904D01*
X126154762Y-135180952D02*
X126202381Y-135038095D01*
X126202381Y-134799999D01*
X126154762Y-134704761D01*
X126107143Y-134657142D01*
X126011905Y-134609523D01*
X125916667Y-134609523D01*
X125821429Y-134657142D01*
X125773810Y-134704761D01*
X125726190Y-134799999D01*
X125678571Y-134990476D01*
X125630952Y-135085714D01*
X125583333Y-135133333D01*
X125488095Y-135180952D01*
X125392857Y-135180952D01*
X125297619Y-135133333D01*
X125250000Y-135085714D01*
X125202381Y-134990476D01*
X125202381Y-134752380D01*
X125250000Y-134609523D01*
X122702381Y-137133333D02*
X123702381Y-136800000D01*
X122702381Y-136466666D01*
X123702381Y-136133333D02*
X122702381Y-136133333D01*
X122702381Y-135895238D01*
X122750000Y-135752380D01*
X122845238Y-135657142D01*
X122940476Y-135609523D01*
X123130952Y-135561904D01*
X123273810Y-135561904D01*
X123464286Y-135609523D01*
X123559524Y-135657142D01*
X123654762Y-135752380D01*
X123702381Y-135895238D01*
X123702381Y-136133333D01*
X123702381Y-135133333D02*
X122702381Y-135133333D01*
X122702381Y-134895238D01*
X122750000Y-134752380D01*
X122845238Y-134657142D01*
X122940476Y-134609523D01*
X123130952Y-134561904D01*
X123273810Y-134561904D01*
X123464286Y-134609523D01*
X123559524Y-134657142D01*
X123654762Y-134752380D01*
X123702381Y-134895238D01*
X123702381Y-135133333D01*
D12*
X142928572Y-125328571D02*
X144071429Y-125757143D01*
X142928572Y-126185714D01*
D13*
X140482233Y-128618019D02*
X144724874Y-132860660D01*
X144724874Y-132860660D02*
X143310660Y-134274874D01*
X143310660Y-134274874D02*
X139068019Y-130032233D01*
X139068019Y-130032233D02*
X140482233Y-128618019D01*
D14*
X141537236Y-131446447D02*
X141896447Y-131805657D01*
X141896447Y-131805657D02*
X142255657Y-131446447D01*
X141896447Y-131087236D02*
X142255657Y-131446447D01*
X141537236Y-131446447D02*
X141896447Y-131087236D01*
X140094739Y-130003949D02*
X140453949Y-130363159D01*
X140453949Y-130363159D02*
X140813159Y-130003949D01*
X140453949Y-129644739D02*
X140813159Y-130003949D01*
X140094739Y-130003949D02*
X140453949Y-129644739D01*
X142979734Y-132888944D02*
X143338944Y-133248155D01*
X143338944Y-133248155D02*
X143698155Y-132888944D01*
X143338944Y-132529734D02*
X143698155Y-132888944D01*
X142979734Y-132888944D02*
X143338944Y-132529734D01*
X168656000Y-139254000D02*
X169164000Y-139254000D01*
X169164000Y-139254000D02*
X169164000Y-138746000D01*
X168656000Y-138746000D02*
X169164000Y-138746000D01*
X168656000Y-139254000D02*
X168656000Y-138746000D01*
X166116000Y-139254000D02*
X166624000Y-139254000D01*
X166624000Y-139254000D02*
X166624000Y-138746000D01*
X166116000Y-138746000D02*
X166624000Y-138746000D01*
X166116000Y-139254000D02*
X166116000Y-138746000D01*
X163576000Y-139254000D02*
X164084000Y-139254000D01*
X164084000Y-139254000D02*
X164084000Y-138746000D01*
X163576000Y-138746000D02*
X164084000Y-138746000D01*
X163576000Y-139254000D02*
X163576000Y-138746000D01*
X161036000Y-139254000D02*
X161544000Y-139254000D01*
X161544000Y-139254000D02*
X161544000Y-138746000D01*
X161036000Y-138746000D02*
X161544000Y-138746000D01*
X161036000Y-139254000D02*
X161036000Y-138746000D01*
X158496000Y-139254000D02*
X159004000Y-139254000D01*
X159004000Y-139254000D02*
X159004000Y-138746000D01*
X158496000Y-138746000D02*
X159004000Y-138746000D01*
X158496000Y-139254000D02*
X158496000Y-138746000D01*
X155956000Y-139254000D02*
X156464000Y-139254000D01*
X156464000Y-139254000D02*
X156464000Y-138746000D01*
X155956000Y-138746000D02*
X156464000Y-138746000D01*
X155956000Y-139254000D02*
X155956000Y-138746000D01*
X153416000Y-139254000D02*
X153924000Y-139254000D01*
X153924000Y-139254000D02*
X153924000Y-138746000D01*
X153416000Y-138746000D02*
X153924000Y-138746000D01*
X153416000Y-139254000D02*
X153416000Y-138746000D01*
X150876000Y-139254000D02*
X151384000Y-139254000D01*
X151384000Y-139254000D02*
X151384000Y-138746000D01*
X150876000Y-138746000D02*
X151384000Y-138746000D01*
X150876000Y-139254000D02*
X150876000Y-138746000D01*
X148336000Y-139254000D02*
X148844000Y-139254000D01*
X148844000Y-139254000D02*
X148844000Y-138746000D01*
X148336000Y-138746000D02*
X148844000Y-138746000D01*
X148336000Y-139254000D02*
X148336000Y-138746000D01*
X145796000Y-139254000D02*
X146304000Y-139254000D01*
X146304000Y-139254000D02*
X146304000Y-138746000D01*
X145796000Y-138746000D02*
X146304000Y-138746000D01*
X145796000Y-139254000D02*
X145796000Y-138746000D01*
X143256000Y-139254000D02*
X143764000Y-139254000D01*
X143764000Y-139254000D02*
X143764000Y-138746000D01*
X143256000Y-138746000D02*
X143764000Y-138746000D01*
X143256000Y-139254000D02*
X143256000Y-138746000D01*
X140716000Y-139254000D02*
X141224000Y-139254000D01*
X141224000Y-139254000D02*
X141224000Y-138746000D01*
X140716000Y-138746000D02*
X141224000Y-138746000D01*
X140716000Y-139254000D02*
X140716000Y-138746000D01*
X138176000Y-139254000D02*
X138684000Y-139254000D01*
X138684000Y-139254000D02*
X138684000Y-138746000D01*
X138176000Y-138746000D02*
X138684000Y-138746000D01*
X138176000Y-139254000D02*
X138176000Y-138746000D01*
X135636000Y-139254000D02*
X136144000Y-139254000D01*
X136144000Y-139254000D02*
X136144000Y-138746000D01*
X135636000Y-138746000D02*
X136144000Y-138746000D01*
X135636000Y-139254000D02*
X135636000Y-138746000D01*
X133096000Y-139254000D02*
X133604000Y-139254000D01*
X133604000Y-139254000D02*
X133604000Y-138746000D01*
X133096000Y-138746000D02*
X133604000Y-138746000D01*
X133096000Y-139254000D02*
X133096000Y-138746000D01*
X130556000Y-139254000D02*
X131064000Y-139254000D01*
X131064000Y-139254000D02*
X131064000Y-138746000D01*
X130556000Y-138746000D02*
X131064000Y-138746000D01*
X130556000Y-139254000D02*
X130556000Y-138746000D01*
X128016000Y-139254000D02*
X128524000Y-139254000D01*
X128524000Y-139254000D02*
X128524000Y-138746000D01*
X128016000Y-138746000D02*
X128524000Y-138746000D01*
X128016000Y-139254000D02*
X128016000Y-138746000D01*
X125476000Y-139254000D02*
X125984000Y-139254000D01*
X125984000Y-139254000D02*
X125984000Y-138746000D01*
X125476000Y-138746000D02*
X125984000Y-138746000D01*
X125476000Y-139254000D02*
X125476000Y-138746000D01*
X122936000Y-139254000D02*
X123444000Y-139254000D01*
X123444000Y-139254000D02*
X123444000Y-138746000D01*
X122936000Y-138746000D02*
X123444000Y-138746000D01*
X122936000Y-139254000D02*
X122936000Y-138746000D01*
X171196000Y-139254000D02*
X171704000Y-139254000D01*
X171704000Y-139254000D02*
X171704000Y-138746000D01*
X171196000Y-138746000D02*
X171704000Y-138746000D01*
X171196000Y-139254000D02*
X171196000Y-138746000D01*
D15*
X168275000Y-137730000D02*
X169545000Y-137730000D01*
X169545000Y-137730000D02*
X170180000Y-138365000D01*
X170180000Y-138365000D02*
X170180000Y-139635000D01*
X170180000Y-139635000D02*
X169545000Y-140270000D01*
X165100000Y-138365000D02*
X165735000Y-137730000D01*
X165735000Y-137730000D02*
X167005000Y-137730000D01*
X167005000Y-137730000D02*
X167640000Y-138365000D01*
X167640000Y-138365000D02*
X167640000Y-139635000D01*
X167640000Y-139635000D02*
X167005000Y-140270000D01*
X167005000Y-140270000D02*
X165735000Y-140270000D01*
X165735000Y-140270000D02*
X165100000Y-139635000D01*
X168275000Y-137730000D02*
X167640000Y-138365000D01*
X167640000Y-139635000D02*
X168275000Y-140270000D01*
X169545000Y-140270000D02*
X168275000Y-140270000D01*
X160655000Y-137730000D02*
X161925000Y-137730000D01*
X161925000Y-137730000D02*
X162560000Y-138365000D01*
X162560000Y-138365000D02*
X162560000Y-139635000D01*
X162560000Y-139635000D02*
X161925000Y-140270000D01*
X162560000Y-138365000D02*
X163195000Y-137730000D01*
X163195000Y-137730000D02*
X164465000Y-137730000D01*
X164465000Y-137730000D02*
X165100000Y-138365000D01*
X165100000Y-138365000D02*
X165100000Y-139635000D01*
X165100000Y-139635000D02*
X164465000Y-140270000D01*
X164465000Y-140270000D02*
X163195000Y-140270000D01*
X163195000Y-140270000D02*
X162560000Y-139635000D01*
X157480000Y-138365000D02*
X158115000Y-137730000D01*
X158115000Y-137730000D02*
X159385000Y-137730000D01*
X159385000Y-137730000D02*
X160020000Y-138365000D01*
X160020000Y-138365000D02*
X160020000Y-139635000D01*
X160020000Y-139635000D02*
X159385000Y-140270000D01*
X159385000Y-140270000D02*
X158115000Y-140270000D01*
X158115000Y-140270000D02*
X157480000Y-139635000D01*
X160655000Y-137730000D02*
X160020000Y-138365000D01*
X160020000Y-139635000D02*
X160655000Y-140270000D01*
X161925000Y-140270000D02*
X160655000Y-140270000D01*
X153035000Y-137730000D02*
X154305000Y-137730000D01*
X154305000Y-137730000D02*
X154940000Y-138365000D01*
X154940000Y-138365000D02*
X154940000Y-139635000D01*
X154940000Y-139635000D02*
X154305000Y-140270000D01*
X154940000Y-138365000D02*
X155575000Y-137730000D01*
X155575000Y-137730000D02*
X156845000Y-137730000D01*
X156845000Y-137730000D02*
X157480000Y-138365000D01*
X157480000Y-138365000D02*
X157480000Y-139635000D01*
X157480000Y-139635000D02*
X156845000Y-140270000D01*
X156845000Y-140270000D02*
X155575000Y-140270000D01*
X155575000Y-140270000D02*
X154940000Y-139635000D01*
X149860000Y-138365000D02*
X150495000Y-137730000D01*
X150495000Y-137730000D02*
X151765000Y-137730000D01*
X151765000Y-137730000D02*
X152400000Y-138365000D01*
X152400000Y-138365000D02*
X152400000Y-139635000D01*
X152400000Y-139635000D02*
X151765000Y-140270000D01*
X151765000Y-140270000D02*
X150495000Y-140270000D01*
X150495000Y-140270000D02*
X149860000Y-139635000D01*
X153035000Y-137730000D02*
X152400000Y-138365000D01*
X152400000Y-139635000D02*
X153035000Y-140270000D01*
X154305000Y-140270000D02*
X153035000Y-140270000D01*
X145415000Y-137730000D02*
X146685000Y-137730000D01*
X146685000Y-137730000D02*
X147320000Y-138365000D01*
X147320000Y-138365000D02*
X147320000Y-139635000D01*
X147320000Y-139635000D02*
X146685000Y-140270000D01*
X147320000Y-138365000D02*
X147955000Y-137730000D01*
X147955000Y-137730000D02*
X149225000Y-137730000D01*
X149225000Y-137730000D02*
X149860000Y-138365000D01*
X149860000Y-138365000D02*
X149860000Y-139635000D01*
X149860000Y-139635000D02*
X149225000Y-140270000D01*
X149225000Y-140270000D02*
X147955000Y-140270000D01*
X147955000Y-140270000D02*
X147320000Y-139635000D01*
X142240000Y-138365000D02*
X142875000Y-137730000D01*
X142875000Y-137730000D02*
X144145000Y-137730000D01*
X144145000Y-137730000D02*
X144780000Y-138365000D01*
X144780000Y-138365000D02*
X144780000Y-139635000D01*
X144780000Y-139635000D02*
X144145000Y-140270000D01*
X144145000Y-140270000D02*
X142875000Y-140270000D01*
X142875000Y-140270000D02*
X142240000Y-139635000D01*
X145415000Y-137730000D02*
X144780000Y-138365000D01*
X144780000Y-139635000D02*
X145415000Y-140270000D01*
X146685000Y-140270000D02*
X145415000Y-140270000D01*
X137795000Y-137730000D02*
X139065000Y-137730000D01*
X139065000Y-137730000D02*
X139700000Y-138365000D01*
X139700000Y-138365000D02*
X139700000Y-139635000D01*
X139700000Y-139635000D02*
X139065000Y-140270000D01*
X139700000Y-138365000D02*
X140335000Y-137730000D01*
X140335000Y-137730000D02*
X141605000Y-137730000D01*
X141605000Y-137730000D02*
X142240000Y-138365000D01*
X142240000Y-138365000D02*
X142240000Y-139635000D01*
X142240000Y-139635000D02*
X141605000Y-140270000D01*
X141605000Y-140270000D02*
X140335000Y-140270000D01*
X140335000Y-140270000D02*
X139700000Y-139635000D01*
X134620000Y-138365000D02*
X135255000Y-137730000D01*
X135255000Y-137730000D02*
X136525000Y-137730000D01*
X136525000Y-137730000D02*
X137160000Y-138365000D01*
X137160000Y-138365000D02*
X137160000Y-139635000D01*
X137160000Y-139635000D02*
X136525000Y-140270000D01*
X136525000Y-140270000D02*
X135255000Y-140270000D01*
X135255000Y-140270000D02*
X134620000Y-139635000D01*
X137795000Y-137730000D02*
X137160000Y-138365000D01*
X137160000Y-139635000D02*
X137795000Y-140270000D01*
X139065000Y-140270000D02*
X137795000Y-140270000D01*
X130175000Y-137730000D02*
X131445000Y-137730000D01*
X131445000Y-137730000D02*
X132080000Y-138365000D01*
X132080000Y-138365000D02*
X132080000Y-139635000D01*
X132080000Y-139635000D02*
X131445000Y-140270000D01*
X132080000Y-138365000D02*
X132715000Y-137730000D01*
X132715000Y-137730000D02*
X133985000Y-137730000D01*
X133985000Y-137730000D02*
X134620000Y-138365000D01*
X134620000Y-138365000D02*
X134620000Y-139635000D01*
X134620000Y-139635000D02*
X133985000Y-140270000D01*
X133985000Y-140270000D02*
X132715000Y-140270000D01*
X132715000Y-140270000D02*
X132080000Y-139635000D01*
X127000000Y-138365000D02*
X127635000Y-137730000D01*
X127635000Y-137730000D02*
X128905000Y-137730000D01*
X128905000Y-137730000D02*
X129540000Y-138365000D01*
X129540000Y-138365000D02*
X129540000Y-139635000D01*
X129540000Y-139635000D02*
X128905000Y-140270000D01*
X128905000Y-140270000D02*
X127635000Y-140270000D01*
X127635000Y-140270000D02*
X127000000Y-139635000D01*
X130175000Y-137730000D02*
X129540000Y-138365000D01*
X129540000Y-139635000D02*
X130175000Y-140270000D01*
X131445000Y-140270000D02*
X130175000Y-140270000D01*
X122555000Y-137730000D02*
X123825000Y-137730000D01*
X123825000Y-137730000D02*
X124460000Y-138365000D01*
X124460000Y-138365000D02*
X124460000Y-139635000D01*
X124460000Y-139635000D02*
X123825000Y-140270000D01*
X124460000Y-138365000D02*
X125095000Y-137730000D01*
X125095000Y-137730000D02*
X126365000Y-137730000D01*
X126365000Y-137730000D02*
X127000000Y-138365000D01*
X127000000Y-138365000D02*
X127000000Y-139635000D01*
X127000000Y-139635000D02*
X126365000Y-140270000D01*
X126365000Y-140270000D02*
X125095000Y-140270000D01*
X125095000Y-140270000D02*
X124460000Y-139635000D01*
X121920000Y-138365000D02*
X121920000Y-139635000D01*
X122555000Y-137730000D02*
X121920000Y-138365000D01*
X121920000Y-139635000D02*
X122555000Y-140270000D01*
X123825000Y-140270000D02*
X122555000Y-140270000D01*
X170815000Y-137730000D02*
X172085000Y-137730000D01*
X172085000Y-137730000D02*
X172720000Y-138365000D01*
X172720000Y-138365000D02*
X172720000Y-139635000D01*
X172720000Y-139635000D02*
X172085000Y-140270000D01*
X170815000Y-137730000D02*
X170180000Y-138365000D01*
X170180000Y-139635000D02*
X170815000Y-140270000D01*
X172085000Y-140270000D02*
X170815000Y-140270000D01*
D14*
X168656000Y-116394000D02*
X169164000Y-116394000D01*
X169164000Y-116394000D02*
X169164000Y-115886000D01*
X168656000Y-115886000D02*
X169164000Y-115886000D01*
X168656000Y-116394000D02*
X168656000Y-115886000D01*
X166116000Y-116394000D02*
X166624000Y-116394000D01*
X166624000Y-116394000D02*
X166624000Y-115886000D01*
X166116000Y-115886000D02*
X166624000Y-115886000D01*
X166116000Y-116394000D02*
X166116000Y-115886000D01*
X163576000Y-116394000D02*
X164084000Y-116394000D01*
X164084000Y-116394000D02*
X164084000Y-115886000D01*
X163576000Y-115886000D02*
X164084000Y-115886000D01*
X163576000Y-116394000D02*
X163576000Y-115886000D01*
X161036000Y-116394000D02*
X161544000Y-116394000D01*
X161544000Y-116394000D02*
X161544000Y-115886000D01*
X161036000Y-115886000D02*
X161544000Y-115886000D01*
X161036000Y-116394000D02*
X161036000Y-115886000D01*
X158496000Y-116394000D02*
X159004000Y-116394000D01*
X159004000Y-116394000D02*
X159004000Y-115886000D01*
X158496000Y-115886000D02*
X159004000Y-115886000D01*
X158496000Y-116394000D02*
X158496000Y-115886000D01*
X155956000Y-116394000D02*
X156464000Y-116394000D01*
X156464000Y-116394000D02*
X156464000Y-115886000D01*
X155956000Y-115886000D02*
X156464000Y-115886000D01*
X155956000Y-116394000D02*
X155956000Y-115886000D01*
X153416000Y-116394000D02*
X153924000Y-116394000D01*
X153924000Y-116394000D02*
X153924000Y-115886000D01*
X153416000Y-115886000D02*
X153924000Y-115886000D01*
X153416000Y-116394000D02*
X153416000Y-115886000D01*
X150876000Y-116394000D02*
X151384000Y-116394000D01*
X151384000Y-116394000D02*
X151384000Y-115886000D01*
X150876000Y-115886000D02*
X151384000Y-115886000D01*
X150876000Y-116394000D02*
X150876000Y-115886000D01*
X148336000Y-116394000D02*
X148844000Y-116394000D01*
X148844000Y-116394000D02*
X148844000Y-115886000D01*
X148336000Y-115886000D02*
X148844000Y-115886000D01*
X148336000Y-116394000D02*
X148336000Y-115886000D01*
X145796000Y-116394000D02*
X146304000Y-116394000D01*
X146304000Y-116394000D02*
X146304000Y-115886000D01*
X145796000Y-115886000D02*
X146304000Y-115886000D01*
X145796000Y-116394000D02*
X145796000Y-115886000D01*
X143256000Y-116394000D02*
X143764000Y-116394000D01*
X143764000Y-116394000D02*
X143764000Y-115886000D01*
X143256000Y-115886000D02*
X143764000Y-115886000D01*
X143256000Y-116394000D02*
X143256000Y-115886000D01*
X140716000Y-116394000D02*
X141224000Y-116394000D01*
X141224000Y-116394000D02*
X141224000Y-115886000D01*
X140716000Y-115886000D02*
X141224000Y-115886000D01*
X140716000Y-116394000D02*
X140716000Y-115886000D01*
X138176000Y-116394000D02*
X138684000Y-116394000D01*
X138684000Y-116394000D02*
X138684000Y-115886000D01*
X138176000Y-115886000D02*
X138684000Y-115886000D01*
X138176000Y-116394000D02*
X138176000Y-115886000D01*
X135636000Y-116394000D02*
X136144000Y-116394000D01*
X136144000Y-116394000D02*
X136144000Y-115886000D01*
X135636000Y-115886000D02*
X136144000Y-115886000D01*
X135636000Y-116394000D02*
X135636000Y-115886000D01*
X133096000Y-116394000D02*
X133604000Y-116394000D01*
X133604000Y-116394000D02*
X133604000Y-115886000D01*
X133096000Y-115886000D02*
X133604000Y-115886000D01*
X133096000Y-116394000D02*
X133096000Y-115886000D01*
X130556000Y-116394000D02*
X131064000Y-116394000D01*
X131064000Y-116394000D02*
X131064000Y-115886000D01*
X130556000Y-115886000D02*
X131064000Y-115886000D01*
X130556000Y-116394000D02*
X130556000Y-115886000D01*
X128016000Y-116394000D02*
X128524000Y-116394000D01*
X128524000Y-116394000D02*
X128524000Y-115886000D01*
X128016000Y-115886000D02*
X128524000Y-115886000D01*
X128016000Y-116394000D02*
X128016000Y-115886000D01*
X125476000Y-116394000D02*
X125984000Y-116394000D01*
X125984000Y-116394000D02*
X125984000Y-115886000D01*
X125476000Y-115886000D02*
X125984000Y-115886000D01*
X125476000Y-116394000D02*
X125476000Y-115886000D01*
X122936000Y-116394000D02*
X123444000Y-116394000D01*
X123444000Y-116394000D02*
X123444000Y-115886000D01*
X122936000Y-115886000D02*
X123444000Y-115886000D01*
X122936000Y-116394000D02*
X122936000Y-115886000D01*
X171196000Y-116394000D02*
X171704000Y-116394000D01*
X171704000Y-116394000D02*
X171704000Y-115886000D01*
X171196000Y-115886000D02*
X171704000Y-115886000D01*
X171196000Y-116394000D02*
X171196000Y-115886000D01*
D15*
X168275000Y-114870000D02*
X169545000Y-114870000D01*
X169545000Y-114870000D02*
X170180000Y-115505000D01*
X170180000Y-115505000D02*
X170180000Y-116775000D01*
X170180000Y-116775000D02*
X169545000Y-117410000D01*
X165100000Y-115505000D02*
X165735000Y-114870000D01*
X165735000Y-114870000D02*
X167005000Y-114870000D01*
X167005000Y-114870000D02*
X167640000Y-115505000D01*
X167640000Y-115505000D02*
X167640000Y-116775000D01*
X167640000Y-116775000D02*
X167005000Y-117410000D01*
X167005000Y-117410000D02*
X165735000Y-117410000D01*
X165735000Y-117410000D02*
X165100000Y-116775000D01*
X168275000Y-114870000D02*
X167640000Y-115505000D01*
X167640000Y-116775000D02*
X168275000Y-117410000D01*
X169545000Y-117410000D02*
X168275000Y-117410000D01*
X160655000Y-114870000D02*
X161925000Y-114870000D01*
X161925000Y-114870000D02*
X162560000Y-115505000D01*
X162560000Y-115505000D02*
X162560000Y-116775000D01*
X162560000Y-116775000D02*
X161925000Y-117410000D01*
X162560000Y-115505000D02*
X163195000Y-114870000D01*
X163195000Y-114870000D02*
X164465000Y-114870000D01*
X164465000Y-114870000D02*
X165100000Y-115505000D01*
X165100000Y-115505000D02*
X165100000Y-116775000D01*
X165100000Y-116775000D02*
X164465000Y-117410000D01*
X164465000Y-117410000D02*
X163195000Y-117410000D01*
X163195000Y-117410000D02*
X162560000Y-116775000D01*
X157480000Y-115505000D02*
X158115000Y-114870000D01*
X158115000Y-114870000D02*
X159385000Y-114870000D01*
X159385000Y-114870000D02*
X160020000Y-115505000D01*
X160020000Y-115505000D02*
X160020000Y-116775000D01*
X160020000Y-116775000D02*
X159385000Y-117410000D01*
X159385000Y-117410000D02*
X158115000Y-117410000D01*
X158115000Y-117410000D02*
X157480000Y-116775000D01*
X160655000Y-114870000D02*
X160020000Y-115505000D01*
X160020000Y-116775000D02*
X160655000Y-117410000D01*
X161925000Y-117410000D02*
X160655000Y-117410000D01*
X153035000Y-114870000D02*
X154305000Y-114870000D01*
X154305000Y-114870000D02*
X154940000Y-115505000D01*
X154940000Y-115505000D02*
X154940000Y-116775000D01*
X154940000Y-116775000D02*
X154305000Y-117410000D01*
X154940000Y-115505000D02*
X155575000Y-114870000D01*
X155575000Y-114870000D02*
X156845000Y-114870000D01*
X156845000Y-114870000D02*
X157480000Y-115505000D01*
X157480000Y-115505000D02*
X157480000Y-116775000D01*
X157480000Y-116775000D02*
X156845000Y-117410000D01*
X156845000Y-117410000D02*
X155575000Y-117410000D01*
X155575000Y-117410000D02*
X154940000Y-116775000D01*
X149860000Y-115505000D02*
X150495000Y-114870000D01*
X150495000Y-114870000D02*
X151765000Y-114870000D01*
X151765000Y-114870000D02*
X152400000Y-115505000D01*
X152400000Y-115505000D02*
X152400000Y-116775000D01*
X152400000Y-116775000D02*
X151765000Y-117410000D01*
X151765000Y-117410000D02*
X150495000Y-117410000D01*
X150495000Y-117410000D02*
X149860000Y-116775000D01*
X153035000Y-114870000D02*
X152400000Y-115505000D01*
X152400000Y-116775000D02*
X153035000Y-117410000D01*
X154305000Y-117410000D02*
X153035000Y-117410000D01*
X145415000Y-114870000D02*
X146685000Y-114870000D01*
X146685000Y-114870000D02*
X147320000Y-115505000D01*
X147320000Y-115505000D02*
X147320000Y-116775000D01*
X147320000Y-116775000D02*
X146685000Y-117410000D01*
X147320000Y-115505000D02*
X147955000Y-114870000D01*
X147955000Y-114870000D02*
X149225000Y-114870000D01*
X149225000Y-114870000D02*
X149860000Y-115505000D01*
X149860000Y-115505000D02*
X149860000Y-116775000D01*
X149860000Y-116775000D02*
X149225000Y-117410000D01*
X149225000Y-117410000D02*
X147955000Y-117410000D01*
X147955000Y-117410000D02*
X147320000Y-116775000D01*
X142240000Y-115505000D02*
X142875000Y-114870000D01*
X142875000Y-114870000D02*
X144145000Y-114870000D01*
X144145000Y-114870000D02*
X144780000Y-115505000D01*
X144780000Y-115505000D02*
X144780000Y-116775000D01*
X144780000Y-116775000D02*
X144145000Y-117410000D01*
X144145000Y-117410000D02*
X142875000Y-117410000D01*
X142875000Y-117410000D02*
X142240000Y-116775000D01*
X145415000Y-114870000D02*
X144780000Y-115505000D01*
X144780000Y-116775000D02*
X145415000Y-117410000D01*
X146685000Y-117410000D02*
X145415000Y-117410000D01*
X137795000Y-114870000D02*
X139065000Y-114870000D01*
X139065000Y-114870000D02*
X139700000Y-115505000D01*
X139700000Y-115505000D02*
X139700000Y-116775000D01*
X139700000Y-116775000D02*
X139065000Y-117410000D01*
X139700000Y-115505000D02*
X140335000Y-114870000D01*
X140335000Y-114870000D02*
X141605000Y-114870000D01*
X141605000Y-114870000D02*
X142240000Y-115505000D01*
X142240000Y-115505000D02*
X142240000Y-116775000D01*
X142240000Y-116775000D02*
X141605000Y-117410000D01*
X141605000Y-117410000D02*
X140335000Y-117410000D01*
X140335000Y-117410000D02*
X139700000Y-116775000D01*
X134620000Y-115505000D02*
X135255000Y-114870000D01*
X135255000Y-114870000D02*
X136525000Y-114870000D01*
X136525000Y-114870000D02*
X137160000Y-115505000D01*
X137160000Y-115505000D02*
X137160000Y-116775000D01*
X137160000Y-116775000D02*
X136525000Y-117410000D01*
X136525000Y-117410000D02*
X135255000Y-117410000D01*
X135255000Y-117410000D02*
X134620000Y-116775000D01*
X137795000Y-114870000D02*
X137160000Y-115505000D01*
X137160000Y-116775000D02*
X137795000Y-117410000D01*
X139065000Y-117410000D02*
X137795000Y-117410000D01*
X130175000Y-114870000D02*
X131445000Y-114870000D01*
X131445000Y-114870000D02*
X132080000Y-115505000D01*
X132080000Y-115505000D02*
X132080000Y-116775000D01*
X132080000Y-116775000D02*
X131445000Y-117410000D01*
X132080000Y-115505000D02*
X132715000Y-114870000D01*
X132715000Y-114870000D02*
X133985000Y-114870000D01*
X133985000Y-114870000D02*
X134620000Y-115505000D01*
X134620000Y-115505000D02*
X134620000Y-116775000D01*
X134620000Y-116775000D02*
X133985000Y-117410000D01*
X133985000Y-117410000D02*
X132715000Y-117410000D01*
X132715000Y-117410000D02*
X132080000Y-116775000D01*
X127000000Y-115505000D02*
X127635000Y-114870000D01*
X127635000Y-114870000D02*
X128905000Y-114870000D01*
X128905000Y-114870000D02*
X129540000Y-115505000D01*
X129540000Y-115505000D02*
X129540000Y-116775000D01*
X129540000Y-116775000D02*
X128905000Y-117410000D01*
X128905000Y-117410000D02*
X127635000Y-117410000D01*
X127635000Y-117410000D02*
X127000000Y-116775000D01*
X130175000Y-114870000D02*
X129540000Y-115505000D01*
X129540000Y-116775000D02*
X130175000Y-117410000D01*
X131445000Y-117410000D02*
X130175000Y-117410000D01*
X122555000Y-114870000D02*
X123825000Y-114870000D01*
X123825000Y-114870000D02*
X124460000Y-115505000D01*
X124460000Y-115505000D02*
X124460000Y-116775000D01*
X124460000Y-116775000D02*
X123825000Y-117410000D01*
X124460000Y-115505000D02*
X125095000Y-114870000D01*
X125095000Y-114870000D02*
X126365000Y-114870000D01*
X126365000Y-114870000D02*
X127000000Y-115505000D01*
X127000000Y-115505000D02*
X127000000Y-116775000D01*
X127000000Y-116775000D02*
X126365000Y-117410000D01*
X126365000Y-117410000D02*
X125095000Y-117410000D01*
X125095000Y-117410000D02*
X124460000Y-116775000D01*
X121920000Y-115505000D02*
X121920000Y-116775000D01*
X122555000Y-114870000D02*
X121920000Y-115505000D01*
X121920000Y-116775000D02*
X122555000Y-117410000D01*
X123825000Y-117410000D02*
X122555000Y-117410000D01*
X170815000Y-114870000D02*
X172085000Y-114870000D01*
X172085000Y-114870000D02*
X172720000Y-115505000D01*
X172720000Y-115505000D02*
X172720000Y-116775000D01*
X172720000Y-116775000D02*
X172085000Y-117410000D01*
X170815000Y-114870000D02*
X170180000Y-115505000D01*
X170180000Y-116775000D02*
X170815000Y-117410000D01*
X172085000Y-117410000D02*
X170815000Y-117410000D01*
D14*
X164797560Y-126351220D02*
X164449580Y-126351220D01*
X164449580Y-126351220D02*
X164449580Y-127148780D01*
X164797560Y-127148780D02*
X164449580Y-127148780D01*
X164797560Y-126351220D02*
X164797560Y-127148780D01*
X163550420Y-126351220D02*
X163202440Y-126351220D01*
X163202440Y-126351220D02*
X163202440Y-127148780D01*
X163550420Y-127148780D02*
X163202440Y-127148780D01*
X163550420Y-126351220D02*
X163550420Y-127148780D01*
X165399540Y-125952440D02*
X162600460Y-125952440D01*
X162600460Y-125952440D02*
X162600460Y-127547560D01*
X165399540Y-127547560D02*
X162600460Y-127547560D01*
X165399540Y-125952440D02*
X165399540Y-127547560D01*
D16*
X163682500Y-127067500D02*
X163682500Y-126432500D01*
X163682500Y-126750000D02*
X164317500Y-127067500D01*
X164317500Y-127067500D02*
X164317500Y-126432500D01*
X164317500Y-126432500D02*
X163682500Y-126750000D01*
D14*
X138404060Y-131518020D02*
X138650119Y-131764079D01*
X138650119Y-131764079D02*
X139214079Y-131200119D01*
X138968020Y-130954060D02*
X139214079Y-131200119D01*
X138404060Y-131518020D02*
X138968020Y-130954060D01*
X139285921Y-132399881D02*
X139531980Y-132645940D01*
X139531980Y-132645940D02*
X140095940Y-132081980D01*
X139849881Y-131835921D02*
X140095940Y-132081980D01*
X139285921Y-132399881D02*
X139849881Y-131835921D01*
X137696416Y-131374336D02*
X139675664Y-133353584D01*
X139675664Y-133353584D02*
X140803584Y-132225664D01*
X138824336Y-130246416D02*
X140803584Y-132225664D01*
X137696416Y-131374336D02*
X138824336Y-130246416D01*
D17*
X138984184Y-131042066D02*
X140007934Y-132065816D01*
X139515816Y-132557934D02*
X138492066Y-131534184D01*
D14*
X142595940Y-134581980D02*
X142349881Y-134335921D01*
X142349881Y-134335921D02*
X141785921Y-134899881D01*
X142031980Y-135145940D02*
X141785921Y-134899881D01*
X142595940Y-134581980D02*
X142031980Y-135145940D01*
X141714079Y-133700119D02*
X141468020Y-133454060D01*
X141468020Y-133454060D02*
X140904060Y-134018020D01*
X141150119Y-134264079D02*
X140904060Y-134018020D01*
X141714079Y-133700119D02*
X141150119Y-134264079D01*
X143303584Y-134725664D02*
X141324336Y-132746416D01*
X141324336Y-132746416D02*
X140196416Y-133874336D01*
X142175664Y-135853584D02*
X140196416Y-133874336D01*
X143303584Y-134725664D02*
X142175664Y-135853584D01*
D17*
X142015816Y-135057934D02*
X140992066Y-134034184D01*
X141484184Y-133542066D02*
X142507934Y-134565816D01*
D14*
X129352440Y-122098780D02*
X129700420Y-122098780D01*
X129700420Y-122098780D02*
X129700420Y-121301220D01*
X129352440Y-121301220D02*
X129700420Y-121301220D01*
X129352440Y-122098780D02*
X129352440Y-121301220D01*
X130599580Y-122098780D02*
X130947560Y-122098780D01*
X130947560Y-122098780D02*
X130947560Y-121301220D01*
X130599580Y-121301220D02*
X130947560Y-121301220D01*
X130599580Y-122098780D02*
X130599580Y-121301220D01*
X128750460Y-122497560D02*
X131549540Y-122497560D01*
X131549540Y-122497560D02*
X131549540Y-120902440D01*
X128750460Y-120902440D02*
X131549540Y-120902440D01*
X128750460Y-122497560D02*
X128750460Y-120902440D01*
D17*
X129426100Y-121352020D02*
X130873900Y-121352020D01*
X130873900Y-122047980D02*
X129426100Y-122047980D01*
D14*
X147095940Y-133081980D02*
X146849881Y-132835921D01*
X146849881Y-132835921D02*
X146285921Y-133399881D01*
X146531980Y-133645940D02*
X146285921Y-133399881D01*
X147095940Y-133081980D02*
X146531980Y-133645940D01*
X146214079Y-132200119D02*
X145968020Y-131954060D01*
X145968020Y-131954060D02*
X145404060Y-132518020D01*
X145650119Y-132764079D02*
X145404060Y-132518020D01*
X146214079Y-132200119D02*
X145650119Y-132764079D01*
X147803584Y-133225664D02*
X145824336Y-131246416D01*
X145824336Y-131246416D02*
X144696416Y-132374336D01*
X146675664Y-134353584D02*
X144696416Y-132374336D01*
X147803584Y-133225664D02*
X146675664Y-134353584D01*
D17*
X146515816Y-133557934D02*
X145492066Y-132534184D01*
X145984184Y-132042066D02*
X147007934Y-133065816D01*
D14*
X141968020Y-124895940D02*
X142214079Y-124649881D01*
X142214079Y-124649881D02*
X141650119Y-124085921D01*
X141404060Y-124331980D02*
X141650119Y-124085921D01*
X141968020Y-124895940D02*
X141404060Y-124331980D01*
X142849881Y-124014079D02*
X143095940Y-123768020D01*
X143095940Y-123768020D02*
X142531980Y-123204060D01*
X142285921Y-123450119D02*
X142531980Y-123204060D01*
X142849881Y-124014079D02*
X142285921Y-123450119D01*
X141824336Y-125603584D02*
X143803584Y-123624336D01*
X143803584Y-123624336D02*
X142675664Y-122496416D01*
X140696416Y-124475664D02*
X142675664Y-122496416D01*
X141824336Y-125603584D02*
X140696416Y-124475664D01*
D17*
X141492066Y-124315816D02*
X142515816Y-123292066D01*
X143007934Y-123784184D02*
X141984184Y-124807934D01*
D14*
X135804000Y-127554000D02*
X135804000Y-127046000D01*
X135804000Y-127046000D02*
X135296000Y-127046000D01*
X135296000Y-127554000D02*
X135296000Y-127046000D01*
X135804000Y-127554000D02*
X135296000Y-127554000D01*
X135804000Y-130094000D02*
X135804000Y-129586000D01*
X135804000Y-129586000D02*
X135296000Y-129586000D01*
X135296000Y-130094000D02*
X135296000Y-129586000D01*
X135804000Y-130094000D02*
X135296000Y-130094000D01*
X135804000Y-125014000D02*
X135804000Y-124506000D01*
X135804000Y-124506000D02*
X135296000Y-124506000D01*
X135296000Y-125014000D02*
X135296000Y-124506000D01*
X135804000Y-125014000D02*
X135296000Y-125014000D01*
D15*
X134280000Y-130475000D02*
X134280000Y-129205000D01*
X134280000Y-129205000D02*
X134915000Y-128570000D01*
X134915000Y-128570000D02*
X136185000Y-128570000D01*
X136185000Y-128570000D02*
X136820000Y-129205000D01*
X134915000Y-128570000D02*
X134280000Y-127935000D01*
X134280000Y-127935000D02*
X134280000Y-126665000D01*
X134280000Y-126665000D02*
X134915000Y-126030000D01*
X134915000Y-126030000D02*
X136185000Y-126030000D01*
X136185000Y-126030000D02*
X136820000Y-126665000D01*
X136820000Y-126665000D02*
X136820000Y-127935000D01*
X136820000Y-127935000D02*
X136185000Y-128570000D01*
X134915000Y-131110000D02*
X136185000Y-131110000D01*
X134280000Y-130475000D02*
X134915000Y-131110000D01*
X136185000Y-131110000D02*
X136820000Y-130475000D01*
X136820000Y-129205000D02*
X136820000Y-130475000D01*
X134915000Y-126030000D02*
X134280000Y-125395000D01*
X134280000Y-125395000D02*
X134280000Y-124125000D01*
X134280000Y-124125000D02*
X134915000Y-123490000D01*
X134915000Y-123490000D02*
X136185000Y-123490000D01*
X136185000Y-123490000D02*
X136820000Y-124125000D01*
X136820000Y-124125000D02*
X136820000Y-125395000D01*
X136820000Y-125395000D02*
X136185000Y-126030000D01*
D14*
X166976000Y-124754000D02*
X167484000Y-124754000D01*
X167484000Y-124754000D02*
X167484000Y-124246000D01*
X166976000Y-124246000D02*
X167484000Y-124246000D01*
X166976000Y-124754000D02*
X166976000Y-124246000D01*
X169516000Y-124754000D02*
X170024000Y-124754000D01*
X170024000Y-124754000D02*
X170024000Y-124246000D01*
X169516000Y-124246000D02*
X170024000Y-124246000D01*
X169516000Y-124754000D02*
X169516000Y-124246000D01*
D15*
X166595000Y-123230000D02*
X167865000Y-123230000D01*
X167865000Y-123230000D02*
X168500000Y-123865000D01*
X168500000Y-123865000D02*
X168500000Y-125135000D01*
X168500000Y-125135000D02*
X167865000Y-125770000D01*
X165960000Y-123865000D02*
X165960000Y-125135000D01*
X166595000Y-123230000D02*
X165960000Y-123865000D01*
X165960000Y-125135000D02*
X166595000Y-125770000D01*
X167865000Y-125770000D02*
X166595000Y-125770000D01*
X168500000Y-123865000D02*
X169135000Y-123230000D01*
X169135000Y-123230000D02*
X170405000Y-123230000D01*
X170405000Y-123230000D02*
X171040000Y-123865000D01*
X171040000Y-123865000D02*
X171040000Y-125135000D01*
X171040000Y-125135000D02*
X170405000Y-125770000D01*
X170405000Y-125770000D02*
X169135000Y-125770000D01*
X169135000Y-125770000D02*
X168500000Y-125135000D01*
D14*
X166976000Y-131004000D02*
X167484000Y-131004000D01*
X167484000Y-131004000D02*
X167484000Y-130496000D01*
X166976000Y-130496000D02*
X167484000Y-130496000D01*
X166976000Y-131004000D02*
X166976000Y-130496000D01*
X169516000Y-131004000D02*
X170024000Y-131004000D01*
X170024000Y-131004000D02*
X170024000Y-130496000D01*
X169516000Y-130496000D02*
X170024000Y-130496000D01*
X169516000Y-131004000D02*
X169516000Y-130496000D01*
D15*
X166595000Y-129480000D02*
X167865000Y-129480000D01*
X167865000Y-129480000D02*
X168500000Y-130115000D01*
X168500000Y-130115000D02*
X168500000Y-131385000D01*
X168500000Y-131385000D02*
X167865000Y-132020000D01*
X165960000Y-130115000D02*
X165960000Y-131385000D01*
X166595000Y-129480000D02*
X165960000Y-130115000D01*
X165960000Y-131385000D02*
X166595000Y-132020000D01*
X167865000Y-132020000D02*
X166595000Y-132020000D01*
X168500000Y-130115000D02*
X169135000Y-129480000D01*
X169135000Y-129480000D02*
X170405000Y-129480000D01*
X170405000Y-129480000D02*
X171040000Y-130115000D01*
X171040000Y-130115000D02*
X171040000Y-131385000D01*
X171040000Y-131385000D02*
X170405000Y-132020000D01*
X170405000Y-132020000D02*
X169135000Y-132020000D01*
X169135000Y-132020000D02*
X168500000Y-131385000D01*
D14*
X163202440Y-129148780D02*
X163550420Y-129148780D01*
X163550420Y-129148780D02*
X163550420Y-128351220D01*
X163202440Y-128351220D02*
X163550420Y-128351220D01*
X163202440Y-129148780D02*
X163202440Y-128351220D01*
X164449580Y-129148780D02*
X164797560Y-129148780D01*
X164797560Y-129148780D02*
X164797560Y-128351220D01*
X164449580Y-128351220D02*
X164797560Y-128351220D01*
X164449580Y-129148780D02*
X164449580Y-128351220D01*
X162600460Y-129547560D02*
X165399540Y-129547560D01*
X165399540Y-129547560D02*
X165399540Y-127952440D01*
X162600460Y-127952440D02*
X165399540Y-127952440D01*
X162600460Y-129547560D02*
X162600460Y-127952440D01*
D17*
X163276100Y-128402020D02*
X164723900Y-128402020D01*
X164723900Y-129097980D02*
X163276100Y-129097980D01*
D14*
X129452440Y-132898780D02*
X129800420Y-132898780D01*
X129800420Y-132898780D02*
X129800420Y-132101220D01*
X129452440Y-132101220D02*
X129800420Y-132101220D01*
X129452440Y-132898780D02*
X129452440Y-132101220D01*
X130699580Y-132898780D02*
X131047560Y-132898780D01*
X131047560Y-132898780D02*
X131047560Y-132101220D01*
X130699580Y-132101220D02*
X131047560Y-132101220D01*
X130699580Y-132898780D02*
X130699580Y-132101220D01*
X128850460Y-133297560D02*
X131649540Y-133297560D01*
X131649540Y-133297560D02*
X131649540Y-131702440D01*
X128850460Y-131702440D02*
X131649540Y-131702440D01*
X128850460Y-133297560D02*
X128850460Y-131702440D01*
D17*
X129526100Y-132152020D02*
X130973900Y-132152020D01*
X130973900Y-132847980D02*
X129526100Y-132847980D01*
D15*
X131012000Y-123898000D02*
X131012000Y-124152000D01*
X131012000Y-123898000D02*
X129488000Y-123898000D01*
X129488000Y-124152000D02*
X129488000Y-123898000D01*
X129234000Y-124152000D02*
X127710000Y-124152000D01*
X129488000Y-130502000D02*
X129488000Y-130248000D01*
X129488000Y-130502000D02*
X131012000Y-130502000D01*
X131012000Y-130248000D02*
X131012000Y-130502000D01*
X127710000Y-124152000D02*
X127202000Y-124660000D01*
X133298000Y-124660000D02*
X132790000Y-124152000D01*
X132790000Y-124152000D02*
X131266000Y-124152000D01*
X127202000Y-129740000D02*
X127710000Y-130248000D01*
X127710000Y-130248000D02*
X129234000Y-130248000D01*
X133298000Y-129740000D02*
X132790000Y-130248000D01*
X132790000Y-130248000D02*
X131266000Y-130248000D01*
D18*
X128980000Y-128470000D02*
X131520000Y-128470000D01*
X131520000Y-125930000D02*
X131520000Y-128470000D01*
X131520000Y-125930000D02*
X128980000Y-125930000D01*
X128980000Y-128470000D02*
X128980000Y-125930000D01*
X127202000Y-128470000D02*
X127456000Y-128470000D01*
X127456000Y-125930000D02*
X127456000Y-128470000D01*
X127456000Y-125930000D02*
X127202000Y-125930000D01*
X133044000Y-126057000D02*
X133044000Y-128470000D01*
X133044000Y-126057000D02*
X133298000Y-126057000D01*
X133044000Y-128470000D02*
X133298000Y-128470000D01*
D15*
X133298000Y-124660000D02*
X133298000Y-125041000D01*
X133298000Y-129740000D02*
X133298000Y-129359000D01*
X133298000Y-129359000D02*
X133298000Y-128470000D01*
X127202000Y-129740000D02*
X127202000Y-129359000D01*
X127202000Y-124660000D02*
X127202000Y-125041000D01*
X127202000Y-125041000D02*
X127202000Y-125930000D01*
X127202000Y-125930000D02*
X127202000Y-128470000D01*
X127202000Y-128470000D02*
X127202000Y-129359000D01*
X133298000Y-128470000D02*
X133298000Y-126057000D01*
X133298000Y-126057000D02*
X133298000Y-125041000D01*
X131012000Y-124152000D02*
X131266000Y-124152000D01*
X129488000Y-124152000D02*
X129234000Y-124152000D01*
X131012000Y-130248000D02*
X131266000Y-130248000D01*
X129488000Y-130248000D02*
X129234000Y-130248000D01*
X132409000Y-128470000D02*
X132409000Y-125930000D01*
X127964000Y-125930000D02*
X127964000Y-128470000D01*
X128980000Y-129613000D02*
X129742000Y-129613000D01*
X130758000Y-129613000D02*
X131520000Y-129613000D01*
X129742000Y-129613000D02*
X130631000Y-129359000D01*
D19*
X131507236Y-127200000D02*
G75*
G03X131507236Y-127200000I-1257236J0D01*
G01*
X132768210Y-129359000D02*
G75*
G03X132768210Y-129359000I-359210J0D01*
G01*
X132641210Y-125041000D02*
G75*
G03X132641210Y-125041000I-359210J0D01*
G01*
X128450210Y-125041000D02*
G75*
G03X128450210Y-125041000I-359210J0D01*
G01*
X128450210Y-129359000D02*
G75*
G03X128450210Y-129359000I-359210J0D01*
G01*
D20*
X130699013Y-127200000D02*
G75*
G03X130699013Y-127200000I-449013J0D01*
G01*
D19*
X130429605Y-127200000D02*
G75*
G03X130429605Y-127200000I-179605J0D01*
G01*
D13*
X144623476Y-126300000D02*
X144941674Y-126618198D01*
X149750000Y-121173476D02*
X150121231Y-121544707D01*
X154876524Y-126300000D02*
X154505293Y-125928769D01*
X149750000Y-131426524D02*
X149378769Y-131055293D01*
X144623476Y-126300000D02*
X144994707Y-125928769D01*
X149750000Y-131426524D02*
X150121231Y-131055293D01*
X154876524Y-126300000D02*
X154505293Y-126671231D01*
X149750000Y-121173476D02*
X149378769Y-121544707D01*
X144941674Y-126618198D02*
X143969402Y-127590470D01*
D14*
X123796000Y-129286000D02*
X123796000Y-129794000D01*
X123796000Y-129794000D02*
X124304000Y-129794000D01*
X124304000Y-129286000D02*
X124304000Y-129794000D01*
X123796000Y-129286000D02*
X124304000Y-129286000D01*
X123796000Y-126746000D02*
X123796000Y-127254000D01*
X123796000Y-127254000D02*
X124304000Y-127254000D01*
X124304000Y-126746000D02*
X124304000Y-127254000D01*
X123796000Y-126746000D02*
X124304000Y-126746000D01*
X123796000Y-124206000D02*
X123796000Y-124714000D01*
X123796000Y-124714000D02*
X124304000Y-124714000D01*
X124304000Y-124206000D02*
X124304000Y-124714000D01*
X123796000Y-124206000D02*
X124304000Y-124206000D01*
X123796000Y-121666000D02*
X123796000Y-122174000D01*
X123796000Y-122174000D02*
X124304000Y-122174000D01*
X124304000Y-121666000D02*
X124304000Y-122174000D01*
X123796000Y-121666000D02*
X124304000Y-121666000D01*
X123796000Y-131826000D02*
X123796000Y-132334000D01*
X123796000Y-132334000D02*
X124304000Y-132334000D01*
X124304000Y-131826000D02*
X124304000Y-132334000D01*
X123796000Y-131826000D02*
X124304000Y-131826000D01*
D15*
X125320000Y-128905000D02*
X125320000Y-130175000D01*
X125320000Y-130175000D02*
X124685000Y-130810000D01*
X124685000Y-130810000D02*
X123415000Y-130810000D01*
X123415000Y-130810000D02*
X122780000Y-130175000D01*
X124685000Y-125730000D02*
X125320000Y-126365000D01*
X125320000Y-126365000D02*
X125320000Y-127635000D01*
X125320000Y-127635000D02*
X124685000Y-128270000D01*
X124685000Y-128270000D02*
X123415000Y-128270000D01*
X123415000Y-128270000D02*
X122780000Y-127635000D01*
X122780000Y-127635000D02*
X122780000Y-126365000D01*
X122780000Y-126365000D02*
X123415000Y-125730000D01*
X125320000Y-128905000D02*
X124685000Y-128270000D01*
X123415000Y-128270000D02*
X122780000Y-128905000D01*
X122780000Y-130175000D02*
X122780000Y-128905000D01*
X125320000Y-121285000D02*
X125320000Y-122555000D01*
X125320000Y-122555000D02*
X124685000Y-123190000D01*
X124685000Y-123190000D02*
X123415000Y-123190000D01*
X123415000Y-123190000D02*
X122780000Y-122555000D01*
X124685000Y-123190000D02*
X125320000Y-123825000D01*
X125320000Y-123825000D02*
X125320000Y-125095000D01*
X125320000Y-125095000D02*
X124685000Y-125730000D01*
X124685000Y-125730000D02*
X123415000Y-125730000D01*
X123415000Y-125730000D02*
X122780000Y-125095000D01*
X122780000Y-125095000D02*
X122780000Y-123825000D01*
X122780000Y-123825000D02*
X123415000Y-123190000D01*
X124685000Y-120650000D02*
X123415000Y-120650000D01*
X125320000Y-121285000D02*
X124685000Y-120650000D01*
X123415000Y-120650000D02*
X122780000Y-121285000D01*
X122780000Y-122555000D02*
X122780000Y-121285000D01*
X125320000Y-131445000D02*
X125320000Y-132715000D01*
X125320000Y-132715000D02*
X124685000Y-133350000D01*
X124685000Y-133350000D02*
X123415000Y-133350000D01*
X123415000Y-133350000D02*
X122780000Y-132715000D01*
X125320000Y-131445000D02*
X124685000Y-130810000D01*
X123415000Y-130810000D02*
X122780000Y-131445000D01*
X122780000Y-132715000D02*
X122780000Y-131445000D01*
D14*
X156654060Y-129268020D02*
X156900119Y-129514079D01*
X156900119Y-129514079D02*
X157464079Y-128950119D01*
X157218020Y-128704060D02*
X157464079Y-128950119D01*
X156654060Y-129268020D02*
X157218020Y-128704060D01*
X157535921Y-130149881D02*
X157781980Y-130395940D01*
X157781980Y-130395940D02*
X158345940Y-129831980D01*
X158099881Y-129585921D02*
X158345940Y-129831980D01*
X157535921Y-130149881D02*
X158099881Y-129585921D01*
X155946416Y-129124336D02*
X157925664Y-131103584D01*
X157925664Y-131103584D02*
X159053584Y-129975664D01*
X157074336Y-127996416D02*
X159053584Y-129975664D01*
X155946416Y-129124336D02*
X157074336Y-127996416D01*
D17*
X157234184Y-128792066D02*
X158257934Y-129815816D01*
X157765816Y-130307934D02*
X156742066Y-129284184D01*
D14*
X156654060Y-124018020D02*
X156900119Y-124264079D01*
X156900119Y-124264079D02*
X157464079Y-123700119D01*
X157218020Y-123454060D02*
X157464079Y-123700119D01*
X156654060Y-124018020D02*
X157218020Y-123454060D01*
X157535921Y-124899881D02*
X157781980Y-125145940D01*
X157781980Y-125145940D02*
X158345940Y-124581980D01*
X158099881Y-124335921D02*
X158345940Y-124581980D01*
X157535921Y-124899881D02*
X158099881Y-124335921D01*
X155946416Y-123874336D02*
X157925664Y-125853584D01*
X157925664Y-125853584D02*
X159053584Y-124725664D01*
X157074336Y-122746416D02*
X159053584Y-124725664D01*
X155946416Y-123874336D02*
X157074336Y-122746416D01*
D17*
X157234184Y-123542066D02*
X158257934Y-124565816D01*
X157765816Y-125057934D02*
X156742066Y-124034184D01*
D14*
X154204060Y-131718020D02*
X154450119Y-131964079D01*
X154450119Y-131964079D02*
X155014079Y-131400119D01*
X154768020Y-131154060D02*
X155014079Y-131400119D01*
X154204060Y-131718020D02*
X154768020Y-131154060D01*
X155085921Y-132599881D02*
X155331980Y-132845940D01*
X155331980Y-132845940D02*
X155895940Y-132281980D01*
X155649881Y-132035921D02*
X155895940Y-132281980D01*
X155085921Y-132599881D02*
X155649881Y-132035921D01*
X153496416Y-131574336D02*
X155475664Y-133553584D01*
X155475664Y-133553584D02*
X156603584Y-132425664D01*
X154624336Y-130446416D02*
X156603584Y-132425664D01*
X153496416Y-131574336D02*
X154624336Y-130446416D01*
D17*
X154784184Y-131242066D02*
X155807934Y-132265816D01*
X155315816Y-132757934D02*
X154292066Y-131734184D01*
D16*
X138764806Y-127440355D02*
X138529104Y-128618867D01*
X139236211Y-127911760D02*
X138057699Y-128147462D01*
X139168868Y-129258630D02*
X138764806Y-128854569D01*
X138966837Y-129056599D02*
X139673943Y-128349492D01*
X139505585Y-128383164D01*
X139370898Y-128383164D01*
X139269883Y-128349492D01*
D19*
X159880953Y-127202381D02*
X159404762Y-127202381D01*
X159404762Y-126202381D01*
X160214286Y-126678571D02*
X160547620Y-126678571D01*
X160690477Y-127202381D02*
X160214286Y-127202381D01*
X160214286Y-126202381D01*
X160690477Y-126202381D01*
X161119048Y-127202381D02*
X161119048Y-126202381D01*
X161357143Y-126202381D01*
X161500001Y-126250000D01*
X161595239Y-126345238D01*
X161642858Y-126440476D01*
X161690477Y-126630952D01*
X161690477Y-126773810D01*
X161642858Y-126964286D01*
X161595239Y-127059524D01*
X161500001Y-127154762D01*
X161357143Y-127202381D01*
X161119048Y-127202381D01*
X162642858Y-127202381D02*
X162071429Y-127202381D01*
X162357143Y-127202381D02*
X162357143Y-126202381D01*
X162261905Y-126345238D01*
X162166667Y-126440476D01*
X162071429Y-126488095D01*
X137173685Y-132236843D02*
X137105264Y-132236843D01*
X136968422Y-132168422D01*
X136900001Y-132100001D01*
X136831580Y-131963160D01*
X136831580Y-131826317D01*
X136865791Y-131723686D01*
X136968422Y-131552633D01*
X137071053Y-131450002D01*
X137242106Y-131347371D01*
X137344738Y-131313160D01*
X137481580Y-131313160D01*
X137618421Y-131381581D01*
X137686842Y-131450002D01*
X137755263Y-131586844D01*
X137755263Y-131655265D01*
X137789474Y-132989474D02*
X137378948Y-132578948D01*
X137584211Y-132784212D02*
X138302632Y-132065791D01*
X138131579Y-132100002D01*
X137994737Y-132100002D01*
X137892105Y-132065791D01*
X139423685Y-134486842D02*
X139355264Y-134486842D01*
X139218422Y-134418421D01*
X139150001Y-134350000D01*
X139081580Y-134213159D01*
X139081580Y-134076316D01*
X139115791Y-133973685D01*
X139218422Y-133802632D01*
X139321053Y-133700001D01*
X139492106Y-133597370D01*
X139594738Y-133563159D01*
X139731580Y-133563159D01*
X139868421Y-133631580D01*
X139936842Y-133700001D01*
X140005263Y-133836843D01*
X140005263Y-133905264D01*
X140278947Y-134178948D02*
X140347369Y-134178948D01*
X140450000Y-134213159D01*
X140621052Y-134384211D01*
X140655263Y-134486842D01*
X140655263Y-134555263D01*
X140621052Y-134657895D01*
X140552631Y-134726316D01*
X140415789Y-134794737D01*
X139594738Y-134794737D01*
X140039474Y-135239473D01*
X132380667Y-122162857D02*
X132332286Y-122211238D01*
X132187143Y-122259619D01*
X132090381Y-122259619D01*
X131945239Y-122211238D01*
X131848477Y-122114476D01*
X131800096Y-122017714D01*
X131751715Y-121824190D01*
X131751715Y-121679048D01*
X131800096Y-121485524D01*
X131848477Y-121388762D01*
X131945239Y-121292000D01*
X132090381Y-121243619D01*
X132187143Y-121243619D01*
X132332286Y-121292000D01*
X132380667Y-121340381D01*
X132719334Y-121243619D02*
X133348286Y-121243619D01*
X133009620Y-121630667D01*
X133154762Y-121630667D01*
X133251524Y-121679048D01*
X133299905Y-121727429D01*
X133348286Y-121824190D01*
X133348286Y-122066095D01*
X133299905Y-122162857D01*
X133251524Y-122211238D01*
X133154762Y-122259619D01*
X132864477Y-122259619D01*
X132767715Y-122211238D01*
X132719334Y-122162857D01*
X147373685Y-134436842D02*
X147305264Y-134436842D01*
X147168422Y-134368421D01*
X147100001Y-134300000D01*
X147031580Y-134163159D01*
X147031580Y-134026316D01*
X147065791Y-133923685D01*
X147168422Y-133752632D01*
X147271053Y-133650001D01*
X147442106Y-133547370D01*
X147544738Y-133513159D01*
X147681580Y-133513159D01*
X147818421Y-133581580D01*
X147886842Y-133650001D01*
X147955263Y-133786843D01*
X147955263Y-133855264D01*
X148399999Y-134642105D02*
X147921053Y-135121052D01*
X148502632Y-134197369D02*
X147818422Y-134539474D01*
X148263158Y-134984210D01*
X140886842Y-123726315D02*
X140886842Y-123794736D01*
X140818421Y-123931578D01*
X140750000Y-123999999D01*
X140613159Y-124068420D01*
X140476316Y-124068420D01*
X140373685Y-124034209D01*
X140202632Y-123931578D01*
X140100001Y-123828947D01*
X139997370Y-123657894D01*
X139963159Y-123555262D01*
X139963159Y-123418420D01*
X140031580Y-123281579D01*
X140100001Y-123213158D01*
X140236843Y-123144737D01*
X140305264Y-123144737D01*
X140886842Y-122426316D02*
X140544738Y-122768421D01*
X140852632Y-123144737D01*
X140852632Y-123076316D01*
X140886843Y-122973684D01*
X141057895Y-122802632D01*
X141160526Y-122768422D01*
X141228947Y-122768422D01*
X141331578Y-122802631D01*
X141502631Y-122973684D01*
X141536842Y-123076316D01*
X141536842Y-123144737D01*
X141502631Y-123247368D01*
X141331579Y-123418420D01*
X141228947Y-123452631D01*
X141160526Y-123452631D01*
X161330667Y-129209619D02*
X160992001Y-128725810D01*
X160750096Y-129209619D02*
X160750096Y-128193619D01*
X161137143Y-128193619D01*
X161233905Y-128242000D01*
X161282286Y-128290381D01*
X161330667Y-128387143D01*
X161330667Y-128532286D01*
X161282286Y-128629048D01*
X161233905Y-128677429D01*
X161137143Y-128725810D01*
X160750096Y-128725810D01*
X162298286Y-129209619D02*
X161717715Y-129209619D01*
X162008001Y-129209619D02*
X162008001Y-128193619D01*
X161911239Y-128338762D01*
X161814477Y-128435524D01*
X161717715Y-128483905D01*
X132330667Y-132959619D02*
X131992001Y-132475810D01*
X131750096Y-132959619D02*
X131750096Y-131943619D01*
X132137143Y-131943619D01*
X132233905Y-131992000D01*
X132282286Y-132040381D01*
X132330667Y-132137143D01*
X132330667Y-132282286D01*
X132282286Y-132379048D01*
X132233905Y-132427429D01*
X132137143Y-132475810D01*
X131750096Y-132475810D01*
X132717715Y-132040381D02*
X132766096Y-131992000D01*
X132862858Y-131943619D01*
X133104762Y-131943619D01*
X133201524Y-131992000D01*
X133249905Y-132040381D01*
X133298286Y-132137143D01*
X133298286Y-132233905D01*
X133249905Y-132379048D01*
X132669334Y-132959619D01*
X133298286Y-132959619D01*
D16*
X128538524Y-130520143D02*
X128538524Y-131245857D01*
X128538524Y-130883000D02*
X127268524Y-130883000D01*
X127449952Y-131003952D01*
X127570905Y-131124905D01*
X127631381Y-131245857D01*
X127516476Y-123371857D02*
X127456000Y-123311381D01*
X127395524Y-123190429D01*
X127395524Y-122888048D01*
X127456000Y-122767095D01*
X127516476Y-122706619D01*
X127637429Y-122646143D01*
X127758381Y-122646143D01*
X127939810Y-122706619D01*
X128665524Y-123432333D01*
X128665524Y-122646143D01*
X131713524Y-131560333D02*
X131713524Y-130774143D01*
X132197333Y-131197476D01*
X132197333Y-131016048D01*
X132257810Y-130895095D01*
X132318286Y-130834619D01*
X132439238Y-130774143D01*
X132741619Y-130774143D01*
X132862571Y-130834619D01*
X132923048Y-130895095D01*
X132983524Y-131016048D01*
X132983524Y-131378905D01*
X132923048Y-131499857D01*
X132862571Y-131560333D01*
X132136857Y-122767095D02*
X132983524Y-122767095D01*
X131653048Y-123069476D02*
X132560190Y-123371857D01*
X132560190Y-122585667D01*
D13*
X144581386Y-122208882D02*
X145153806Y-122781302D01*
X145254821Y-122814974D01*
X145322164Y-122814974D01*
X145423179Y-122781302D01*
X145557867Y-122646614D01*
X145591539Y-122545599D01*
X145591539Y-122478256D01*
X145557867Y-122377241D01*
X144985447Y-121804821D01*
X146399661Y-121804821D02*
X145995599Y-122208882D01*
X146197630Y-122006852D02*
X145490523Y-121299745D01*
X145524195Y-121468104D01*
X145524195Y-121602790D01*
X145490523Y-121703806D01*
D19*
X158123685Y-128686842D02*
X158055264Y-128686842D01*
X157918422Y-128618421D01*
X157850001Y-128550000D01*
X157781580Y-128413159D01*
X157781580Y-128276316D01*
X157815791Y-128173685D01*
X157918422Y-128002632D01*
X158021053Y-127900001D01*
X158192106Y-127797370D01*
X158294738Y-127763159D01*
X158431580Y-127763159D01*
X158568421Y-127831580D01*
X158636842Y-127900001D01*
X158705263Y-128036843D01*
X158705263Y-128105264D01*
X159389473Y-128652632D02*
X159252632Y-128515790D01*
X159150000Y-128481580D01*
X159081579Y-128481580D01*
X158910526Y-128515790D01*
X158739474Y-128618422D01*
X158465790Y-128892105D01*
X158431580Y-128994737D01*
X158431580Y-129063158D01*
X158465790Y-129165790D01*
X158602632Y-129302631D01*
X158705263Y-129336842D01*
X158773684Y-129336842D01*
X158876316Y-129302631D01*
X159047369Y-129131578D01*
X159081578Y-129028947D01*
X159081578Y-128960526D01*
X159047368Y-128857895D01*
X158910526Y-128721053D01*
X158807895Y-128686843D01*
X158739474Y-128686843D01*
X158636843Y-128721053D01*
X158123685Y-123436842D02*
X158055264Y-123436842D01*
X157918422Y-123368421D01*
X157850001Y-123300000D01*
X157781580Y-123163159D01*
X157781580Y-123026316D01*
X157815791Y-122923685D01*
X157918422Y-122752632D01*
X158021053Y-122650001D01*
X158192106Y-122547370D01*
X158294738Y-122513159D01*
X158431580Y-122513159D01*
X158568421Y-122581580D01*
X158636842Y-122650001D01*
X158705263Y-122786843D01*
X158705263Y-122855264D01*
X159013158Y-123026316D02*
X159492105Y-123505263D01*
X158465790Y-123915790D01*
X153673685Y-133136842D02*
X153605264Y-133136842D01*
X153468422Y-133068421D01*
X153400001Y-133000000D01*
X153331580Y-132863159D01*
X153331580Y-132726316D01*
X153365791Y-132623685D01*
X153468422Y-132452632D01*
X153571053Y-132350001D01*
X153742106Y-132247370D01*
X153844738Y-132213159D01*
X153981580Y-132213159D01*
X154118421Y-132281580D01*
X154186842Y-132350001D01*
X154255263Y-132486843D01*
X154255263Y-132555264D01*
X154426316Y-133205264D02*
X154392105Y-133102632D01*
X154392105Y-133034211D01*
X154426316Y-132931580D01*
X154460526Y-132897369D01*
X154563158Y-132863159D01*
X154631579Y-132863159D01*
X154734211Y-132897369D01*
X154871052Y-133034211D01*
X154905263Y-133136842D01*
X154905263Y-133205263D01*
X154871052Y-133307895D01*
X154836842Y-133342105D01*
X154734210Y-133376316D01*
X154665789Y-133376316D01*
X154563157Y-133342105D01*
X154426316Y-133205264D01*
X154323684Y-133171053D01*
X154255263Y-133171053D01*
X154152632Y-133205263D01*
X154015790Y-133342105D01*
X153981580Y-133444737D01*
X153981580Y-133513158D01*
X154015790Y-133615790D01*
X154152632Y-133752631D01*
X154255263Y-133786842D01*
X154323684Y-133786842D01*
X154426316Y-133752631D01*
X154563158Y-133615789D01*
X154597368Y-133513158D01*
X154597368Y-133444737D01*
X154563157Y-133342105D01*
M02*
